<?xml version="1.0" standalone="no"?>
<!DOCTYPE svg PUBLIC "-//W3C//DTD SVG 1.1//EN" "http://www.w3.org/Graphics/SVG/1.1/DTD/svg11.dtd" >
<svg xmlns="http://www.w3.org/2000/svg" xmlns:xlink="http://www.w3.org/1999/xlink" version="1.1">
<metadata>
Created by FontForge 20161003 at Wed Oct 18 19:57:49 2017
 By www-data
COPYRIGHT ESSELTE LETRASET LTD., 1990 
</metadata>
<defs>
<font id="AachenMediumPlain" horiz-adv-x="400" >
  <font-face 
    font-family="Aachen Medium"
    font-weight="400"
    font-stretch="normal"
    units-per-em="1000"
    panose-1="2 0 5 6 5 0 0 2 0 4"
    ascent="800"
    descent="-200"
    x-height="494"
    cap-height="667"
    bbox="-67 -230 1047 872"
    underline-thickness="0"
    underline-position="0"
    unicode-range="U+0020-FB02"
  />
<missing-glyph horiz-adv-x="500" 
 />
    <glyph glyph-name=".notdef" horiz-adv-x="500" 
 />
    <glyph glyph-name=".null" horiz-adv-x="0" 
 />
    <glyph glyph-name="nonmarkingreturn" horiz-adv-x="213" 
 />
    <glyph glyph-name="space" unicode=" " horiz-adv-x="213" 
 />
    <glyph glyph-name="dollar" unicode="$" horiz-adv-x="549" 
d="M208 -52v45q-44 8 -82.5 25t-78.5 45v169h153v-8q0 -26 2 -40t7 -25q17 -35 66 -35q32 0 52 19t20 50q0 16 -4.5 28t-17 22.5t-34 21t-55.5 23.5q-24 9 -39 15t-25.5 10.5t-18 8t-15.5 8.5q-89 47 -89 155q0 77 40 125.5t116 63.5l3 1v46h132v-45q44 -8 84 -26t69 -44
v-158h-149v7v4v18q0 34 -19 52.5t-53 18.5q-31 0 -51 -17t-20 -43q0 -23 17.5 -38.5t61.5 -32.5l64 -24q45 -17 75 -35.5t48.5 -41t26.5 -51.5t8 -67q0 -81 -41 -133.5t-118 -69.5l-3 -1v-46h-132z" />
    <glyph glyph-name="percent" unicode="%" horiz-adv-x="710" 
d="M576 199v8q-1 32 -10 45.5t-31 13.5q-41 0 -41 -59v-8v-79v-8q0 -31 9.5 -44.5t31.5 -13.5q21 0 31 13.5t10 44.5v8v79zM677 161q0 -54 -3 -78.5t-11 -38.5q-28 -49 -128 -49q-52 0 -83.5 12t-45.5 38q-8 13 -10.5 37.5t-2.5 78.5q0 29 1 49t3 33.5t5.5 22.5t8.5 17
q31 42 124 42q47 0 77 -11t47 -31q5 -8 8.5 -17t5.5 -22.5t3 -33.5t1 -49zM216 546v9q0 31 -9.5 44.5t-31.5 13.5t-31.5 -13.5t-9.5 -44.5v-9v-78v-9q1 -31 10 -44.5t31 -13.5t31.5 13.5t9.5 44.5v9v78zM317 508q0 -53 -3 -78t-10 -39q-28 -49 -129 -49q-100 0 -129 50
q-8 13 -10.5 38t-2.5 78q0 29 1 49t3 34t5.5 23t9.5 17q30 41 123 41q91 0 124 -41q5 -8 8.5 -17t5.5 -23t3 -34t1 -49zM493 667h105l-380 -667h-105z" />
    <glyph glyph-name="ampersand" unicode="&#x26;" horiz-adv-x="568" 
d="M290 302q-27 0 -40 -3t-24 -12q-27 -20 -27 -66q0 -52 33 -71q10 -6 22 -8t36 -2h61v162h-61zM495 501h-149q-3 22 -20 34.5t-43 12.5q-31 0 -52 -20t-21 -50q0 -31 19 -49t51 -18h71v22h144v-22h26v-109h-26v-302h-268q-56 0 -89.5 13t-60.5 46q-17 22 -27 57t-10 77
q0 131 103 165q-92 43 -92 146q0 85 58.5 131.5t165.5 46.5q57 0 107.5 -14.5t107.5 -46.5l5 -2v-118z" />
    <glyph glyph-name="quotesingle" unicode="'" horiz-adv-x="236" 
d="M62 575q-9 25 -9 39q0 28 18.5 47t46.5 19q27 0 45.5 -19t18.5 -46q0 -17 -8 -40l-36 -96h-40z" />
    <glyph glyph-name="parenleft" unicode="(" horiz-adv-x="351" 
d="M341 733l-6 -11q-54 -92 -81.5 -186t-27.5 -182q0 -53 10 -112t27 -112q14 -42 31.5 -81t40.5 -82l6 -12l-70 -48q-100 111 -147 217.5t-47 220.5q0 113 47 219t147 217z" />
    <glyph glyph-name="parenright" unicode=")" horiz-adv-x="351" 
d="M10 -45l6 12q26 48 44 90t32 87q15 48 24 105t9 105q0 87 -28 182.5t-80 185.5l-7 11l70 48q100 -111 147 -217t47 -219q0 -114 -47 -220.5t-147 -217.5z" />
    <glyph glyph-name="asterisk" unicode="*" horiz-adv-x="281" 
d="M47 566v43h56l-28 49l38 22l28 -49l28 49l38 -22l-28 -49h56v-43h-56l28 -49l-38 -22l-28 49l-28 -49l-38 22l28 49h-56z" />
    <glyph glyph-name="plus" unicode="+" 
d="M360 7v653h-320v-653h320zM33 667h334v-667h-334v667z" />
    <glyph glyph-name="comma" unicode="," horiz-adv-x="238" 
d="M69 -52q21 15 31 26t16 27q-29 2 -46.5 20t-17.5 44q0 30 20 50.5t49 20.5q32 0 51 -21.5t19 -56.5q0 -40 -25.5 -77.5t-72.5 -64.5z" />
    <glyph glyph-name="hyphen" unicode="-" horiz-adv-x="334" 
d="M287 212h-240v96h240v-96z" />
    <glyph glyph-name="hyphen" unicode="&#xad;" horiz-adv-x="334" 
d="M287 212h-240v96h240v-96z" />
    <glyph glyph-name="period" unicode="." horiz-adv-x="238" 
d="M119 135q30 0 51 -21t21 -51q0 -29 -21 -50.5t-51 -21.5t-51 21.5t-21 50.5q0 30 21 51t51 21z" />
    <glyph glyph-name="slash" unicode="/" horiz-adv-x="500" 
d="M367 710h133l-367 -754h-133z" />
    <glyph glyph-name="zero" unicode="0" horiz-adv-x="544" 
d="M200 222v-10q0 -26 2 -38t10 -23q10 -14 25.5 -22.5t34.5 -8.5t35 8.5t25 22.5q8 11 10 22.5t2 35.5v13v222v11q0 26 -2 38t-10 23q-10 14 -26 22.5t-34 8.5q-19 0 -35 -8.5t-25 -22.5q-8 -11 -10 -22.5t-2 -36.5v-13v-222zM47 475v30q3 175 225 175q112 0 168.5 -44
t56.5 -131v-30v-283v-30q-3 -175 -225 -175q-225 0 -225 175v30v283z" />
    <glyph glyph-name="one" unicode="1" horiz-adv-x="293" 
d="M37 109q20 5 27.5 16.5t7.5 36.5v13v317v13q-1 26 -8 36.5t-27 15.5v110h188v-492v-13q0 -26 7.5 -37t27.5 -16v-109h-223v109z" />
    <glyph glyph-name="two" unicode="2" horiz-adv-x="521" 
d="M488 0h-455v154q0 30 3.5 50.5t15 38.5t32 36.5t54.5 44.5l120 94q21 15 33.5 26.5t20 20.5t10 17t2.5 18q0 26 -18 43t-47 17q-31 0 -50 -20t-19 -53v-50h-148v179q53 32 106 47t113 15q112 0 166 -43.5t54 -133.5q0 -34 -4 -57.5t-16 -43.5t-34.5 -41.5t-59.5 -50.5
l-141 -110q-17 -14 -26.5 -28t-9.5 -43h88q33 0 43 26q2 5 2.5 17t0.5 40h164v-210z" />
    <glyph glyph-name="three" unicode="3" horiz-adv-x="517" 
d="M33 621q57 30 110.5 44.5t112.5 14.5q107 0 165 -46.5t58 -131.5q0 -62 -27.5 -98t-91.5 -58q124 -32 124 -163q0 -97 -58.5 -146.5t-172.5 -49.5q-57 0 -112 14t-114 43v161h154v-12q0 -35 18 -54t50 -19q33 0 53 22t20 59q0 38 -21 58t-60 20h-15h-81v114h78h10
q89 0 89 78q0 34 -20 54.5t-54 20.5q-31 0 -49 -19t-18 -51v-8h-148v153v0z" />
    <glyph glyph-name="four" unicode="4" horiz-adv-x="528" 
d="M168 304h123v186zM444 162q0 -26 7.5 -37t27.5 -16v-109h-223v109q20 5 27.5 16.5t7.5 36.5v15h-271v142l231 348h193v-363h44v-127h-44v-15z" />
    <glyph glyph-name="five" unicode="5" horiz-adv-x="539" 
d="M487 487h-145q-2 51 -53 51h-88v-120q30 11 56.5 16t52.5 5q51 0 94 -19.5t68 -53.5q19 -25 27 -58t8 -87q0 -62 -8.5 -98.5t-28.5 -62.5q-27 -35 -77 -54t-117 -19q-31 0 -58.5 3t-54.5 10t-55.5 18.5t-60.5 27.5v173h154q0 -39 4 -54q6 -20 25.5 -32.5t42.5 -12.5
q43 0 62 34q5 10 7.5 24.5t2.5 40.5q0 34 -2.5 51t-10.5 28q-9 12 -24 19t-33 7q-36 0 -61 -31h-167v374h440v-180z" />
    <glyph glyph-name="six" unicode="6" horiz-adv-x="546" 
d="M199 214q0 -51 17 -72.5t56 -21.5q40 0 57 21.5t17 72.5t-17 73t-57 22q-39 0 -56 -22t-17 -73zM490 492h-147q-6 63 -69 63q-32 0 -53 -20t-21 -52v-19v-66q33 18 61 25.5t63 7.5q101 0 152 -68q9 -12 14.5 -24.5t9 -30t5 -40.5t1.5 -54q0 -35 -2 -60.5t-7.5 -44.5
t-14 -33.5t-21.5 -28.5q-27 -29 -76.5 -44.5t-115.5 -15.5q-137 0 -192 71q-16 20 -23 48t-7 70v16v285v23q1 180 222 180q63 0 116.5 -11.5t104.5 -36.5v-140z" />
    <glyph glyph-name="seven" unicode="7" horiz-adv-x="485" 
d="M475 551l-235 -551h-164l229 540h-56h-15q-42 0 -57.5 -15t-15.5 -53v-17v-11h-144v223h458v-116z" />
    <glyph glyph-name="eight" unicode="8" horiz-adv-x="544" 
d="M194 203q0 -91 76 -91t76 91q0 92 -76 92t-76 -92zM271 397q32 0 50.5 20.5t18.5 55.5t-18.5 55.5t-50.5 20.5t-51 -20.5t-19 -55.5t19 -55.5t51 -20.5zM130 345q-48 21 -67.5 54t-19.5 91q0 55 15.5 90.5t48.5 57.5q61 42 164 42q104 0 164 -42q64 -44 64 -144
q0 -60 -19 -93t-69 -56q52 -18 75 -56t23 -105q0 -100 -56 -148.5t-172 -48.5q-73 0 -118.5 12t-76.5 40q-53 50 -53 144q0 68 23 106.5t74 55.5z" />
    <glyph glyph-name="nine" unicode="9" horiz-adv-x="546" 
d="M274 374q72 0 72 88q0 90 -72 90q-38 0 -55 -22t-17 -70q0 -86 72 -86zM202 193v-10q0 -31 19 -49t51 -18q74 0 74 83v18v65q-37 -20 -65.5 -28t-59.5 -8q-42 0 -79.5 13.5t-58.5 36.5q-13 13 -22 31.5t-14 38.5q-4 14 -5.5 37.5t-1.5 55.5q0 31 2 55t6.5 42t12.5 32.5
t19 27.5q55 64 199 64q142 0 193 -73q8 -11 13.5 -23t8.5 -27.5t4 -36.5t1 -51v-276v-27q-3 -179 -217 -179q-63 0 -119 12.5t-110 38.5v155h149z" />
    <glyph glyph-name="colon" unicode=":" horiz-adv-x="238" 
d="M119 503q30 0 51 -21.5t21 -50.5q0 -30 -21 -51t-51 -21t-51 21t-21 51q0 29 21 50.5t51 21.5zM119 -9q-30 0 -51 21.5t-21 50.5q0 30 21 51t51 21t51 -21t21 -51q0 -29 -21 -50.5t-51 -21.5z" />
    <glyph glyph-name="semicolon" unicode=";" horiz-adv-x="238" 
d="M67 -52q21 15 30.5 26t16.5 27q-29 3 -47 20.5t-18 43.5q0 30 20 50.5t50 20.5q31 0 50 -21.5t19 -56.5q0 -41 -25.5 -78t-72.5 -64zM119 503q30 0 51 -21.5t21 -50.5q0 -30 -21 -51t-51 -21t-51 21t-21 51q0 29 21 50.5t51 21.5z" />
    <glyph glyph-name="semicolon" unicode="&#x37e;" horiz-adv-x="238" 
d="M67 -52q21 15 30.5 26t16.5 27q-29 3 -47 20.5t-18 43.5q0 30 20 50.5t50 20.5q31 0 50 -21.5t19 -56.5q0 -41 -25.5 -78t-72.5 -64zM119 503q30 0 51 -21.5t21 -50.5q0 -30 -21 -51t-51 -21t-51 21t-21 51q0 29 21 50.5t51 21.5z" />
    <glyph glyph-name="less" unicode="&#x3c;" 
d="M360 7v653h-320v-653h320zM33 667h334v-667h-334v667z" />
    <glyph glyph-name="equal" unicode="=" 
d="M360 7v653h-320v-653h320zM33 667h334v-667h-334v667z" />
    <glyph glyph-name="greater" unicode="&#x3e;" 
d="M360 7v653h-320v-653h320zM33 667h334v-667h-334v667z" />
    <glyph glyph-name="question" unicode="?" horiz-adv-x="530" 
d="M213 144q32 0 54 -22t22 -54t-22 -54.5t-54 -22.5t-54.5 22.5t-22.5 54.5t22.5 54t54.5 22zM53 614q92 66 213 66q224 0 224 -187q0 -70 -25 -109q-10 -16 -26.5 -30t-50.5 -37l-44 -29q-20 -13 -31.5 -22t-17 -17.5t-7 -18.5t-1.5 -25h-148v42q0 23 2 39.5t7.5 29
t14.5 22.5t24 21l81 58q22 16 36 26.5t21 19t9.5 16.5t2.5 18q0 27 -18.5 44t-48.5 17q-46 0 -63 -35q-5 -10 -6.5 -21t-1.5 -36v-7h-146v155z" />
    <glyph glyph-name="at" unicode="@" 
d="M360 7v653h-320v-653h320zM33 667h334v-667h-334v667z" />
    <glyph glyph-name="A" unicode="A" horiz-adv-x="532" 
d="M249 503l-43 -219h91zM480 168q3 -16 6.5 -26t7.5 -16.5t9.5 -10t14.5 -6.5v-109h-227v109q35 2 35 31q0 2 -0.5 4.5t-2.5 11.5l-1 4l-5 28h-129l-6 -28q-1 -5 -1.5 -11t-0.5 -10q0 -28 37 -30v-109h-204v109q17 5 24.5 18t14.5 46l97 494h229z" />
    <glyph glyph-name="B" unicode="B" horiz-adv-x="567" 
d="M221 129h53h21q42 1 60 19.5t18 60.5t-18 60.5t-60 18.5h-21h-53v-159zM221 402h54h13q40 0 57.5 16.5t17.5 51.5t-18 51.5t-57 16.5h-13h-54v-136zM33 109q20 5 27.5 16.5t7.5 36.5v13v317v13q0 26 -7.5 36.5t-27.5 15.5v110h250h15q54 0 83.5 -6t54.5 -20
q38 -22 58 -62t20 -92q0 -120 -95 -147q108 -24 108 -156q0 -54 -16 -94t-46 -61q-23 -17 -55 -23t-92 -6h-13h-272v109z" />
    <glyph glyph-name="C" unicode="C" horiz-adv-x="528" 
d="M488 39q-48 -24 -106.5 -38t-112.5 -14q-52 0 -95.5 12.5t-73.5 36.5q-53 41 -53 126v30v285v30q3 173 224 173q55 0 105 -10.5t112 -35.5v-188h-144v8q0 28 -2 39.5t-10 22.5q-10 14 -26 22.5t-34 8.5q-19 0 -35 -8.5t-25 -22.5q-8 -11 -10 -23t-2 -38v-11v-219
q0 -18 0.5 -29.5t1.5 -19t3.5 -12.5t6.5 -11q21 -30 60 -30q19 0 35 8t25 22q8 11 10 22.5t2 38.5v11v42h144v-228z" />
    <glyph glyph-name="D" unicode="D" horiz-adv-x="559" 
d="M221 131h42h15q42 1 61.5 16.5t19.5 49.5v22v229v22q-1 35 -20 50.5t-61 15.5h-15h-42v-405zM33 667h242h20q59 -1 95 -12t64 -36q31 -29 44.5 -68t13.5 -101v-21v-192v-20q0 -33 -3 -58t-10 -45t-18 -36t-27 -31q-29 -26 -65 -36.5t-94 -10.5h-20h-242v109
q20 5 27.5 16.5t7.5 36.5v13v317v13q0 26 -7.5 36.5t-27.5 15.5v110z" />
    <glyph glyph-name="E" unicode="E" horiz-adv-x="545" 
d="M33 109q20 5 27.5 16.5t7.5 36.5v13v317v13q0 26 -7.5 36.5t-27.5 15.5v110h472v-206h-144v5q0 38 -13.5 54t-48.5 16h-12h-66v-134h186v-113h-186v-158h64h14q35 0 48 14t14 52v26h144v-223h-472v109z" />
    <glyph glyph-name="F" unicode="F" horiz-adv-x="519" 
d="M33 109q20 5 27.5 16.5t7.5 36.5v13v317v13q0 26 -7.5 36.5t-27.5 15.5v110h459v-206h-135v7q0 39 -15.5 53t-59.5 14h-61v-131h175v-114h-175v-115v-13q1 -26 8 -37t27 -16v-109h-223v109z" />
    <glyph glyph-name="G" unicode="G" horiz-adv-x="528" 
d="M283 350h205v-300q-30 -18 -55.5 -30t-51.5 -19.5t-53 -10.5t-60 -3q-109 0 -165 44.5t-56 130.5v30v285v30q3 173 224 173q112 0 217 -48v-177h-144v8q0 20 -2.5 31.5t-9.5 21.5q-9 14 -25 22.5t-35 8.5t-35 -8.5t-25 -22.5q-8 -11 -10 -23t-2 -38v-11v-219v-16
q0 -21 2.5 -33.5t9.5 -22.5q9 -14 25 -22t35 -8t35 8t25 22q7 11 9.5 22t2.5 34v3v33h-61v105z" />
    <glyph glyph-name="H" unicode="H" horiz-adv-x="587" 
d="M33 109q20 5 27.5 16.5t7.5 36.5v13v317v13q0 26 -7.5 37t-27.5 16v109h223v-109q-20 -5 -27.5 -16.5t-7.5 -36.5v-13v-92h145v92v13q-1 26 -8 37t-27 16v109h223v-109q-20 -5 -27.5 -16.5t-7.5 -36.5v-13v-317v-13q0 -26 7.5 -37t27.5 -16v-109h-223v109q20 5 27.5 16.5
t7.5 36.5v13v111h-145v-111v-13q1 -26 8 -37t27 -16v-109h-223v109z" />
    <glyph glyph-name="I" unicode="I" horiz-adv-x="290" 
d="M33 109q20 5 27.5 16.5t7.5 36.5v13v317v13q0 26 -7.5 36.5t-27.5 15.5v110h223v-110q-20 -5 -27.5 -16t-7.5 -36v-13v-317v-13q1 -26 8 -37t27 -16v-109h-223v109z" />
    <glyph glyph-name="J" unicode="J" horiz-adv-x="295" 
d="M7 110q8 -1 11 -1h8q27 0 38.5 12.5t12.5 42.5v16v10v302v13q-1 26 -8 37t-27 16v109h223v-109q-20 -5 -27.5 -16.5t-7.5 -36.5v-13v-327v-12q-1 -40 -5.5 -62t-18.5 -42q-36 -53 -115 -53q-22 0 -42.5 3.5t-41.5 11.5v99z" />
    <glyph glyph-name="K" unicode="K" horiz-adv-x="545" 
d="M33 109q20 5 27.5 16.5t7.5 36.5v13v317v13q0 26 -7.5 37t-27.5 16v109h223v-109q-20 -5 -27.5 -16.5t-7.5 -36.5v-13v-116l73 113q12 18 18.5 29t9.5 21.5t3.5 23t0.5 33.5v7v64h188v-107q-8 -2 -14.5 -4t-12.5 -7.5t-12 -14t-15 -22.5l-89 -139l109 -206
q8 -16 14.5 -26t12 -16.5t11.5 -10t14 -5.5v-109h-208v63v7v25q0 13 -0.5 21.5t-3 16.5t-6.5 16.5t-11 22.5l-10 19l-72 132v-148v-13q1 -26 8 -37t27 -16v-109h-223v109z" />
    <glyph glyph-name="L" unicode="L" horiz-adv-x="512" 
d="M33 109q20 5 27.5 16.5t7.5 36.5v13v317v13q0 26 -7.5 36.5t-27.5 15.5v110h223v-110q-20 -5 -27.5 -16t-7.5 -36v-13v-361h62q38 0 52.5 12.5t14.5 44.5v17v97h136v-302h-453v109z" />
    <glyph glyph-name="M" unicode="M" horiz-adv-x="711" 
d="M33 109q20 5 27.5 16.5t7.5 36.5v13v317v13q0 26 -7.5 37t-27.5 16v109h252l76 -317l77 317h240v-109q-20 -5 -27.5 -16.5t-7.5 -36.5v-13v-317v-13q1 -26 8 -37t27 -16v-109h-223v109q20 5 27.5 16.5t7.5 36.5v13v262l-113 -437h-73l-109 437v-262v-13q0 -26 7.5 -37
t27.5 -16v-109h-197v109z" />
    <glyph glyph-name="N" unicode="N" horiz-adv-x="587" 
d="M33 109q20 5 27.5 16.5t7.5 36.5v13v317v13q0 26 -7.5 37t-27.5 16v109h175l171 -344v169v13q-1 26 -8 37t-27 16v109h212v-109q-20 -5 -27.5 -16.5t-7.5 -36.5v-13v-492h-140l-173 350v-175v-13q1 -26 8 -37t27 -16v-109h-210v109z" />
    <glyph glyph-name="O" unicode="O" horiz-adv-x="544" 
d="M200 212q0 -26 2 -38t10 -23q10 -14 25.5 -22.5t34.5 -8.5t35 8.5t25 22.5q8 11 10 22.5t2 35.5v246q0 26 -2 38t-10 23q-10 14 -26 22.5t-34 8.5q-19 0 -35 -8.5t-25 -22.5q-8 -11 -10 -22.5t-2 -36.5v-245zM497 162q-1 -47 -12.5 -76t-39.5 -51q-32 -25 -73.5 -36.5
t-99.5 -11.5q-114 0 -174 48q-28 23 -39.5 52.5t-11.5 74.5v343q0 47 12 76t39 50q32 26 74 37.5t100 11.5q114 0 173 -49q28 -23 40 -52t12 -74v-343z" />
    <glyph glyph-name="P" unicode="P" horiz-adv-x="541" 
d="M221 349h59h9q41 0 56.5 19t15.5 68t-15.5 68.5t-56.5 19.5h-9h-59v-175zM33 109q20 5 27.5 16.5t7.5 36.5v13v317v13q0 26 -7.5 36.5t-27.5 15.5v110h261h22q58 -1 93 -13.5t61 -41.5q13 -15 23 -36.5t15 -42.5q6 -27 6 -94q0 -31 -1 -53.5t-3.5 -39t-6.5 -29.5t-11 -26
q-14 -27 -38.5 -47t-53.5 -28q-20 -6 -38.5 -8t-50.5 -2h-16h-74v-31v-13q1 -26 8 -37t27 -16v-109h-223v109z" />
    <glyph glyph-name="Q" unicode="Q" horiz-adv-x="544" 
d="M200 222v-10q0 -26 2 -38t10 -23q10 -14 25.5 -22.5t34.5 -8.5t35 8.5t25 22.5q8 11 10 22.5t2 35.5v13v222v11q0 26 -2 38t-10 23q-10 14 -26 22.5t-34 8.5q-19 0 -35 -8.5t-25 -22.5q-8 -11 -10 -22.5t-2 -36.5v-13v-222zM450 -76q-35 14 -68.5 33.5t-47.5 33.5
q-16 -2 -31.5 -3t-32.5 -1q-112 0 -172 48q-28 23 -39.5 52.5t-11.5 74.5v30v283v30q0 47 12 76t39 50q32 26 74 37.5t100 11.5q114 0 173 -49q28 -23 40 -52t12 -74v-30v-283v-30q-1 -39 -8.5 -64t-24.5 -45q6 -5 18 -13.5t26 -16.5z" />
    <glyph glyph-name="R" unicode="R" horiz-adv-x="566" 
d="M221 383h42h11q29 0 42 3t24 11q23 18 23 67q0 45 -20 61.5t-73 16.5h-9h-40v-159zM33 109q20 5 27.5 16.5t7.5 36.5v13v317v13q0 26 -7.5 36.5t-27.5 15.5v110h260h23q49 -1 82 -9.5t56 -26.5q30 -23 46 -63t16 -92q0 -68 -25 -105t-81 -51q49 -8 70.5 -31.5t20.5 -68.5
l-1 -53q-1 -26 5.5 -38t24.5 -21v-108h-168q-8 21 -10 42.5t-2 62.5v57v16q0 29 -1.5 40t-7.5 21q-8 15 -21.5 20.5t-41.5 5.5h-57v-90v-13q1 -26 8 -37t27 -16v-109h-223v109z" />
    <glyph glyph-name="S" unicode="S" horiz-adv-x="536" 
d="M486 448h-148v7v4l-1 18q1 34 -18.5 53t-53.5 19q-31 0 -51 -17.5t-20 -43.5q0 -23 18 -38.5t61 -32.5l64 -24q45 -17 75 -35.5t49 -41t27 -51.5t8 -67q0 -99 -61 -155t-168 -56q-120 0 -227 76v169h153v-8q0 -26 2 -40t7 -25q8 -17 25.5 -26.5t40.5 -9.5q32 0 52 19.5
t20 50.5q0 16 -4.5 28t-17 22.5t-34 21t-55.5 23.5q-24 9 -39 15t-25.5 10.5t-18 8t-15.5 8.5q-89 47 -89 155q0 94 60 145.5t169 51.5q60 0 117 -20.5t98 -55.5v-158z" />
    <glyph glyph-name="T" unicode="T" horiz-adv-x="562" 
d="M170 109q20 5 27.5 16.5t7.5 36.5v13v367q-32 -2 -46 -19.5t-14 -58.5v-68h-125v271h522v-271h-124v68q0 41 -14 58.5t-46 19.5v-367v-13q0 -26 7.5 -37t27.5 -16v-109h-223v109z" />
    <glyph glyph-name="U" unicode="U" horiz-adv-x="554" 
d="M250 667v-109q-20 -5 -27.5 -16t-7.5 -37v-7v-6v-270v-10q0 -26 3.5 -39.5t12.5 -24.5q22 -24 56 -24q72 0 72 87v8v273v6v5q0 26 -7.5 38t-27.5 17v109h203v-109q-20 -5 -27.5 -16.5t-7.5 -36.5v-13v-232v-47q0 -28 -1 -48t-4 -35.5t-7.5 -27.5t-11.5 -24
q-26 -42 -74.5 -64.5t-114.5 -22.5q-103 0 -160 49.5t-57 138.5v39v274v13q-1 26 -8 37t-27 16v109h223z" />
    <glyph glyph-name="V" unicode="V" horiz-adv-x="532" 
d="M518 558q-17 -6 -23.5 -16t-11.5 -35l-2 -9l-96 -498h-230l-104 502q-7 32 -14 42.5t-24 13.5v109h228v-109q-35 -2 -35 -33v-8q0 -4 2 -9l3 -13l71 -333l66 336q4 20 4 29q0 30 -37 31v109h203v-109z" />
    <glyph glyph-name="W" unicode="W" horiz-adv-x="768" 
d="M754 558q-18 -3 -25.5 -15.5t-13.5 -50.5l-81 -492h-181l-68 321l-57 -321h-186l-90 499l-1 6l-3 15q-8 35 -35 38v109h223v-109h-6q-11 0 -19 -8t-8 -20q0 -3 0.5 -6.5t2.5 -11.5l2 -12l1 -10l48 -266l77 443h130l77 -443l44 271q0 3 1 5q3 16 3 26q0 30 -29 32v109h194
v-109z" />
    <glyph glyph-name="X" unicode="X" horiz-adv-x="501" 
d="M13 109q9 4 15.5 11t14.5 21l112 217l-93 165q-11 20 -17 26.5t-15 8.5v109h188v-51v-8v-13v-4q0 -9 1 -16t3.5 -14.5t6.5 -16.5t11 -21l29 -53l27 53q7 15 11.5 24.5t7 18t3 17.5t0.5 21v7v56h162v-109q-11 -4 -17.5 -10.5t-15.5 -24.5l-100 -193l96 -175q22 -38 44 -46
v-109h-199v78v7q0 26 -4 41t-17 37l-35 58l-36 -69q-6 -12 -9.5 -19.5t-5.5 -14t-2.5 -14t-0.5 -17.5v-10v-77h-165v109z" />
    <glyph glyph-name="Y" unicode="Y" horiz-adv-x="512" 
d="M144 109q20 5 27.5 16.5t7.5 36.5v12v82l-124 255q-13 26 -21.5 36t-20.5 13v107h199v-78v-18v-8v-3v-3q0 -21 13 -47l43 -90l44 89q4 9 7 16t4.5 14t2 15.5t0.5 21.5v19v72h173v-110q-12 -2 -20.5 -11.5t-19.5 -32.5l-5 -8l-122 -243v-85v-15q1 -26 8 -37t27 -16v-109
h-223v109z" />
    <glyph glyph-name="Z" unicode="Z" horiz-adv-x="508" 
d="M27 98l257 442h-59h-17q-53 -1 -53 -64v-11v-23h-124v225h446v-99l-252 -435h45q45 0 61 14t16 50v12v10h134v-219h-454v98z" />
    <glyph glyph-name="bracketleft" unicode="[" horiz-adv-x="351" 
d="M93 758h228v-87h-88v-676h88v-87h-228v850z" />
    <glyph glyph-name="backslash" unicode="\" horiz-adv-x="500" 
d="M367 -44l-367 754h133l367 -754h-133z" />
    <glyph glyph-name="bracketright" unicode="]" horiz-adv-x="351" 
d="M30 -92v87h88v676h-88v87h228v-850h-228z" />
    <glyph glyph-name="asciicircum" unicode="^" 
d="M360 7v653h-320v-653h320zM33 667h334v-667h-334v667z" />
    <glyph glyph-name="underscore" unicode="_" horiz-adv-x="500" 
d="M500 -230h-500v96h500v-96z" />
    <glyph glyph-name="grave" unicode="`" horiz-adv-x="276" 
d="M171 671l38 -119h-63l-79 119h104z" />
    <glyph glyph-name="a" unicode="a" horiz-adv-x="483" 
d="M292 227q-5 -2 -8.5 -4t-5.5 -3l-19 -9q-1 -1 -6.5 -3t-13.5 -7l-20 -10q-41 -22 -41 -53q0 -17 10.5 -27t27.5 -10q16 0 36.5 12.5t39.5 32.5v81v0zM54 455q48 24 101 38t98 14q79 0 129 -37q26 -20 38 -43.5t12 -58.5v-18v-177v-8v-18q0 -23 6 -32t24 -14v-101h-164v48
q-40 -32 -70 -44.5t-68 -12.5q-62 0 -97.5 36t-35.5 99q0 75 59 116q21 15 69 34q6 2 15.5 5.5t24.5 8.5q15 6 23 9t16 5l46 16q1 0 12 3v9q0 42 -11 59.5t-38 17.5q-23 0 -36.5 -13.5t-13.5 -36.5v-16v-9h-139v121z" />
    <glyph glyph-name="b" unicode="b" horiz-adv-x="499" 
d="M192 118q16 -12 31 -17t35 -5q67 0 67 79v18v112v19q0 34 -17.5 53t-47.5 19q-18 0 -34.5 -6t-33.5 -17v-255v0zM22 667h170v-200q36 20 62.5 28t58.5 8q35 0 64 -10.5t49 -30.5q39 -38 39 -112v-31v-144v-28q-1 -40 -13 -66t-39 -46q-61 -44 -155 -44q-26 0 -50 3
t-48 10t-50.5 18.5t-57.5 28.5v442v11v15q0 22 -6.5 32t-23.5 15v101z" />
    <glyph glyph-name="c" unicode="c" horiz-adv-x="456" 
d="M422 310h-131v5v14q0 73 -59 73t-59 -73v-14v-136v-14q2 -73 59 -73q59 0 59 73v21v15h131v-155q-35 -26 -84.5 -40.5t-107.5 -14.5q-101 0 -154 47q-43 36 -43 101v25v152v11v21q0 73 51 114t143 41q105 0 195 -55v-138z" />
    <glyph glyph-name="d" unicode="d" horiz-adv-x="502" 
d="M306 373q-20 13 -35 18t-32 5q-31 0 -48.5 -19t-17.5 -53v-19v-133v-9q0 -65 61 -65q34 0 72 27v248v0zM446 173v-10v-11q0 -25 6.5 -35.5t24.5 -15.5v-101h-171v32q-61 -41 -124 -41q-69 0 -113 42q-20 20 -28 43t-8 65v213q0 74 40 111q20 18 48 28t60 10q28 0 55 -8
t69 -28l1 -1v27v11v15q0 22 -6 32t-24 15v101h170v-494z" />
    <glyph glyph-name="e" unicode="e" horiz-adv-x="464" 
d="M291 306v9v14q0 73 -59 73q-28 0 -43.5 -19t-15.5 -54v-14v-9h118zM173 219v-40v-12q0 -75 59 -75t59 70v4h140v-119q-94 -56 -198 -56q-59 0 -103 16.5t-69 47.5q-8 10 -13.5 20t-8.5 22.5t-4.5 28.5t-1.5 38v166q0 41 6 65t23 44q24 31 68 47.5t103 16.5
q57 0 101.5 -17t70.5 -47q8 -9 13 -18.5t8 -21.5t4 -28.5t1 -40.5v-111h-258z" />
    <glyph glyph-name="f" unicode="f" horiz-adv-x="264" 
d="M28 101q10 3 16 6.5t9.5 10t4.5 17.5t1 28v15v211h-31v105h31v21q0 25 1.5 42.5t4.5 31t9 24t15 21.5q36 43 107 43q16 0 30.5 -1.5t37.5 -6.5v-100q-5 1 -8 1.5t-7 0.5q-27 0 -38.5 -16t-11.5 -53v-8h57v-105h-57v-216v-10q0 -17 1 -28t4 -17.5t9 -10t16 -6.5v-101h-201
v101z" />
    <glyph glyph-name="g" unicode="g" horiz-adv-x="502" 
d="M306 368q-40 28 -70 28q-14 0 -27.5 -6t-21.5 -14q-8 -9 -11 -19.5t-3 -29.5v-6v-8v-123v-12q0 -19 3 -29t11 -19q19 -22 50 -22q16 0 32.5 5.5t36.5 18.5v236v0zM477 494v-101q-18 -5 -24.5 -15t-6.5 -32v-15v-10v-325v-22q0 -41 -9.5 -65.5t-32.5 -44.5
q-27 -23 -67 -35.5t-88 -12.5q-50 0 -94 12t-100 41v114h137q0 -64 57 -64t57 69v9v41q-38 -20 -66.5 -28t-57.5 -8q-71 0 -113 44q-20 20 -28 43t-8 59v15v186v16q1 35 9 57t27 39q22 20 52 31t64 11q16 0 30 -2t28 -7t29 -13.5t34 -21.5v35h171z" />
    <glyph glyph-name="h" unicode="h" horiz-adv-x="516" 
d="M25 101q20 6 25.5 16.5t5.5 45.5v10v320v11q0 34 -5.5 45t-25.5 17v101h170v-201l2 1l11 6q52 30 110 30q69 0 106.5 -36.5t37.5 -103.5v-17v-173v-25q0 -24 6.5 -33.5t26.5 -13.5v-101h-162q-3 13 -5.5 24t-3.5 24t-1.5 28.5t-0.5 37.5v12v181v13q0 78 -62 78
q-31 0 -65 -24v-201v-10l1 -15q0 -24 5 -32.5t25 -14.5v-101h-201v101z" />
    <glyph glyph-name="i" unicode="i" horiz-adv-x="254" 
d="M28 101q10 3 16 6.5t9.5 10t4.5 17.5t1 28v10v148v10q0 34 -5.5 45t-25.5 17v101h171v-321v-10q0 -17 1 -28t4 -17.5t9 -10t16 -6.5v-101h-201v101zM203 599q0 -33 -23 -56t-55 -23q-33 0 -56 23t-23 56q0 32 23 55.5t56 23.5q32 0 55 -23.5t23 -55.5z" />
    <glyph glyph-name="j" unicode="j" horiz-adv-x="254" 
d="M203 599q0 -33 -23.5 -56t-55.5 -23t-55.5 23t-23.5 56q0 32 23.5 55.5t55.5 23.5t55.5 -23.5t23.5 -55.5zM8 -74q5 -1 11 -1q21 0 33 17q4 7 5 15.5t1 28.5v7v328v10q0 18 -1 28.5t-4 17t-9 10t-16 6.5v101h170v-505v-14q0 -24 -1 -41t-4 -29.5t-8 -22t-13 -19.5
q-19 -23 -44 -32.5t-63 -9.5q-14 0 -26 0.5t-31 2.5v102z" />
    <glyph glyph-name="k" unicode="k" horiz-adv-x="475" 
d="M25 101q10 3 16 6.5t9 10t4 17t1 28.5v341q1 34 -4.5 45t-25.5 17v101h170v-340l53 60q26 29 26 54v53h177v-98q-10 -2 -17.5 -5.5t-15 -9t-15.5 -14.5t-20 -22l-52 -59l65 -120q28 -52 66 -65v-101h-122q-8 8 -14 16.5t-17 25.5q-6 8 -12 18t-13 21l-89 155v-73
q0 -18 1.5 -28.5t4.5 -17t9 -10t16 -6.5v-101h-201v101z" />
    <glyph glyph-name="l" unicode="l" horiz-adv-x="251" 
d="M25 101q10 3 16 6.5t9 10t4 17.5t1 28v10v320v11q0 17 -1 27.5t-4 17t-9 10.5t-16 7v101h170v-494v-10q0 -17 1 -28t4.5 -17.5t9.5 -10t16 -6.5v-101h-201v101z" />
    <glyph glyph-name="m" unicode="m" horiz-adv-x="758" 
d="M28 494h166v-35q32 24 58.5 34t57.5 10q32 0 59.5 -11.5t55.5 -37.5q32 23 68.5 36t70.5 13q35 0 67 -14.5t52 -40.5q13 -16 18 -34.5t5 -45.5v-195v-27q0 -23 6.5 -32t24.5 -13v-101h-160q-3 10 -5.5 18t-3.5 18.5t-1.5 24.5t-0.5 35v19v192q0 20 -1.5 32.5t-4.5 21.5
q-13 32 -54 32q-14 0 -25.5 -3t-28.5 -14v-6v-14v-15v-13v-155v-27q0 -23 6.5 -32t24.5 -13v-101h-160q-6 19 -8.5 36.5t-2.5 49.5v23v198v14q1 72 -59 72q-12 0 -23 -3t-26 -11l-5 -3v-203q0 -22 0.5 -34.5t3.5 -20t9 -11t17 -6.5v-101h-201v101q18 5 24 15t7 32v15v10v148
v10v11q0 25 -6 35.5t-25 15.5v101z" />
    <glyph glyph-name="n" unicode="n" horiz-adv-x="519" 
d="M28 101q20 6 25.5 16.5t5.5 45.5v10v148v10q0 35 -5.5 45.5t-25.5 16.5v101h166v-33l2 1q37 23 64 32t61 9q69 0 106.5 -36.5t37.5 -103.5v-17v-173v-25q0 -24 7 -33.5t26 -13.5v-101h-161q-3 13 -5.5 24t-4 24t-2 28.5t-0.5 37.5v12v172v13q1 26 -1 37.5t-7 20.5
q-7 14 -21.5 21.5t-31.5 7.5q-30 0 -65 -26v-199v-10v-15q0 -24 5.5 -32.5t24.5 -14.5v-101h-201v101z" />
    <glyph glyph-name="o" unicode="o" horiz-adv-x="464" 
d="M291 315v14q0 73 -59 73q-28 0 -43.5 -19t-15.5 -54v-14v-136v-14q2 -73 59 -73q59 0 59 73v14v136zM431 164q0 -42 -6 -65t-24 -44q-25 -31 -68.5 -47.5t-100.5 -16.5t-100 16.5t-69 47.5q-17 21 -23.5 44t-6.5 65v166q0 42 6.5 65t23.5 44q26 31 69 47.5t100 16.5
t100.5 -16.5t68.5 -47.5q18 -21 24 -44t6 -65v-166z" />
    <glyph glyph-name="p" unicode="p" horiz-adv-x="502" 
d="M196 120q35 -22 65 -22q33 0 52 22q9 11 12.5 24t3.5 37v17v123v13q-2 62 -62 62q-18 0 -33.5 -6t-37.5 -22v-248v0zM25 -72q20 6 25.5 17t5.5 45v11v320v11q0 34 -5.5 44.5t-25.5 16.5v101h171v-34l1 1l18 12q49 30 102 30q74 0 119 -47q17 -17 25 -40t8 -58v-22v-170
v-26q-1 -41 -10.5 -66.5t-32.5 -46.5q-39 -36 -107 -36q-15 0 -27 1.5t-25 5t-28.5 9.5t-35.5 15l-7 4v-25v-12q0 -17 1 -27t4 -17t9 -10.5t16 -6.5v-101h-201v101z" />
    <glyph glyph-name="q" unicode="q" horiz-adv-x="499" 
d="M307 368q-23 16 -38.5 22t-33.5 6q-29 0 -45.5 -16.5t-16.5 -45.5v-13v-123v-17q0 -83 68 -83q28 0 66 22v248v0zM276 -173v101q17 5 23.5 15t7.5 32v15v11v25l-8 -4q-39 -18 -63 -24.5t-53 -6.5q-73 0 -113 42q-20 20 -28.5 44.5t-8.5 62.5v26v170v21q0 40 9 63t31 43
q45 40 112 40q32 0 58 -9t62 -33l2 -1v34h139v-493v-11v-11q0 -25 6.5 -35.5t24.5 -15.5v-101h-201z" />
    <glyph glyph-name="r" unicode="r" horiz-adv-x="293" 
d="M28 101q10 3 16 6.5t9.5 10t4.5 17.5t1 28v10v148v10q0 35 -5.5 45.5t-25.5 16.5v101h164v-41l2 2q16 23 33 33.5t40 10.5q7 0 12.5 -1.5t13.5 -3.5v-144q-8 1 -12.5 1.5t-10.5 0.5q-71 0 -71 -82v-15v-82v-10q0 -18 1 -28.5t4 -17t9 -10t16 -6.5v-101h-201v101z" />
    <glyph glyph-name="s" unicode="s" horiz-adv-x="440" 
d="M403 334h-129v5q0 61 -51 61q-21 0 -34 -13t-13 -33q0 -26 23 -40q6 -3 11 -6t13.5 -6t22 -7t34.5 -11q46 -14 68 -24t36 -24q29 -32 29 -92q0 -155 -184 -155q-23 0 -45 2t-46 6.5t-51 12t-60 18.5v134h137v-7q0 -33 12 -47t39 -14q21 0 34.5 12.5t13.5 32.5
q0 11 -3.5 19.5t-13 15.5t-25.5 13.5t-41 14.5q-24 7 -42 13.5t-31 12t-22.5 11t-17.5 11.5q-40 33 -40 97q0 74 50.5 115t141.5 41q40 0 79 -9t90 -29l15 -6v-125z" />
    <glyph glyph-name="t" unicode="t" horiz-adv-x="257" 
d="M243 389h-57v-208v-10q1 -69 48 -69h5t6 1v-99q-18 -5 -34 -8t-33 -3q-85 0 -118 67q-8 16 -11 36t-3 61v12v220h-26v105h26v92l140 41v-133h57v-105z" />
    <glyph glyph-name="u" unicode="u" horiz-adv-x="519" 
d="M460 494v-321v-10q0 -18 1.5 -28.5t4.5 -17t9 -10t16 -6.5v-101h-166v33q-62 -42 -127 -42q-69 0 -106.5 36.5t-37.5 103.5v17v173v26q0 23 -7 33t-26 13v101h162q3 -13 5.5 -24t3.5 -23.5t1.5 -28.5t0.5 -38v-12v-172v-13q0 -26 1.5 -37.5t6.5 -20.5q16 -29 53 -29
q31 0 65 26v199v10l1 16q-1 23 -6.5 31.5t-24.5 14.5v101h170z" />
    <glyph glyph-name="v" unicode="v" horiz-adv-x="457" 
d="M451 393q-14 -4 -20 -12.5t-13 -32.5l-100 -348h-175l-108 361q-5 17 -10 23t-18 9v101h197v-101q-21 -4 -21 -25q0 -8 3 -20l1 -4l49 -182l47 182q3 13 4 18t1 10q0 15 -18 21v101h181v-101z" />
    <glyph glyph-name="w" unicode="w" horiz-adv-x="665" 
d="M658 393q-16 -5 -22.5 -12.5t-12.5 -29.5l-96 -351h-133l-46 163q-2 10 -7 30t-10 43q-5 -22 -10 -43t-7 -30l-45 -163h-131l-100 351q-7 23 -12 30t-19 12v101h196v-101q-11 -4 -15.5 -9t-4.5 -16q0 -7 2 -17l2 -8l30 -141l79 292h87l71 -292l35 149q3 12 3 19
q0 16 -18 23v101h184v-101z" />
    <glyph glyph-name="x" unicode="x" horiz-adv-x="442" 
d="M417 393q-19 -5 -36 -27l-86 -104l97 -135q10 -14 17.5 -19.5t18.5 -6.5v-101h-173v59q0 13 -1 22t-5 18t-12 19.5t-21 27.5q-2 2 -4.5 5.5t-6.5 8.5l-10 -13q-12 -16 -19.5 -27t-11.5 -20t-5.5 -18t-1.5 -21v-61h-144v101q7 2 13 7.5t17 18.5l101 119l-94 120
q-11 14 -16.5 19t-13.5 8v101h172v-70q0 -12 4 -21.5t15 -23.5l24 -32l26 34q6 8 10 13.5t5.5 11t2 11.5t0.5 15v62h138v-101z" />
    <glyph glyph-name="y" unicode="y" horiz-adv-x="455" 
d="M449 393q-14 -5 -20 -14.5t-14 -35.5l-93 -335q-14 -50 -30.5 -84.5t-37.5 -56t-48 -31t-62 -9.5q-12 0 -22 1t-27 4v107q3 -1 7 -1q23 0 36.5 11t22.5 34l-122 369q-8 21 -13.5 28.5t-18.5 12.5v101h195v-101q-20 -4 -20 -21q0 -4 1 -11.5t3 -13.5l50 -189l48 194
q2 5 2 8v8q0 18 -18 25v101h181v-101z" />
    <glyph glyph-name="z" unicode="z" horiz-adv-x="460" 
d="M27 0v96l229 302h-41h-8q-35 0 -48.5 -13t-13.5 -44v-7h-118v160h406v-87l-236 -311h31h13q40 1 57 16t17 50v8h118v-170h-406z" />
    <glyph glyph-name="braceleft" unicode="{" 
d="M360 7v653h-320v-653h320zM33 667h334v-667h-334v667z" />
    <glyph glyph-name="bar" unicode="|" 
d="M360 7v653h-320v-653h320zM33 667h334v-667h-334v667z" />
    <glyph glyph-name="braceright" unicode="}" 
d="M360 7v653h-320v-653h320zM33 667h334v-667h-334v667z" />
    <glyph glyph-name="asciitilde" unicode="~" 
d="M360 7v653h-320v-653h320zM33 667h334v-667h-334v667z" />
    <glyph glyph-name="Adieresis" unicode="&#xc4;" horiz-adv-x="532" 
d="M249 503l-43 -219h91zM480 168q3 -16 6.5 -26t7.5 -16.5t9.5 -10t14.5 -6.5v-109h-227v109q35 2 35 31q0 2 -0.5 4.5t-2.5 11.5l-1 4l-5 28h-129l-6 -28q-1 -5 -1.5 -11t-0.5 -10q0 -28 37 -30v-109h-204v109q17 5 24.5 18t14.5 46l97 494h229zM235 791q0 -23 -16.5 -40
t-40.5 -17t-40.5 17t-16.5 41q0 23 16.5 39.5t40.5 16.5t40.5 -16.5t16.5 -40.5zM405 789q0 -24 -16.5 -41t-40.5 -17q-23 0 -40 17t-17 41t16.5 40.5t40.5 16.5t40.5 -16.5t16.5 -40.5z" />
    <glyph glyph-name="Aring" unicode="&#xc5;" horiz-adv-x="532" 
d="M249 503l-43 -219h91zM480 168q3 -16 6.5 -26t7.5 -16.5t9.5 -10t14.5 -6.5v-109h-227v109q35 2 35 31q0 2 -0.5 4.5t-2.5 11.5l-1 4l-5 28h-129l-6 -28q-1 -5 -1.5 -11t-0.5 -10q0 -28 37 -30v-109h-204v109q17 5 24.5 18t14.5 46l97 494h229zM297 789q0 14 -10 24
t-24 10t-24 -10t-10 -24t10 -24.5t24 -10.5t24 10.5t10 24.5zM346 788q0 -34 -24 -58t-59 -24q-34 0 -58 24t-24 59t23.5 59t58.5 24q17 0 32 -6.5t26.5 -18t18 -26.5t6.5 -33z" />
    <glyph glyph-name="Ccedilla" unicode="&#xc7;" horiz-adv-x="528" 
d="M488 267v-228q-42 -21 -93.5 -35t-98.5 -16v-26h7q36 0 49 -26q4 -8 5 -18t1 -29q0 -17 -1.5 -26.5t-6.5 -17.5q-9 -14 -26.5 -22t-40.5 -8q-38 0 -69 17v58h55v-6q1 -18 3.5 -24t10.5 -6q13 0 13 20v9v9v6q0 13 -4 17t-16 4h-7h-29v69h-3q-57 5 -100 25t-65 52
q-9 14 -15.5 33t-8.5 42q-1 9 -1 26v41v28v198v30q0 37 0.5 53.5t3.5 31.5q11 64 67 98t153 34q55 0 105 -10.5t112 -35.5v-188h-144v8q0 28 -2 39.5t-10 22.5q-10 14 -26 22.5t-34 8.5q-19 0 -35 -8.5t-25 -22.5q-8 -11 -10 -23t-2 -35v-30v-10v-193v-15q0 -23 2 -34.5
t10 -22.5q9 -14 25 -22t35 -8t35 8t25 22q8 11 10 22.5t2 38.5v11v42h144z" />
    <glyph glyph-name="Eacute" unicode="&#xc9;" horiz-adv-x="545" 
d="M33 109q20 5 27.5 16.5t7.5 36.5v13v317v13q0 26 -7.5 36.5t-27.5 15.5v110h472v-206h-144v5q0 38 -13.5 54t-48.5 16h-12h-66v-134h186v-113h-186v-158h64h14q35 0 48 14t14 52v26h144v-223h-472v109zM294 742h-64l38 119h104z" />
    <glyph glyph-name="Ntilde" unicode="&#xd1;" horiz-adv-x="587" 
d="M33 109q20 5 27.5 16.5t7.5 36.5v13v317v13q0 26 -7.5 37t-27.5 16v109h175l171 -344v169v13q-1 26 -8 37t-27 16v109h212v-109q-20 -5 -27.5 -16.5t-7.5 -36.5v-13v-492h-140l-173 350v-175v-13q1 -26 8 -37t27 -16v-109h-210v109zM431 832q-9 -89 -74 -89q-5 0 -10 0.5
t-13 2.5t-19.5 4.5t-28.5 7.5q-14 5 -22 6t-15 1q-22 0 -29 -20h-63q4 43 23.5 66.5t54.5 23.5q10 0 22 -2.5t32 -9.5t31 -9.5t19 -2.5q23 0 30 21h62v0z" />
    <glyph glyph-name="Odieresis" unicode="&#xd6;" horiz-adv-x="544" 
d="M200 212q0 -26 2 -38t10 -23q10 -14 25.5 -22.5t34.5 -8.5t35 8.5t25 22.5q8 11 10 22.5t2 35.5v246q0 26 -2 38t-10 23q-10 14 -26 22.5t-34 8.5q-19 0 -35 -8.5t-25 -22.5q-8 -11 -10 -22.5t-2 -36.5v-245zM497 162q-1 -47 -12.5 -76t-39.5 -51q-32 -25 -73.5 -36.5
t-99.5 -11.5q-114 0 -174 48q-28 23 -39.5 52.5t-11.5 74.5v343q0 47 12 76t39 50q32 26 74 37.5t100 11.5q114 0 173 -49q28 -23 40 -52t12 -74v-343zM245 789q0 -23 -16.5 -40t-40.5 -17t-40.5 17t-16.5 41q0 23 16.5 39.5t40.5 16.5t40.5 -16.5t16.5 -40.5zM415 787
q0 -24 -16.5 -41t-40.5 -17q-23 0 -40 17t-17 41t16.5 40.5t40.5 16.5t40.5 -16.5t16.5 -40.5z" />
    <glyph glyph-name="Udieresis" unicode="&#xdc;" horiz-adv-x="554" 
d="M250 667v-109q-20 -5 -27.5 -16t-7.5 -37v-7v-6v-270v-10q0 -26 3.5 -39.5t12.5 -24.5q22 -24 56 -24q72 0 72 87v8v273v6v5q0 26 -7.5 38t-27.5 17v109h203v-109q-20 -5 -27.5 -16.5t-7.5 -36.5v-13v-232v-47q0 -28 -1 -48t-4 -35.5t-7.5 -27.5t-11.5 -24
q-26 -42 -74.5 -64.5t-114.5 -22.5q-103 0 -160 49.5t-57 138.5v39v274v13q-1 26 -8 37t-27 16v109h223zM249 789q0 -23 -16.5 -40t-40.5 -17t-40.5 17t-16.5 41q0 23 16.5 39.5t40.5 16.5t40.5 -16.5t16.5 -40.5zM419 787q0 -24 -16.5 -41t-40.5 -17q-23 0 -40 17t-17 41
t16.5 40.5t40.5 16.5t40.5 -16.5t16.5 -40.5z" />
    <glyph glyph-name="aacute" unicode="&#xe1;" horiz-adv-x="483" 
d="M292 227q-5 -2 -8.5 -4t-5.5 -3l-19 -9q-1 -1 -6.5 -3t-13.5 -7l-20 -10q-41 -22 -41 -53q0 -17 10.5 -27t27.5 -10q16 0 36.5 12.5t39.5 32.5v81v0zM54 455q48 24 101 38t98 14q79 0 129 -37q26 -20 38 -43.5t12 -58.5v-18v-177v-8v-18q0 -23 6 -32t24 -14v-101h-164v48
q-40 -32 -70 -44.5t-68 -12.5q-62 0 -97.5 36t-35.5 99q0 75 59 116q21 15 69 34q6 2 15.5 5.5t24.5 8.5q15 6 23 9t16 5l46 16q1 0 12 3v9q0 42 -11 59.5t-38 17.5q-23 0 -36.5 -13.5t-13.5 -36.5v-16v-9h-139v121zM287 552h-64l38 119h104z" />
    <glyph glyph-name="agrave" unicode="&#xe0;" horiz-adv-x="483" 
d="M292 227q-5 -2 -8.5 -4t-5.5 -3l-19 -9q-1 -1 -6.5 -3t-13.5 -7l-20 -10q-41 -22 -41 -53q0 -17 10.5 -27t27.5 -10q16 0 36.5 12.5t39.5 32.5v81v0zM54 455q48 24 101 38t98 14q79 0 129 -37q26 -20 38 -43.5t12 -58.5v-18v-177v-8v-18q0 -23 6 -32t24 -14v-101h-164v48
q-40 -32 -70 -44.5t-68 -12.5q-62 0 -97.5 36t-35.5 99q0 75 59 116q21 15 69 34q6 2 15.5 5.5t24.5 8.5q15 6 23 9t16 5l46 16q1 0 12 3v9q0 42 -11 59.5t-38 17.5q-23 0 -36.5 -13.5t-13.5 -36.5v-16v-9h-139v121zM250 671l38 -119h-63l-79 119h104z" />
    <glyph glyph-name="acircumflex" unicode="&#xe2;" horiz-adv-x="483" 
d="M292 227q-5 -2 -8.5 -4t-5.5 -3l-19 -9q-1 -1 -6.5 -3t-13.5 -7l-20 -10q-41 -22 -41 -53q0 -17 10.5 -27t27.5 -10q16 0 36.5 12.5t39.5 32.5v81v0zM54 455q48 24 101 38t98 14q79 0 129 -37q26 -20 38 -43.5t12 -58.5v-18v-177v-8v-18q0 -23 6 -32t24 -14v-101h-164v48
q-40 -32 -70 -44.5t-68 -12.5q-62 0 -97.5 36t-35.5 99q0 75 59 116q21 15 69 34q6 2 15.5 5.5t24.5 8.5q15 6 23 9t16 5l46 16q1 0 12 3v9q0 42 -11 59.5t-38 17.5q-23 0 -36.5 -13.5t-13.5 -36.5v-16v-9h-139v121zM376 552h-80l-49 76l-47 -76h-78l78 118h100z" />
    <glyph glyph-name="adieresis" unicode="&#xe4;" horiz-adv-x="483" 
d="M292 227q-5 -2 -8.5 -4t-5.5 -3l-19 -9q-1 -1 -6.5 -3t-13.5 -7l-20 -10q-41 -22 -41 -53q0 -17 10.5 -27t27.5 -10q16 0 36.5 12.5t39.5 32.5v81v0zM54 455q48 24 101 38t98 14q79 0 129 -37q26 -20 38 -43.5t12 -58.5v-18v-177v-8v-18q0 -23 6 -32t24 -14v-101h-164v48
q-40 -32 -70 -44.5t-68 -12.5q-62 0 -97.5 36t-35.5 99q0 75 59 116q21 15 69 34q6 2 15.5 5.5t24.5 8.5q15 6 23 9t16 5l46 16q1 0 12 3v9q0 42 -11 59.5t-38 17.5q-23 0 -36.5 -13.5t-13.5 -36.5v-16v-9h-139v121zM210 612q0 -23 -16.5 -40t-40.5 -17t-40.5 17t-16.5 41
q0 23 16.5 39.5t40.5 16.5t40.5 -16.5t16.5 -40.5zM380 610q0 -24 -16.5 -41t-40.5 -17q-23 0 -40 17t-17 41t16.5 40.5t40.5 16.5t40.5 -16.5t16.5 -40.5z" />
    <glyph glyph-name="atilde" unicode="&#xe3;" horiz-adv-x="483" 
d="M292 227q-5 -2 -8.5 -4t-5.5 -3l-19 -9q-1 -1 -6.5 -3t-13.5 -7l-20 -10q-41 -22 -41 -53q0 -17 10.5 -27t27.5 -10q16 0 36.5 12.5t39.5 32.5v81v0zM54 455q48 24 101 38t98 14q79 0 129 -37q26 -20 38 -43.5t12 -58.5v-18v-177v-8v-18q0 -23 6 -32t24 -14v-101h-164v48
q-40 -32 -70 -44.5t-68 -12.5q-62 0 -97.5 36t-35.5 99q0 75 59 116q21 15 69 34q6 2 15.5 5.5t24.5 8.5q15 6 23 9t16 5l46 16q1 0 12 3v9q0 42 -11 59.5t-38 17.5q-23 0 -36.5 -13.5t-13.5 -36.5v-16v-9h-139v121zM394 654q-9 -89 -74 -89q-5 0 -10 0.5t-13 2.5t-19.5 4.5
t-28.5 7.5q-14 5 -22 6t-15 1q-22 0 -29 -20h-63q4 43 23.5 66.5t54.5 23.5q10 0 22 -2.5t32 -9.5t31 -9.5t19 -2.5q23 0 30 21h62v0z" />
    <glyph glyph-name="aring" unicode="&#xe5;" horiz-adv-x="483" 
d="M292 227q-5 -2 -8.5 -4t-5.5 -3l-19 -9q-1 -1 -6.5 -3t-13.5 -7l-20 -10q-41 -22 -41 -53q0 -17 10.5 -27t27.5 -10q16 0 36.5 12.5t39.5 32.5v81v0zM54 455q48 24 101 38t98 14q79 0 129 -37q26 -20 38 -43.5t12 -58.5v-18v-177v-8v-18q0 -23 6 -32t24 -14v-101h-164v48
q-40 -32 -70 -44.5t-68 -12.5q-62 0 -97.5 36t-35.5 99q0 75 59 116q21 15 69 34q6 2 15.5 5.5t24.5 8.5q15 6 23 9t16 5l46 16q1 0 12 3v9q0 42 -11 59.5t-38 17.5q-23 0 -36.5 -13.5t-13.5 -36.5v-16v-9h-139v121zM280 612q0 14 -10 24t-24 10t-24 -10t-10 -24t10 -24.5
t24 -10.5t24 10.5t10 24.5zM329 611q0 -34 -24 -58t-59 -24q-34 0 -58 24t-24 59t23.5 59t58.5 24q17 0 32 -6.5t26.5 -18t18 -26.5t6.5 -33z" />
    <glyph glyph-name="ccedilla" unicode="&#xe7;" horiz-adv-x="456" 
d="M422 201v-155q-32 -24 -77 -38t-97 -16h-3v-26h5q29 0 40 -14.5t11 -51.5q0 -15 -1.5 -23.5t-5.5 -15.5q-8 -13 -24.5 -20.5t-36.5 -7.5q-33 0 -62 16v52h49q1 -20 3 -26.5t10 -6.5q12 0 12 19v8v8v5q0 12 -3.5 15.5t-14.5 3.5h-7h-25v66q-80 8 -121 45t-41 101v25v152
v11v21q0 73 51 114t143 41q105 0 195 -55v-138h-131v5v14q0 73 -59 73t-59 -73v-14v-136v-14q2 -73 59 -73q59 0 59 73v21v15h131z" />
    <glyph glyph-name="eacute" unicode="&#xe9;" horiz-adv-x="464" 
d="M291 306v9v14q0 73 -59 73q-28 0 -43.5 -19t-15.5 -54v-14v-9h118zM173 219v-40v-12q0 -75 59 -75t59 70v4h140v-119q-94 -56 -198 -56q-59 0 -103 16.5t-69 47.5q-8 10 -13.5 20t-8.5 22.5t-4.5 28.5t-1.5 38v166q0 41 6 65t23 44q24 31 68 47.5t103 16.5
q57 0 101.5 -17t70.5 -47q8 -9 13 -18.5t8 -21.5t4 -28.5t1 -40.5v-111h-258zM263 552h-64l38 119h104z" />
    <glyph glyph-name="egrave" unicode="&#xe8;" horiz-adv-x="464" 
d="M291 306v9v14q0 73 -59 73q-28 0 -43.5 -19t-15.5 -54v-14v-9h118zM173 219v-40v-12q0 -75 59 -75t59 70v4h140v-119q-94 -56 -198 -56q-59 0 -103 16.5t-69 47.5q-8 10 -13.5 20t-8.5 22.5t-4.5 28.5t-1.5 38v166q0 41 6 65t23 44q24 31 68 47.5t103 16.5
q57 0 101.5 -17t70.5 -47q8 -9 13 -18.5t8 -21.5t4 -28.5t1 -40.5v-111h-258zM231 671l38 -119h-63l-79 119h104z" />
    <glyph glyph-name="ecircumflex" unicode="&#xea;" horiz-adv-x="464" 
d="M291 306v9v14q0 73 -59 73q-28 0 -43.5 -19t-15.5 -54v-14v-9h118zM173 219v-40v-12q0 -75 59 -75t59 70v4h140v-119q-94 -56 -198 -56q-59 0 -103 16.5t-69 47.5q-8 10 -13.5 20t-8.5 22.5t-4.5 28.5t-1.5 38v166q0 41 6 65t23 44q24 31 68 47.5t103 16.5
q57 0 101.5 -17t70.5 -47q8 -9 13 -18.5t8 -21.5t4 -28.5t1 -40.5v-111h-258zM363 552h-80l-49 76l-47 -76h-78l78 118h100z" />
    <glyph glyph-name="edieresis" unicode="&#xeb;" horiz-adv-x="464" 
d="M291 306v9v14q0 73 -59 73q-28 0 -43.5 -19t-15.5 -54v-14v-9h118zM173 219v-40v-12q0 -75 59 -75t59 70v4h140v-119q-94 -56 -198 -56q-59 0 -103 16.5t-69 47.5q-8 10 -13.5 20t-8.5 22.5t-4.5 28.5t-1.5 38v166q0 41 6 65t23 44q24 31 68 47.5t103 16.5
q57 0 101.5 -17t70.5 -47q8 -9 13 -18.5t8 -21.5t4 -28.5t1 -40.5v-111h-258zM205 608q0 -23 -16.5 -40t-40.5 -17t-40.5 17t-16.5 41q0 23 16.5 39.5t40.5 16.5t40.5 -16.5t16.5 -40.5zM375 606q0 -24 -16.5 -41t-40.5 -17q-23 0 -40 17t-17 41t16.5 40.5t40.5 16.5
t40.5 -16.5t16.5 -40.5z" />
    <glyph glyph-name="iacute" unicode="&#xed;" horiz-adv-x="254" 
d="M151 552h-64l38 119h104zM27 101q20 6 25.5 14.5t5.5 32.5v15v10v148v10v16q0 23 -5.5 31.5t-25.5 14.5v101h171v-321v-10v-15q0 -24 5.5 -32.5t24.5 -14.5v-101h-201v101z" />
    <glyph glyph-name="igrave" unicode="&#xec;" horiz-adv-x="254" 
d="M6 101q20 6 25.5 14.5t5.5 32.5v15v10v148v10v16q0 23 -5.5 31.5t-25.5 14.5v101h171v-321v-10v-15q0 -24 5.5 -32.5t24.5 -14.5v-101h-201v101zM110 671l38 -119h-63l-79 119h104z" />
    <glyph glyph-name="icircumflex" unicode="&#xee;" horiz-adv-x="254" 
d="M1 101q20 6 25.5 14.5t5.5 32.5v15v10v148v10v16q0 23 -5.5 31.5t-25.5 14.5v101h171v-321v-10v-15q0 -24 5.5 -32.5t24.5 -14.5v-101h-201v101zM255 555h-80l-49 76l-47 -76h-78l78 118h100z" />
    <glyph glyph-name="idieresis" unicode="&#xef;" horiz-adv-x="254" 
d="M97 609q0 -23 -16.5 -40t-40.5 -17t-40.5 17t-16.5 41q0 23 16.5 39.5t40.5 16.5t40.5 -16.5t16.5 -40.5zM267 607q0 -24 -16.5 -41t-40.5 -17q-23 0 -40 17t-17 41t16.5 40.5t40.5 16.5t40.5 -16.5t16.5 -40.5zM32 101q20 6 25.5 14.5t5.5 32.5v15v10v148v10v16
q0 23 -5.5 31.5t-25.5 14.5v101h171v-321v-10v-15q0 -24 5.5 -32.5t24.5 -14.5v-101h-201v101z" />
    <glyph glyph-name="ntilde" unicode="&#xf1;" horiz-adv-x="519" 
d="M28 101q20 6 25.5 16.5t5.5 45.5v10v148v10q0 35 -5.5 45.5t-25.5 16.5v101h166v-33l2 1q37 23 64 32t61 9q69 0 106.5 -36.5t37.5 -103.5v-17v-173v-25q0 -24 7 -33.5t26 -13.5v-101h-161q-3 13 -5.5 24t-4 24t-2 28.5t-0.5 37.5v12v172v13q1 26 -1 37.5t-7 20.5
q-7 14 -21.5 21.5t-31.5 7.5q-30 0 -65 -26v-199v-10v-15q0 -24 5.5 -32.5t24.5 -14.5v-101h-201v101zM388 654q-9 -89 -74 -89q-5 0 -10 0.5t-13 2.5t-19.5 4.5t-28.5 7.5q-14 5 -22 6t-15 1q-22 0 -29 -20h-63q4 43 23.5 66.5t54.5 23.5q10 0 22 -2.5t32 -9.5t31 -9.5
t19 -2.5q23 0 30 21h62v0z" />
    <glyph glyph-name="oacute" unicode="&#xf3;" horiz-adv-x="464" 
d="M291 315v14q0 73 -59 73q-28 0 -43.5 -19t-15.5 -54v-14v-136v-14q2 -73 59 -73q59 0 59 73v14v136zM431 164q0 -42 -6 -65t-24 -44q-25 -31 -68.5 -47.5t-100.5 -16.5t-100 16.5t-69 47.5q-17 21 -23.5 44t-6.5 65v166q0 42 6.5 65t23.5 44q26 31 69 47.5t100 16.5
t100.5 -16.5t68.5 -47.5q18 -21 24 -44t6 -65v-166zM264 552h-64l38 119h104z" />
    <glyph glyph-name="ograve" unicode="&#xf2;" horiz-adv-x="464" 
d="M291 315v14q0 73 -59 73q-28 0 -43.5 -19t-15.5 -54v-14v-136v-14q2 -73 59 -73q59 0 59 73v14v136zM431 164q0 -42 -6 -65t-24 -44q-25 -31 -68.5 -47.5t-100.5 -16.5t-100 16.5t-69 47.5q-17 21 -23.5 44t-6.5 65v166q0 42 6.5 65t23.5 44q26 31 69 47.5t100 16.5
t100.5 -16.5t68.5 -47.5q18 -21 24 -44t6 -65v-166zM229 671l38 -119h-63l-79 119h104z" />
    <glyph glyph-name="ocircumflex" unicode="&#xf4;" horiz-adv-x="464" 
d="M291 315v14q0 73 -59 73q-28 0 -43.5 -19t-15.5 -54v-14v-136v-14q2 -73 59 -73q59 0 59 73v14v136zM431 164q0 -42 -6 -65t-24 -44q-25 -31 -68.5 -47.5t-100.5 -16.5t-100 16.5t-69 47.5q-17 21 -23.5 44t-6.5 65v166q0 42 6.5 65t23.5 44q26 31 69 47.5t100 16.5
t100.5 -16.5t68.5 -47.5q18 -21 24 -44t6 -65v-166zM369 552h-80l-49 76l-47 -76h-78l78 118h100z" />
    <glyph glyph-name="odieresis" unicode="&#xf6;" horiz-adv-x="464" 
d="M291 315v14q0 73 -59 73q-28 0 -43.5 -19t-15.5 -54v-14v-136v-14q2 -73 59 -73q59 0 59 73v14v136zM431 164q0 -42 -6 -65t-24 -44q-25 -31 -68.5 -47.5t-100.5 -16.5t-100 16.5t-69 47.5q-17 21 -23.5 44t-6.5 65v166q0 42 6.5 65t23.5 44q26 31 69 47.5t100 16.5
t100.5 -16.5t68.5 -47.5q18 -21 24 -44t6 -65v-166zM203 612q0 -23 -16.5 -40t-40.5 -17t-40.5 17t-16.5 41q0 23 16.5 39.5t40.5 16.5t40.5 -16.5t16.5 -40.5zM373 610q0 -24 -16.5 -41t-40.5 -17q-23 0 -40 17t-17 41t16.5 40.5t40.5 16.5t40.5 -16.5t16.5 -40.5z" />
    <glyph glyph-name="otilde" unicode="&#xf5;" horiz-adv-x="464" 
d="M291 315v14q0 73 -59 73q-28 0 -43.5 -19t-15.5 -54v-14v-136v-14q2 -73 59 -73q59 0 59 73v14v136zM431 164q0 -42 -6 -65t-24 -44q-25 -31 -68.5 -47.5t-100.5 -16.5t-100 16.5t-69 47.5q-17 21 -23.5 44t-6.5 65v166q0 42 6.5 65t23.5 44q26 31 69 47.5t100 16.5
t100.5 -16.5t68.5 -47.5q18 -21 24 -44t6 -65v-166zM379 654q-9 -89 -74 -89q-5 0 -10 0.5t-13 2.5t-19.5 4.5t-28.5 7.5q-14 5 -22 6t-15 1q-22 0 -29 -20h-63q4 43 23.5 66.5t54.5 23.5q10 0 22 -2.5t32 -9.5t31 -9.5t19 -2.5q23 0 30 21h62v0z" />
    <glyph glyph-name="uacute" unicode="&#xfa;" horiz-adv-x="519" 
d="M460 494v-321v-10q0 -18 1.5 -28.5t4.5 -17t9 -10t16 -6.5v-101h-166v33q-62 -42 -127 -42q-69 0 -106.5 36.5t-37.5 103.5v17v173v26q0 23 -7 33t-26 13v101h162q3 -13 5.5 -24t3.5 -23.5t1.5 -28.5t0.5 -38v-12v-172v-13q0 -26 1.5 -37.5t6.5 -20.5q16 -29 53 -29
q31 0 65 26v199v10l1 16q-1 23 -6.5 31.5t-24.5 14.5v101h170zM278 550h-64l38 119h104z" />
    <glyph glyph-name="ugrave" unicode="&#xf9;" horiz-adv-x="519" 
d="M460 494v-321v-10q0 -18 1.5 -28.5t4.5 -17t9 -10t16 -6.5v-101h-166v33q-62 -42 -127 -42q-69 0 -106.5 36.5t-37.5 103.5v17v173v26q0 23 -7 33t-26 13v101h162q3 -13 5.5 -24t3.5 -23.5t1.5 -28.5t0.5 -38v-12v-172v-13q0 -26 1.5 -37.5t6.5 -20.5q16 -29 53 -29
q31 0 65 26v199v10l1 16q-1 23 -6.5 31.5t-24.5 14.5v101h170zM243 671l38 -119h-63l-79 119h104z" />
    <glyph glyph-name="ucircumflex" unicode="&#xfb;" horiz-adv-x="519" 
d="M460 494v-321v-10q0 -18 1.5 -28.5t4.5 -17t9 -10t16 -6.5v-101h-166v33q-62 -42 -127 -42q-69 0 -106.5 36.5t-37.5 103.5v17v173v26q0 23 -7 33t-26 13v101h162q3 -13 5.5 -24t3.5 -23.5t1.5 -28.5t0.5 -38v-12v-172v-13q0 -26 1.5 -37.5t6.5 -20.5q16 -29 53 -29
q31 0 65 26v199v10l1 16q-1 23 -6.5 31.5t-24.5 14.5v101h170zM375 552h-80l-49 76l-47 -76h-78l78 118h100z" />
    <glyph glyph-name="udieresis" unicode="&#xfc;" horiz-adv-x="519" 
d="M460 494v-321v-10q0 -18 1.5 -28.5t4.5 -17t9 -10t16 -6.5v-101h-166v33q-62 -42 -127 -42q-69 0 -106.5 36.5t-37.5 103.5v17v173v26q0 23 -7 33t-26 13v101h162q3 -13 5.5 -24t3.5 -23.5t1.5 -28.5t0.5 -38v-12v-172v-13q0 -26 1.5 -37.5t6.5 -20.5q16 -29 53 -29
q31 0 65 26v199v10l1 16q-1 23 -6.5 31.5t-24.5 14.5v101h170zM220 612q0 -23 -16.5 -40t-40.5 -17t-40.5 17t-16.5 41q0 23 16.5 39.5t40.5 16.5t40.5 -16.5t16.5 -40.5zM390 610q0 -24 -16.5 -41t-40.5 -17q-23 0 -40 17t-17 41t16.5 40.5t40.5 16.5t40.5 -16.5
t16.5 -40.5z" />
    <glyph glyph-name="dagger" unicode="&#x2020;" 
d="M360 7v653h-320v-653h320zM33 667h334v-667h-334v667z" />
    <glyph glyph-name="degree" unicode="&#xb0;" 
d="M360 7v653h-320v-653h320zM33 667h334v-667h-334v667z" />
    <glyph glyph-name="cent" unicode="&#xa2;" horiz-adv-x="482" 
d="M180 45v45q-133 24 -133 142v25v152v11v21q0 122 133 149v45h131v-46q67 -12 125 -48v-138h-131v5v14q-2 73 -60 73t-58 -73v-14v-136v-14q0 -73 59 -73q28 0 43.5 19t15.5 54v21v15h131v-155q-26 -19 -55.5 -30.5t-69.5 -18.5v-45h-131z" />
    <glyph glyph-name="sterling" unicode="&#xa3;" horiz-adv-x="554" 
d="M514 455h-136v8q0 17 -1.5 27t-5.5 18q-8 18 -26 28t-41 10q-74 0 -74 -92v-56h189v-114h-189v-157h70h12q59 0 59 55v10h143v-192h-467v109q20 5 27 16.5t7 40.5v9v109h-34v114h34v43v23q0 38 3 58.5t11 39.5q25 58 80 89t134 31q55 0 103.5 -15t101.5 -48v-164z" />
    <glyph glyph-name="section" unicode="&#xa7;" 
d="M360 7v653h-320v-653h320zM33 667h334v-667h-334v667z" />
    <glyph glyph-name="bullet" unicode="&#x2022;" horiz-adv-x="310" 
d="M155 446q22 0 42 -8.5t34.5 -23.5t23 -34.5t8.5 -41.5q0 -23 -8.5 -42.5t-23 -34t-34.5 -23t-42 -8.5q-23 0 -42.5 8.5t-34 23t-23 34t-8.5 42.5q0 22 8.5 41.5t23 34.5t34 23.5t42.5 8.5z" />
    <glyph glyph-name="paragraph" unicode="&#xb6;" 
d="M360 7v653h-320v-653h320zM33 667h334v-667h-334v667z" />
    <glyph glyph-name="germandbls" unicode="&#xdf;" horiz-adv-x="482" 
d="M27 101q10 3 16 6.5t9 10t4 17t1 28.5v10v319v13q0 46 9.5 72.5t35.5 49.5q52 48 156 48q97 0 142.5 -40.5t45.5 -126.5q0 -60 -21 -91t-73 -46q28 -7 46.5 -17.5t29.5 -26t16 -38.5t5 -56v-69q0 -24 -1.5 -41t-4.5 -30t-8 -23.5t-13 -21.5q-20 -28 -45 -38t-74 -10h-16
h-44v96h7q32 0 43.5 14t11.5 53v16v51v14q-1 40 -14 56t-48 18v87q18 1 30 5.5t19 14t10 26t3 41.5q0 45 -12 62.5t-41 17.5q-38 0 -50 -32q-3 -8 -4 -18.5t-1 -36.5v-485h-170v101z" />
    <glyph glyph-name="registered" unicode="&#xae;" 
d="M360 7v653h-320v-653h320zM33 667h334v-667h-334v667z" />
    <glyph glyph-name="copyright" unicode="&#xa9;" 
d="M360 7v653h-320v-653h320zM33 667h334v-667h-334v667z" />
    <glyph glyph-name="trademark" unicode="&#x2122;" 
d="M360 7v653h-320v-653h320zM33 667h334v-667h-334v667z" />
    <glyph glyph-name="acute" unicode="&#xb4;" horiz-adv-x="276" 
d="M131 552h-64l38 119h104z" />
    <glyph glyph-name="dieresis" unicode="&#xa8;" horiz-adv-x="418" 
d="M181 612q0 -23 -16.5 -40t-40.5 -17t-40.5 17t-16.5 41q0 23 16.5 39.5t40.5 16.5t40.5 -16.5t16.5 -40.5zM351 610q0 -24 -16.5 -41t-40.5 -17q-23 0 -40 17t-17 41t16.5 40.5t40.5 16.5t40.5 -16.5t16.5 -40.5z" />
    <glyph glyph-name="notequal" unicode="&#x2260;" horiz-adv-x="540" 
d="M231 123l-76 -143l-43 24l64 119h-156v50h183l73 139h-256v50h283l78 146l42 -23l-65 -123h162v-50h-189l-74 -139h263v-50h-289z" />
    <glyph glyph-name="AE" unicode="&#xc6;" horiz-adv-x="823" 
d="M250 284h104v256zM783 461h-145v5q0 38 -13.5 54t-48.5 16h-12h-57v-134h177v-113h-177v-158h69q35 0 48 14t14 52v26h145v-223h-464v109q19 4 27 16t8 37v13v9h-145l-11 -27q-5 -11 -6 -15t-1 -9q0 -19 23 -24v-109h-201v109q17 5 25.5 13.5t18.5 34.5l205 510h521v-206
z" />
    <glyph glyph-name="Oslash" unicode="&#xd8;" horiz-adv-x="544" 
d="M200 222v-10q0 -26 2.5 -38t9.5 -23q10 -14 26 -22.5t34 -8.5q19 0 35 8.5t26 22.5q7 11 9.5 22.5t2.5 35.5v13v222v11q0 26 -2.5 38t-9.5 23q-10 14 -26 22.5t-35 8.5q-18 0 -34 -8.5t-26 -22.5q-7 -11 -9.5 -22t-2.5 -36v-14v-222zM502 669l-31 -64q27 -34 27 -100v-30
v-283v-30q-1 -47 -13 -76t-39 -51q-61 -48 -172 -48q-28 0 -51.5 2.5t-45.5 8.5l-26 -53l-110 54l32 64q-26 35 -26 99v30v283v30q1 47 13 76t39 50q62 49 171 49q53 0 97 -10l25 52z" />
    <glyph glyph-name="infinity" unicode="&#x221e;" horiz-adv-x="700" 
d="M307 312q-12 15 -25 30.5t-28.5 27.5t-33 20t-38.5 8t-40 -8.5t-33.5 -23t-22.5 -34t-8 -41.5q0 -21 8 -40t21.5 -33t32 -22t39.5 -8q28 0 48 9.5t35.5 25.5t28.5 35t28 39zM623 292q0 21 -8 39.5t-21.5 33t-31.5 22.5t-39 8t-41 -11.5t-38 -28.5t-33.5 -35.5
t-27.5 -33.5q12 -17 26 -35t31 -32.5t36.5 -24t42.5 -9.5q21 0 40 8.5t33 23t22.5 34t8.5 41.5zM670 293q0 -33 -11.5 -61.5t-31.5 -49.5t-47.5 -33t-59.5 -12q-31 0 -54.5 9t-42.5 24.5t-35.5 36.5t-32.5 44q-17 -22 -34.5 -42t-38 -35.5t-44.5 -25t-53 -9.5
q-33 0 -61 11.5t-48.5 31.5t-32.5 47.5t-12 59.5q0 33 11.5 61.5t31.5 49.5t48 32.5t60 11.5q28 0 53.5 -10t47.5 -26t40 -36.5t33 -42.5q35 50 72.5 82.5t85.5 32.5q34 0 62.5 -11.5t49.5 -31.5t32.5 -47.5t11.5 -60.5z" />
    <glyph glyph-name="plusminus" unicode="&#xb1;" 
d="M360 7v653h-320v-653h320zM33 667h334v-667h-334v667z" />
    <glyph glyph-name="lessequal" unicode="&#x2264;" horiz-adv-x="540" 
d="M20 -26v42h499v-42h-499zM20 267v51l499 191v-47l-448 -170l448 -168v-48z" />
    <glyph glyph-name="greaterequal" unicode="&#x2265;" horiz-adv-x="540" 
d="M21 -26v42h499v-42h-499zM21 76v48l447 168l-447 170v47l499 -191v-51z" />
    <glyph glyph-name="yen" unicode="&#xa5;" horiz-adv-x="565" 
d="M171 109q20 5 27.5 16.5t7.5 36.5v12v63h-166v67h143l-26 52h-117v67h85l-44 88q-14 28 -21.5 37t-19.5 11v108h197v-78v-18q0 -17 3.5 -30.5t11.5 -30.5l42 -87l43 86q4 9 7 15.5t4 13.5t1.5 16t0.5 22v19v72h175v-110q-11 -2 -20 -12t-20 -32l-45 -90h85v-67h-119
l-26 -52h145v-67h-166v-60v-15q1 -26 8 -37t27 -16v-109h-223v109z" />
    <glyph glyph-name="mu" unicode="&#xb5;" 
d="M360 7v653h-320v-653h320zM33 667h334v-667h-334v667z" />
    <glyph glyph-name="mu" unicode="&#x3bc;" 
d="M360 7v653h-320v-653h320zM33 667h334v-667h-334v667z" />
    <glyph glyph-name="partialdiff" unicode="&#x2202;" horiz-adv-x="530" 
d="M389 257q0 32 -11 60.5t-28 50.5t-38 34.5t-41 12.5q-34 0 -57.5 -11t-38.5 -35.5t-22 -63.5t-7 -95q0 -102 33 -154.5t94 -52.5q30 0 51.5 19.5t36 53.5t21.5 80.5t7 100.5zM475 357q0 -108 -11.5 -180.5t-36 -116t-62.5 -62t-91 -18.5q-46 0 -87 15t-72 44.5t-49 74
t-18 103.5q0 46 13 86.5t39.5 71.5t66.5 49t93 18q42 0 76 -21.5t54 -52.5q0 49 -1 85t-6 62q-7 40 -24.5 68t-41 45t-49.5 24.5t-50 7.5q-35 0 -68.5 -15t-56.5 -34l-19 25q33 26 66.5 41.5t71.5 15.5q56 0 104 -21.5t83.5 -64t55.5 -105.5t20 -145z" />
    <glyph glyph-name="summation" unicode="&#x2211;" horiz-adv-x="720" 
d="M668 68q-1 -7 -2 -19.5t-1.5 -27t-1.5 -28t-2 -23.5q-2 -21 -2.5 -42.5t-0.5 -38.5q0 -11 -9 -11h-595v10l265 419l-256 433v10h532q11 0 11 -8t1 -22.5t2 -31.5t2 -33t2 -26q2 -20 5.5 -38.5t5.5 -32.5h-25q-3 23 -7 38t-10 26q-11 23 -38.5 35t-65.5 12h-246
q-10 0 -11 -5.5t1 -9.5l176 -296l-252 -399h377q29 0 50 3.5t32 8.5q29 14 39 97h24v0z" />
    <glyph glyph-name="pi" unicode="&#x3c0;" horiz-adv-x="540" 
d="M533 491q-1 -23 -7.5 -55t-23.5 -51q-16 -17 -60 -17h-22q-11 0 -11 -14v-264q0 -26 2 -43t6 -27t11 -14t16 -4q11 0 22 11.5t17 38.5h25q-6 -31 -24.5 -51.5t-56.5 -20.5q-54 0 -77 29t-23 88v262q0 9 -9 9h-123q-10 0 -10 -11v-230q0 -28 -4.5 -54.5t-15.5 -47
t-30.5 -33t-49.5 -12.5q-35 0 -54 19.5t-24 52.5h27q6 -25 20 -37.5t32 -12.5q29 0 48 30t19 84v242q0 10 -9 10h-37q-20 0 -33 -1.5t-20.5 -6t-11 -11.5t-5.5 -17h-23q4 64 33 91q22 21 62 21h324q21 0 35 3t22 9t12.5 14.5t6.5 20.5h24z" />
    <glyph glyph-name="integral" unicode="&#x222b;" horiz-adv-x="540" 
d="M463 690q0 -18 -8.5 -32t-30.5 -14q-17 0 -30.5 10t-13.5 27q0 9 2 14t5 8t5 5.5t2 7.5q0 7 -5.5 12.5t-27.5 5.5q-32 0 -46 -32.5t-14 -79.5v-564q0 -33 -4 -65t-17 -57.5t-38 -41.5t-68 -16q-23 0 -41 6.5t-30.5 15.5t-19.5 20t-7 20q0 14 9.5 27.5t31.5 13.5
q19 0 29 -9.5t10 -25.5q0 -18 -4.5 -21.5t-4.5 -12.5q0 -7 10.5 -11.5t28.5 -4.5q31 0 42.5 26t11.5 84v564q0 33 4 65t17 58t38 42t68 16q22 0 40 -6t30.5 -15.5t19 -20t6.5 -19.5z" />
    <glyph glyph-name="ordfeminine" unicode="&#xaa;" 
d="M360 7v653h-320v-653h320zM33 667h334v-667h-334v667z" />
    <glyph glyph-name="ordmasculine" unicode="&#xba;" 
d="M360 7v653h-320v-653h320zM33 667h334v-667h-334v667z" />
    <glyph glyph-name="ae" unicode="&#xe6;" horiz-adv-x="720" 
d="M546 306v9v14q0 73 -59 73q-28 0 -43.5 -19t-15.5 -54v-14v-9h118zM274 221l-40 -20q-32 -16 -45 -29t-13 -31q0 -17 11 -27.5t28 -10.5q31 0 75 42v83zM430 217v-65q0 -26 16 -42.5t42 -16.5q59 0 59 73h139v-120q-29 -15 -52.5 -25.5t-46.5 -17t-47 -9t-52 -2.5
q-60 0 -101 15t-73 49q-42 -34 -79 -49t-76 -15q-61 0 -96.5 36.5t-35.5 99.5q0 79 63 117q26 16 73 35q5 2 9.5 3.5t12 4.5t18 7t27.5 10q18 6 30.5 10.5t29.5 11.5v12v4v4q0 61 -51 61q-48 0 -48 -59l1 -15h-141v120q31 15 57.5 25t50.5 16t47.5 8.5t48.5 2.5
q35 0 60.5 -6t53.5 -22q26 14 53 19.5t64 5.5q59 0 104.5 -16t71.5 -46q24 -28 24 -77v-147h-256z" />
    <glyph glyph-name="oslash" unicode="&#xf8;" horiz-adv-x="464" 
d="M291 315v14q0 73 -59 73q-28 0 -43.5 -19t-15.5 -54v-14v-136v-14q2 -73 59 -73q59 0 59 73v14v136zM51 16l17 33q-20 22 -27.5 46.5t-7.5 68.5v166q0 42 6.5 65t23.5 44q26 31 69 47.5t100 16.5q20 0 37.5 -2t36.5 -7l18 34l93 -49l-19 -36q10 -11 16 -22t10 -23.5
t5.5 -29t1.5 -38.5v-166q0 -42 -6 -65t-24 -44q-25 -32 -68.5 -48t-100.5 -16q-37 0 -69 8h-2l-18 -32z" />
    <glyph glyph-name="questiondown" unicode="&#xbf;" horiz-adv-x="530" 
d="M318 527q-32 0 -54.5 22t-22.5 54t22.5 54.5t54.5 22.5t54 -22.5t22 -54.5t-22 -54t-54 -22zM477 57q-45 -32 -98.5 -49t-114.5 -17q-224 0 -224 187q0 70 25 109q11 16 27 30t50 37l45 30q19 13 30.5 21.5t17.5 17t7.5 18.5t1.5 25h148v-10v-32q0 -31 -2.5 -46
t-10.5 -29q-8 -16 -29 -32l-88 -63q-22 -16 -35.5 -26.5t-21 -19t-10 -16.5t-2.5 -18q0 -27 19 -44t49 -17q46 0 62 35q5 10 6.5 21t1.5 36v7h146v-155z" />
    <glyph glyph-name="exclamdown" unicode="&#xa1;" horiz-adv-x="307" 
d="M154 522q-32 0 -54.5 22.5t-22.5 54.5t22.5 54t54.5 22t54 -22t22 -54t-22 -54.5t-54 -22.5zM234 126l2 -10q3 -19 4 -28.5t1 -17.5q0 -35 -24.5 -57t-62.5 -22t-62.5 22t-24.5 57q0 8 1 17.5l3 28.5l2 10l44 337h74z" />
    <glyph glyph-name="logicalnot" unicode="&#xac;" 
d="M360 7v653h-320v-653h320zM33 667h334v-667h-334v667z" />
    <glyph glyph-name="radical" unicode="&#x221a;" horiz-adv-x="540" 
d="M305 -122h-51l-159 330l-46 -20l-19 34l93 39l154 -322l153 811h43z" />
    <glyph glyph-name="florin" unicode="&#x192;" horiz-adv-x="471" 
d="M125 352l18 105h44l14 78q8 44 14 66t16 37q20 33 56.5 51t81.5 18q49 0 82 -18l-17 -98h-9q-4 0 -7.5 0.5t-5.5 0.5q-26 0 -39.5 -13.5t-18.5 -42.5l-14 -79h70l-19 -105h-69l-52 -292q-8 -44 -14 -65.5t-16 -37.5q-20 -32 -56.5 -50t-81.5 -18q-49 0 -82 18l17 98l9 -1
h14q25 0 38.5 13t18.5 42l3 16l49 277h-44z" />
    <glyph glyph-name="approxequal" unicode="&#x2248;" horiz-adv-x="540" 
d="M532 230q-7 -63 -39 -98t-83 -35q-35 0 -72 11.5t-73.5 25.5t-71 25.5t-63.5 11.5q-31 0 -53 -22.5t-27 -59.5h-41q4 25 6 35t7 24q14 35 43.5 55.5t66.5 20.5q35 0 71.5 -11.5t72.5 -25t70 -25t65 -11.5q38 0 55.5 23.5t25.5 55.5h40zM532 396q-3 -25 -11 -49
t-22.5 -42.5t-36 -30t-51.5 -11.5q-35 0 -72.5 11.5t-74 25.5t-71 25.5t-62.5 11.5q-31 0 -53.5 -22.5t-27.5 -59.5h-41q2 13 3 21t2.5 14t3 11t4.5 12q14 35 43.5 56t66.5 21q34 0 70.5 -11.5t72.5 -25t71 -25t66 -11.5q36 0 55 23.5t25 55.5h40z" />
    <glyph glyph-name="guillemotleft" unicode="&#xab;" horiz-adv-x="327" 
d="M202 387h79l-53 -131l53 -131h-79l-53 131zM99 387h79l-53 -131l53 -131h-79l-52 131z" />
    <glyph glyph-name="guillemotright" unicode="&#xbb;" horiz-adv-x="327" 
d="M47 125l52 131l-52 131h78l53 -131l-53 -131h-78zM149 125l53 131l-53 131h79l53 -131l-53 -131h-79z" />
    <glyph glyph-name="ellipsis" unicode="&#x2026;" horiz-adv-x="1000" 
d="M833 135q30 0 51 -21t21 -51q0 -29 -21 -50.5t-51 -21.5q-29 0 -50.5 21.5t-21.5 50.5q0 30 21.5 51t50.5 21zM500 135q30 0 51 -21t21 -51q0 -29 -21 -50.5t-51 -21.5t-51 21.5t-21 50.5q0 30 21 51t51 21zM167 135q29 0 50.5 -21t21.5 -51q0 -29 -21.5 -50.5
t-50.5 -21.5q-30 0 -51 21.5t-21 50.5q0 30 21 51t51 21z" />
    <glyph glyph-name="nonbreakingspace" unicode="&#xa0;" horiz-adv-x="213" 
 />
    <glyph glyph-name="Agrave" unicode="&#xc0;" horiz-adv-x="532" 
d="M249 503l-43 -219h91zM480 168q3 -16 6.5 -26t7.5 -16.5t9.5 -10t14.5 -6.5v-109h-227v109q35 2 35 31q0 2 -0.5 4.5t-2.5 11.5l-1 4l-5 28h-129l-6 -28q-1 -5 -1.5 -11t-0.5 -10q0 -28 37 -30v-109h-204v109q17 5 24.5 18t14.5 46l97 494h229zM258 848l38 -119h-63
l-79 119h104z" />
    <glyph glyph-name="Atilde" unicode="&#xc3;" horiz-adv-x="532" 
d="M249 503l-43 -219h91zM480 168q3 -16 6.5 -26t7.5 -16.5t9.5 -10t14.5 -6.5v-109h-227v109q35 2 35 31q0 2 -0.5 4.5t-2.5 11.5l-1 4l-5 28h-129l-6 -28q-1 -5 -1.5 -11t-0.5 -10q0 -28 37 -30v-109h-204v109q17 5 24.5 18t14.5 46l97 494h229zM402 832q-9 -89 -74 -89
q-5 0 -10 0.5t-13 2.5t-19.5 4.5t-28.5 7.5q-14 5 -22 6t-15 1q-22 0 -29 -20h-63q4 43 23.5 66.5t54.5 23.5q10 0 22 -2.5t32 -9.5t31 -9.5t19 -2.5q23 0 30 21h62v0z" />
    <glyph glyph-name="Otilde" unicode="&#xd5;" horiz-adv-x="544" 
d="M200 212q0 -26 2 -38t10 -23q10 -14 25.5 -22.5t34.5 -8.5t35 8.5t25 22.5q8 11 10 22.5t2 35.5v246q0 26 -2 38t-10 23q-10 14 -26 22.5t-34 8.5q-19 0 -35 -8.5t-25 -22.5q-8 -11 -10 -22.5t-2 -36.5v-245zM497 162q-1 -47 -12.5 -76t-39.5 -51q-32 -25 -73.5 -36.5
t-99.5 -11.5q-114 0 -174 48q-28 23 -39.5 52.5t-11.5 74.5v343q0 47 12 76t39 50q32 26 74 37.5t100 11.5q114 0 173 -49q28 -23 40 -52t12 -74v-343zM409 832q-9 -89 -74 -89q-5 0 -10 0.5t-13 2.5t-19.5 4.5t-28.5 7.5q-14 5 -22 6t-15 1q-22 0 -29 -20h-63
q4 43 23.5 66.5t54.5 23.5q10 0 22 -2.5t32 -9.5t31 -9.5t19 -2.5q23 0 30 21h62v0z" />
    <glyph glyph-name="OE" unicode="&#x152;" horiz-adv-x="806" 
d="M296 536h-15q-42 -1 -61.5 -16.5t-19.5 -49.5v-22v-229v-22q1 -35 20 -50.5t61 -15.5h15h41v405h-41zM766 461h-144v5q0 38 -14 54t-49 16h-12h-57v-134h177v-113h-177v-158h70q35 0 47.5 14t13.5 52q1 14 1 18v8h144v-223h-482h-21q-59 0 -94 10.5t-64 36.5
q-16 15 -27 31t-18 36.5t-10 45.5t-3 57v20v192v21q0 63 13 101.5t45 67.5q28 26 64 37t94 11h21h482v-206z" />
    <glyph glyph-name="oe" unicode="&#x153;" horiz-adv-x="722" 
d="M549 306v9v14q0 73 -59 73t-59 -73v-14v-9h118zM291 315v14q0 73 -59 73t-59 -73v-14v-136v-14q0 -73 59 -73q31 0 45 17t14 55v15v136zM431 219v-40v-14q0 -38 14 -55.5t45 -17.5q59 0 59 70v4h140v-121q-53 -29 -99 -41.5t-100 -12.5q-38 0 -69 7t-60 21
q-53 -28 -128 -28q-200 0 -200 148v25v166v25q1 39 12.5 64.5t36.5 44.5q23 18 62.5 28.5t83.5 10.5q79 0 133 -30q28 14 62 22t72 8q48 0 89.5 -12.5t65.5 -33.5q39 -36 39 -102v-25v-111h-258z" />
    <glyph glyph-name="endash" unicode="&#x2013;" horiz-adv-x="574" 
d="M528 212h-481v96h481v-96z" />
    <glyph glyph-name="emdash" unicode="&#x2014;" horiz-adv-x="1093" 
d="M1047 212h-1000v96h1000v-96z" />
    <glyph glyph-name="quotedblleft" unicode="&#x201c;" horiz-adv-x="396" 
d="M166 651q-19 -13 -28 -23.5t-14 -24.5q26 -2 41.5 -18t15.5 -39q0 -28 -18 -46t-44 -18q-29 0 -46 19t-17 51q0 36 23.5 69.5t65.5 58.5zM324 651q-18 -13 -27.5 -23.5t-14.5 -24.5q26 -2 42 -18t16 -39q0 -28 -18 -46t-45 -18q-28 0 -45 19t-17 51q0 36 23 69.5t65 58.5
z" />
    <glyph glyph-name="quotedblright" unicode="&#x201d;" horiz-adv-x="396" 
d="M230 511q19 13 28 23.5t14 24.5q-26 2 -41.5 18t-15.5 39q0 28 17.5 46t44.5 18q28 0 45.5 -19t17.5 -51q0 -36 -23.5 -69.5t-65.5 -58.5zM72 511q18 13 27 23.5t15 24.5q-26 2 -42 18t-16 39q0 28 18 46t45 18q28 0 45 -19t17 -51q0 -36 -23 -69.5t-65 -58.5z" />
    <glyph glyph-name="quoteleft" unicode="&#x2018;" horiz-adv-x="238" 
d="M166 651q-19 -13 -28 -23.5t-14 -24.5q26 -2 41.5 -18t15.5 -39q0 -28 -18 -46t-44 -18q-29 0 -46 19t-17 51q0 36 23.5 69.5t65.5 58.5z" />
    <glyph glyph-name="quoteright" unicode="&#x2019;" horiz-adv-x="238" 
d="M72 511q18 13 27 23.5t15 24.5q-26 2 -42 18t-16 39q0 28 18 46t45 18q28 0 45 -19t17 -51q0 -36 -23 -69.5t-65 -58.5z" />
    <glyph glyph-name="divide" unicode="&#xf7;" 
d="M360 7v653h-320v-653h320zM33 667h334v-667h-334v667z" />
    <glyph glyph-name="lozenge" unicode="&#x25ca;" horiz-adv-x="540" 
d="M270 635l-138 -286l138 -308l139 308zM299 -20h-59l-167 369l167 344h59l169 -344z" />
    <glyph glyph-name="ydieresis" unicode="&#xff;" horiz-adv-x="455" 
d="M449 393q-14 -5 -20 -14.5t-14 -35.5l-93 -335q-14 -50 -30.5 -84.5t-37.5 -56t-48 -31t-62 -9.5q-12 0 -22 1t-27 4v107q3 -1 7 -1q23 0 36.5 11t22.5 34l-122 369q-8 21 -13.5 28.5t-18.5 12.5v101h195v-101q-20 -4 -20 -21q0 -4 1 -11.5t3 -13.5l50 -189l48 194
q2 5 2 8v8q0 18 -18 25v101h181v-101zM203 612q0 -23 -16.5 -40t-40.5 -17t-40.5 17t-16.5 41q0 23 16.5 39.5t40.5 16.5t40.5 -16.5t16.5 -40.5zM373 610q0 -24 -16.5 -41t-40.5 -17q-23 0 -40 17t-17 41t16.5 40.5t40.5 16.5t40.5 -16.5t16.5 -40.5z" />
    <glyph glyph-name="Ydieresis" unicode="&#x178;" horiz-adv-x="512" 
d="M144 109q20 5 27.5 16.5t7.5 36.5v12v82l-124 255q-13 26 -21.5 36t-20.5 13v107h199v-78v-18v-8v-3v-3q0 -21 13 -47l43 -90l44 89q4 9 7 16t4.5 14t2 15.5t0.5 21.5v19v72h173v-110q-12 -2 -20.5 -11.5t-19.5 -32.5l-5 -8l-122 -243v-85v-15q1 -26 8 -37t27 -16v-109
h-223v109zM227 789q0 -23 -16.5 -40t-40.5 -17t-40.5 17t-16.5 41q0 23 16.5 39.5t40.5 16.5t40.5 -16.5t16.5 -40.5zM397 787q0 -24 -16.5 -41t-40.5 -17q-23 0 -40 17t-17 41t16.5 40.5t40.5 16.5t40.5 -16.5t16.5 -40.5z" />
    <glyph glyph-name="currency" unicode="&#xa4;" 
d="M360 7v653h-320v-653h320zM33 667h334v-667h-334v667z" />
    <glyph glyph-name="guilsinglleft" unicode="&#x2039;" horiz-adv-x="224" 
d="M99 387h79l-53 -131l53 -131h-79l-52 131z" />
    <glyph glyph-name="guilsinglright" unicode="&#x203a;" horiz-adv-x="224" 
d="M47 125l52 131l-52 131h78l53 -131l-53 -131h-78z" />
    <glyph glyph-name="fi" unicode="&#xfb01;" horiz-adv-x="509" 
d="M458 599q0 -33 -23.5 -55.5t-55.5 -22.5q-33 0 -56 22.5t-23 55.5q0 32 23 55.5t56 23.5q32 0 55.5 -23.5t23.5 -55.5zM453 173v-10q0 -17 1 -28t4.5 -17.5t9.5 -10t16 -6.5v-101h-201v101q10 3 16 6.5t9 10t4 17.5t1 28v10v143v11q0 27 -2 36t-10 16q-6 6 -14 8t-24 2
h-64v-216v-10q0 -17 1 -28t4 -17.5t9 -10t16 -6.5v-101h-201v101q10 3 16 6.5t9.5 10t4.5 17.5t1 28v15v211h-31v105h31v21q0 25 1.5 42.5t4.5 31t9 24t15 21.5q36 43 107 43q16 0 30.5 -1.5t37.5 -6.5v-100q-5 1 -8 1.5t-7 0.5q-27 0 -38.5 -16t-11.5 -53v-8h254v-321z" />
    <glyph glyph-name="fl" unicode="&#xfb02;" horiz-adv-x="509" 
d="M28 101q10 3 16 6.5t9.5 10t4.5 17.5t1 28v15v211h-31v105h31v21q0 25 1.5 42.5t4.5 31t9 24t15 21.5q36 43 107 43q20 0 37.5 -2.5t37.5 -7.5h182v-494v-10q0 -17 1 -28t4.5 -17.5t9.5 -10t16 -6.5v-101h-201v101q10 3 16 6.5t9 10t4 17.5t1 28v10v320q0 20 -1 29.5
t-3 17.5q-11 31 -55 31q-31 0 -43 -15.5t-12 -53.5v-8h57v-105h-57v-216v-10q0 -17 1 -28t4 -17.5t9 -10t16 -6.5v-101h-201v101z" />
    <glyph glyph-name="daggerdbl" unicode="&#x2021;" 
d="M360 7v653h-320v-653h320zM33 667h334v-667h-334v667z" />
    <glyph glyph-name="periodcentered" unicode="&#xb7;" horiz-adv-x="238" 
d="M119 412q30 0 51 -21t21 -51t-21 -51t-51 -21t-51 21t-21 51t21 51t51 21z" />
    <glyph glyph-name="periodcentered" unicode="&#x22c5;" horiz-adv-x="238" 
d="M119 412q30 0 51 -21t21 -51t-21 -51t-51 -21t-51 21t-21 51t21 51t51 21z" />
    <glyph glyph-name="quotesinglbase" unicode="&#x201a;" 
d="M360 7v653h-320v-653h320zM33 667h334v-667h-334v667z" />
    <glyph glyph-name="quotedblbase" unicode="&#x201e;" horiz-adv-x="396" 
d="M230 -45q19 14 28 24t14 24q-26 2 -41.5 18t-15.5 40q0 27 17.5 45.5t44.5 18.5q28 0 45.5 -19t17.5 -51q0 -36 -23.5 -70t-65.5 -58zM72 -45q18 14 27 24t15 24q-26 2 -42 18t-16 40q0 27 18 45.5t45 18.5q28 0 45 -19t17 -51q0 -36 -23 -70t-65 -58z" />
    <glyph glyph-name="perthousand" unicode="&#x2030;" horiz-adv-x="1025" 
d="M891 199v8q0 32 -9.5 45.5t-31.5 13.5q-41 0 -41 -59v-8v-79v-8q0 -31 9.5 -44.5t31.5 -13.5t31.5 13.5t9.5 44.5v8v79zM992 161q0 -54 -2.5 -78.5t-10.5 -38.5q-15 -25 -46 -37t-83 -12t-83.5 12t-45.5 38q-8 13 -10.5 37.5t-2.5 78.5q0 29 1 49t3 33.5t5.5 22.5t9.5 17
q30 42 123 42q91 0 124 -42q5 -8 8.5 -17t5.5 -22.5t3 -33.5t1 -49zM576 199v8q-1 32 -10 45.5t-31 13.5q-41 0 -41 -59v-8v-79v-8q0 -31 9.5 -44.5t31.5 -13.5q21 0 31 13.5t10 44.5v8v79zM677 161q0 -54 -3 -78.5t-11 -38.5q-28 -49 -128 -49q-52 0 -83.5 12t-45.5 38
q-8 13 -10.5 37.5t-2.5 78.5q0 29 1 49t3 33.5t5.5 22.5t8.5 17q31 42 124 42q47 0 77 -11t47 -31q5 -8 8.5 -17t5.5 -22.5t3 -33.5t1 -49zM216 546v9q0 31 -9.5 44.5t-31.5 13.5t-31.5 -13.5t-9.5 -44.5v-9v-78v-9q1 -31 10 -44.5t31 -13.5t31.5 13.5t9.5 44.5v9v78z
M317 508q0 -53 -3 -78t-10 -39q-28 -49 -129 -49q-100 0 -129 50q-8 13 -10.5 38t-2.5 78q0 29 1 49t3 34t5.5 23t9.5 17q30 41 123 41q91 0 124 -41q5 -8 8.5 -17t5.5 -23t3 -34t1 -49zM493 667h105l-380 -667h-105z" />
    <glyph glyph-name="Acircumflex" unicode="&#xc2;" horiz-adv-x="532" 
d="M249 503l-43 -219h91zM480 168q3 -16 6.5 -26t7.5 -16.5t9.5 -10t14.5 -6.5v-109h-227v109q35 2 35 31q0 2 -0.5 4.5t-2.5 11.5l-1 4l-5 28h-129l-6 -28q-1 -5 -1.5 -11t-0.5 -10q0 -28 37 -30v-109h-204v109q17 5 24.5 18t14.5 46l97 494h229zM392 730h-80l-49 76
l-47 -76h-78l78 118h100z" />
    <glyph glyph-name="Ecircumflex" unicode="&#xca;" horiz-adv-x="545" 
d="M33 109q20 5 27.5 16.5t7.5 36.5v13v317v13q0 26 -7.5 36.5t-27.5 15.5v110h472v-206h-144v5q0 38 -13.5 54t-48.5 16h-12h-66v-134h186v-113h-186v-158h64h14q35 0 48 14t14 52v26h144v-223h-472v109zM392 730h-80l-49 76l-47 -76h-78l78 118h100z" />
    <glyph glyph-name="Aacute" unicode="&#xc1;" horiz-adv-x="532" 
d="M249 503l-43 -219h91zM480 168q3 -16 6.5 -26t7.5 -16.5t9.5 -10t14.5 -6.5v-109h-227v109q35 2 35 31q0 2 -0.5 4.5t-2.5 11.5l-1 4l-5 28h-129l-6 -28q-1 -5 -1.5 -11t-0.5 -10q0 -28 37 -30v-109h-204v109q17 5 24.5 18t14.5 46l97 494h229zM287 729h-64l38 119h104z
" />
    <glyph glyph-name="Edieresis" unicode="&#xcb;" horiz-adv-x="545" 
d="M33 109q20 5 27.5 16.5t7.5 36.5v13v317v13q0 26 -7.5 36.5t-27.5 15.5v110h472v-206h-144v5q0 38 -13.5 54t-48.5 16h-12h-66v-134h186v-113h-186v-158h64h14q35 0 48 14t14 52v26h144v-223h-472v109zM238 789q0 -23 -16.5 -40t-40.5 -17t-40.5 17t-16.5 41
q0 23 16.5 39.5t40.5 16.5t40.5 -16.5t16.5 -40.5zM408 787q0 -24 -16.5 -41t-40.5 -17q-23 0 -40 17t-17 41t16.5 40.5t40.5 16.5t40.5 -16.5t16.5 -40.5z" />
    <glyph glyph-name="Egrave" unicode="&#xc8;" horiz-adv-x="545" 
d="M33 109q20 5 27.5 16.5t7.5 36.5v13v317v13q0 26 -7.5 36.5t-27.5 15.5v110h472v-206h-144v5q0 38 -13.5 54t-48.5 16h-12h-66v-134h186v-113h-186v-158h64h14q35 0 48 14t14 52v26h144v-223h-472v109zM268 848l38 -119h-63l-79 119h104z" />
    <glyph glyph-name="Iacute" unicode="&#xcd;" horiz-adv-x="290" 
d="M33 109q20 5 27.5 16.5t7.5 36.5v13v317v13q0 26 -7.5 36.5t-27.5 15.5v110h223v-110q-20 -5 -27.5 -16t-7.5 -36v-13v-317v-13q1 -26 8 -37t27 -16v-109h-223v109zM177 729h-64l38 119h104z" />
    <glyph glyph-name="Icircumflex" unicode="&#xce;" horiz-adv-x="290" 
d="M272 730h-80l-49 76l-47 -76h-78l78 118h100zM33 109q20 5 27.5 16.5t7.5 36.5v13v317v13q0 26 -7.5 36.5t-27.5 15.5v110h223v-110q-20 -5 -27.5 -16t-7.5 -36v-13v-317v-13q1 -26 8 -37t27 -16v-109h-223v109z" />
    <glyph glyph-name="Idieresis" unicode="&#xcf;" horiz-adv-x="290" 
d="M116 789q0 -23 -16.5 -40t-40.5 -17t-40.5 17t-16.5 41q0 23 16.5 39.5t40.5 16.5t40.5 -16.5t16.5 -40.5zM286 787q0 -24 -16.5 -41t-40.5 -17q-23 0 -40 17t-17 41t16.5 40.5t40.5 16.5t40.5 -16.5t16.5 -40.5zM31 109q20 5 27.5 16.5t7.5 36.5v13v317v13
q0 26 -7.5 36.5t-27.5 15.5v110h223v-110q-20 -5 -27.5 -16t-7.5 -36v-13v-317v-13q1 -26 8 -37t27 -16v-109h-223v109z" />
    <glyph glyph-name="Igrave" unicode="&#xcc;" horiz-adv-x="290" 
d="M33 109q20 5 27.5 16.5t7.5 36.5v13v317v13q0 26 -7.5 36.5t-27.5 15.5v110h223v-110q-20 -5 -27.5 -16t-7.5 -36v-13v-317v-13q1 -26 8 -37t27 -16v-109h-223v109zM138 845l38 -119h-63l-79 119h104z" />
    <glyph glyph-name="Oacute" unicode="&#xd3;" horiz-adv-x="544" 
d="M200 212q0 -26 2 -38t10 -23q10 -14 25.5 -22.5t34.5 -8.5t35 8.5t25 22.5q8 11 10 22.5t2 35.5v246q0 26 -2 38t-10 23q-10 14 -26 22.5t-34 8.5q-19 0 -35 -8.5t-25 -22.5q-8 -11 -10 -22.5t-2 -36.5v-245zM497 162q-1 -47 -12.5 -76t-39.5 -51q-32 -25 -73.5 -36.5
t-99.5 -11.5q-114 0 -174 48q-28 23 -39.5 52.5t-11.5 74.5v343q0 47 12 76t39 50q32 26 74 37.5t100 11.5q114 0 173 -49q28 -23 40 -52t12 -74v-343zM302 729h-64l38 119h104z" />
    <glyph glyph-name="Ocircumflex" unicode="&#xd4;" horiz-adv-x="544" 
d="M200 212q0 -26 2 -38t10 -23q10 -14 25.5 -22.5t34.5 -8.5t35 8.5t25 22.5q8 11 10 22.5t2 35.5v246q0 26 -2 38t-10 23q-10 14 -26 22.5t-34 8.5q-19 0 -35 -8.5t-25 -22.5q-8 -11 -10 -22.5t-2 -36.5v-245zM497 162q-1 -47 -12.5 -76t-39.5 -51q-32 -25 -73.5 -36.5
t-99.5 -11.5q-114 0 -174 48q-28 23 -39.5 52.5t-11.5 74.5v343q0 47 12 76t39 50q32 26 74 37.5t100 11.5q114 0 173 -49q28 -23 40 -52t12 -74v-343zM400 730h-80l-49 76l-47 -76h-78l78 118h100z" />
    <glyph glyph-name="apple" unicode="&#xf8ff;" 
d="M360 7v653h-320v-653h320zM33 667h334v-667h-334v667z" />
    <glyph glyph-name="Ograve" unicode="&#xd2;" horiz-adv-x="544" 
d="M200 212q0 -26 2 -38t10 -23q10 -14 25.5 -22.5t34.5 -8.5t35 8.5t25 22.5q8 11 10 22.5t2 35.5v246q0 26 -2 38t-10 23q-10 14 -26 22.5t-34 8.5q-19 0 -35 -8.5t-25 -22.5q-8 -11 -10 -22.5t-2 -36.5v-245zM497 162q-1 -47 -12.5 -76t-39.5 -51q-32 -25 -73.5 -36.5
t-99.5 -11.5q-114 0 -174 48q-28 23 -39.5 52.5t-11.5 74.5v343q0 47 12 76t39 50q32 26 74 37.5t100 11.5q114 0 173 -49q28 -23 40 -52t12 -74v-343zM261 848l38 -119h-63l-79 119h104z" />
    <glyph glyph-name="Uacute" unicode="&#xda;" horiz-adv-x="554" 
d="M250 667v-109q-20 -5 -27.5 -16t-7.5 -37v-7v-6v-270v-10q0 -26 3.5 -39.5t12.5 -24.5q22 -24 56 -24q72 0 72 87v8v273v6v5q0 26 -7.5 38t-27.5 17v109h203v-109q-20 -5 -27.5 -16.5t-7.5 -36.5v-13v-232v-47q0 -28 -1 -48t-4 -35.5t-7.5 -27.5t-11.5 -24
q-26 -42 -74.5 -64.5t-114.5 -22.5q-103 0 -160 49.5t-57 138.5v39v274v13q-1 26 -8 37t-27 16v109h223zM306 729h-64l38 119h104z" />
    <glyph glyph-name="Ucircumflex" unicode="&#xdb;" horiz-adv-x="554" 
d="M250 667v-109q-20 -5 -27.5 -16t-7.5 -37v-7v-6v-270v-10q0 -26 3.5 -39.5t12.5 -24.5q22 -24 56 -24q72 0 72 87v8v273v6v5q0 26 -7.5 38t-27.5 17v109h203v-109q-20 -5 -27.5 -16.5t-7.5 -36.5v-13v-232v-47q0 -28 -1 -48t-4 -35.5t-7.5 -27.5t-11.5 -24
q-26 -42 -74.5 -64.5t-114.5 -22.5q-103 0 -160 49.5t-57 138.5v39v274v13q-1 26 -8 37t-27 16v109h223zM406 730h-80l-49 76l-47 -76h-78l78 118h100z" />
    <glyph glyph-name="Ugrave" unicode="&#xd9;" horiz-adv-x="554" 
d="M250 667v-109q-20 -5 -27.5 -16t-7.5 -37v-7v-6v-270v-10q0 -26 3.5 -39.5t12.5 -24.5q22 -24 56 -24q72 0 72 87v8v273v6v5q0 26 -7.5 38t-27.5 17v109h203v-109q-20 -5 -27.5 -16.5t-7.5 -36.5v-13v-232v-47q0 -28 -1 -48t-4 -35.5t-7.5 -27.5t-11.5 -24
q-26 -42 -74.5 -64.5t-114.5 -22.5q-103 0 -160 49.5t-57 138.5v39v274v13q-1 26 -8 37t-27 16v109h223zM282 848l38 -119h-63l-79 119h104z" />
    <glyph glyph-name="dotlessi" unicode="&#x131;" horiz-adv-x="254" 
d="M28 101q20 6 25.5 14.5t5.5 32.5v15v10v148v10v16q0 23 -5.5 31.5t-25.5 14.5v101h171v-321v-10v-15q0 -24 5.5 -32.5t24.5 -14.5v-101h-201v101z" />
    <glyph glyph-name="circumflex" unicode="&#x2c6;" horiz-adv-x="387" 
d="M321 552h-80l-49 76l-47 -76h-78l78 118h100z" />
    <glyph glyph-name="tilde" unicode="&#x2dc;" horiz-adv-x="407" 
d="M341 654q-9 -89 -74 -89q-5 0 -10 0.5t-13 2.5t-19.5 4.5t-28.5 7.5q-14 5 -22 6t-15 1q-22 0 -29 -20h-63q4 43 23.5 66.5t54.5 23.5q10 0 22 -2.5t32 -9.5t31 -9.5t19 -2.5q23 0 30 21h62v0z" />
    <glyph glyph-name="macron" unicode="&#xaf;" 
d="M360 7v653h-320v-653h320zM33 667h334v-667h-334v667z" />
    <glyph glyph-name="macron" unicode="&#x2c9;" 
d="M360 7v653h-320v-653h320zM33 667h334v-667h-334v667z" />
    <glyph glyph-name="breve" unicode="&#x2d8;" 
d="M360 7v653h-320v-653h320zM33 667h334v-667h-334v667z" />
    <glyph glyph-name="dotaccent" unicode="&#x2d9;" 
d="M360 7v653h-320v-653h320zM33 667h334v-667h-334v667z" />
    <glyph glyph-name="ring" unicode="&#x2da;" horiz-adv-x="298" 
d="M183 612q0 14 -10 24t-24 10t-24 -10t-10 -24t10 -24.5t24 -10.5t24 10.5t10 24.5zM232 611q0 -34 -24 -58t-59 -24q-34 0 -58 24t-24 59t23.5 59t58.5 24q17 0 32 -6.5t26.5 -18t18 -26.5t6.5 -33z" />
    <glyph glyph-name="cedilla" unicode="&#xb8;" 
d="M360 7v653h-320v-653h320zM33 667h334v-667h-334v667z" />
    <glyph glyph-name="hungarumlaut" unicode="&#x2dd;" 
d="M360 7v653h-320v-653h320zM33 667h334v-667h-334v667z" />
    <glyph glyph-name="ogonek" unicode="&#x2db;" 
d="M360 7v653h-320v-653h320zM33 667h334v-667h-334v667z" />
    <glyph glyph-name="caron" unicode="&#x2c7;" 
d="M360 7v653h-320v-653h320zM33 667h334v-667h-334v667z" />
    <glyph glyph-name="numbersign" unicode="#" 
d="M360 7v653h-320v-653h320zM33 667h334v-667h-334v667z" />
    <glyph glyph-name="product" unicode="&#x220f;" horiz-adv-x="810" 
d="M516 -122v18l35 1q28 1 35.5 6t7.5 22v744q0 44 -40 44h-305q-33 0 -33 -35v-753q0 -17 8.5 -22t36.5 -6l35 -1v-18h-250v18l35 1q28 1 35.5 6t7.5 22v778q0 17 -7.5 22t-35.5 6l-35 1v18h718v-18l-35 -1q-28 -1 -35.5 -6t-7.5 -22v-778q0 -17 7.5 -22t35.5 -6l35 -1v-18
h-248z" />
    <glyph glyph-name="exclam" unicode="!" horiz-adv-x="307" 
d="M154 144q32 0 54 -22t22 -54t-22 -54.5t-54 -22.5t-54.5 22.5t-22.5 54.5t22.5 54t54.5 22zM117 203l-44 337q0 1 -1 7.5t-2 15.5t-2 18.5t-1 14.5q0 35 24.5 57t62.5 22t62.5 -22t24.5 -56q0 -6 -1 -17.5t-6 -39.5l-43 -337h-74z" />
    <glyph glyph-name="quotedbl" unicode="&#x22;" horiz-adv-x="399" 
d="M261 479l-35 96q-5 13 -7 22t-2 17q0 28 18.5 47t45.5 19q28 0 46.5 -19t18.5 -46q0 -15 -9 -40l-35 -96h-41zM98 479l-36 96q-9 25 -9 39q0 28 18.5 47t46.5 19q27 0 45.5 -19t18.5 -46q0 -17 -8 -40l-36 -96h-40z" />
    <glyph glyph-name="Omega" unicode="&#x3a9;" horiz-adv-x="750" 
d="M688 170q-2 -17 -3.5 -38t-3.5 -43q-2 -26 -2.5 -50t0.5 -41q-23 2 -55 2h-66q-36 0 -70.5 -0.5t-57.5 -1.5q-7 0 -9 2t-2 10v162q76 8 111 68.5t35 181.5q0 130 -46.5 189t-143.5 59t-140 -59t-43 -189q0 -230 137 -250v-163q0 -7 -1.5 -9t-9.5 -2q-24 1 -59.5 1.5
t-70.5 0.5q-38 0 -69.5 -0.5t-47.5 -1.5q1 22 0.5 45.5t-1.5 47.5q-1 21 -2.5 41t-4.5 38h23q4 -29 8 -50.5t14 -35.5t29 -21t53 -7h99q8 0 8 8v83q-48 7 -88.5 33.5t-70 65.5t-46 85.5t-16.5 92.5q0 60 22 109.5t62 85t95 55t121 19.5q65 0 120.5 -18.5t96.5 -53.5
t64.5 -85t23.5 -113q0 -51 -16.5 -98t-47 -84t-73 -62t-93.5 -32v-82q0 -9 8 -9h101q58 0 80.5 27t22.5 87h25z" />
    <glyph glyph-name="Delta" unicode="&#x394;" horiz-adv-x="540" 
d="M270 614l-244 -547q-5 -11 -3.5 -14t9.5 -3h454q12 0 13.5 4t-1.5 12zM-48 0l314 693h34l289 -693h-637z" />
    <glyph glyph-name="fraction" unicode="&#x2215;" horiz-adv-x="354" 
d="M40 0h-107l381 667h106z" />
    <glyph glyph-name="Euro" unicode="&#x20ac;" horiz-adv-x="544" 
d="M508 162q0 -175 -219 -175q-52 0 -95.5 12.5t-73.5 36.5q-53 41 -53 126v89h-91v60h91v47h-91v60h91v89q0 173 224 173q55 0 105 -10.5t112 -35.5v-182h-141q0 16 -0.5 34t-10.5 32t-26.5 21.5t-35.5 7.5q-20 0 -36 -8.5t-26 -22.5q-8 -11 -10 -23t-2 -38v-37h241v-60
h-241v-47h194v-60h-194v-26q0 -18 0.5 -29.5t1.5 -19t3.5 -12.5t6.5 -11q22 -30 62 -30q20 0 36 7.5t26 21.5t10.5 31t0.5 34h141v-55v0z" />
    </font>
</defs>
</svg>
