<?xml version="1.0" standalone="no"?>
<!DOCTYPE svg PUBLIC "-//W3C//DTD SVG 1.1//EN" "http://www.w3.org/Graphics/SVG/1.1/DTD/svg11.dtd" >
<svg xmlns="http://www.w3.org/2000/svg" xmlns:xlink="http://www.w3.org/1999/xlink" version="1.1">
<metadata>
Created by FontForge 20170731 at Mon Jun 28 16:26:46 1993
 By ,,,
This is a copyrighted typeface program. Duplication prohibited.
</metadata>
<defs>
<font id="Aachen-Regular" horiz-adv-x="500" >
  <font-face 
    font-family="Aachen"
    font-weight="400"
    font-stretch="normal"
    units-per-em="1000"
    panose-1="0 0 0 0 0 0 0 0 0 0"
    ascent="800"
    descent="-200"
    x-height="493"
    cap-height="667"
    bbox="-67 -250 948 894"
    underline-thickness="117"
    underline-position="-278"
    unicode-range="U+0020-F002"
  />
<missing-glyph horiz-adv-x="795" 
d="M49 0v795h697v-795h-697zM697 49v697h-599v-697h599z" />
    <glyph glyph-name=".notdef" horiz-adv-x="795" 
d="M49 0v795h697v-795h-697zM697 49v697h-599v-697h599z" />
    <glyph glyph-name=".null" horiz-adv-x="0" 
 />
    <glyph glyph-name="nonmarkingreturn" horiz-adv-x="250" 
 />
    <glyph glyph-name="space" unicode=" " horiz-adv-x="250" 
 />
    <glyph glyph-name="exclam" unicode="!" horiz-adv-x="294" 
d="M145 147q33 0 55 -22t22 -55q0 -32 -22.5 -54.5t-54.5 -22.5t-54.5 22.5t-22.5 54.5t22.5 54.5t54.5 22.5zM184 203h-75l-44 342q-2 13 -3.5 29t-1.5 21q0 35 24 58t63 23t63 -21t24 -56v-16q-3 -20 -6 -41z" />
    <glyph glyph-name="quotedbl" unicode="&#x22;" horiz-adv-x="383" 
d="M130 410h-57l-29 170q-1 3 -4 22.5t-3 26.5q0 51 65 51t65 -51v-13q-3 -15 -7 -36zM310 410h-57l-29 170q-5 31 -6 37t-1 12q0 51 64 51q65 0 65 -51q0 -8 -1.5 -20t-4.5 -29z" />
    <glyph glyph-name="numbersign" unicode="#" horiz-adv-x="620" 
d="M182 402h-101l14 78h101l36 187h92l-37 -187h102l32 187h93l-36 -187h101l-14 -78h-101l-26 -137h101l-15 -78h-101l-35 -187h-93l37 187h-98l-36 -187h-92l35 187h-101l15 78h101zM374 402h-102l-26 -137h101z" />
    <glyph glyph-name="dollar" unicode="$" horiz-adv-x="519" 
d="M469 591v-150h-141v17q0 80 -67 80q-31 0 -50 -16t-19 -42t20 -42t105.5 -45.5t122 -69.5t36.5 -123q0 -77 -41.5 -127.5t-114.5 -63.5v-58h-125v57q-50 11 -79 24t-72 45v159h146v-25q0 -79 69 -79q30 0 50 19t20 48q0 30 -24 49t-107.5 51t-117 69.5t-33.5 110.5
q0 146 152 179v55h125v-55q48 -11 79.5 -25.5t65.5 -41.5z" />
    <glyph glyph-name="percent" unicode="%" horiz-adv-x="669" 
d="M258 582v-160q0 -92 -121 -92q-117 0 -117 88v164q0 95 121 95q117 0 117 -95zM110 563v-120q0 -35 29 -35t29 37v120q0 34 -29 34t-29 -36zM478 667l-206 -667h-81l208 667h79zM649 242v-160q0 -92 -120 -92q-118 0 -118 88v164q0 95 121 95q117 0 117 -95zM502 222
v-119q0 -35 29 -35q28 0 28 37v120q0 34 -29 34q-28 0 -28 -37z" />
    <glyph glyph-name="ampersand" unicode="&#x26;" horiz-adv-x="530" 
d="M480 618v-118h-148q-2 20 -20 34t-43 14q-31 0 -51.5 -19.5t-20.5 -50.5q0 -32 19.5 -49.5t55.5 -17.5h64v22h144v-22h27v-111h-27v-300h-273q-62 0 -94 14t-52 45t-28 65t-8 74q0 126 103 161q-92 42 -92 145q0 85 58 132t164 47q61 0 111.5 -15t110.5 -50zM336 300h-65
q-87 0 -87 -80q0 -44 19.5 -62.5t65.5 -18.5h67v161z" />
    <glyph glyph-name="quotesingle" unicode="'" horiz-adv-x="203" 
d="M130 410h-57l-29 170q-1 3 -4 22.5t-3 26.5q0 51 65 51t65 -51v-13q-3 -15 -7 -36z" />
    <glyph glyph-name="parenleft" unicode="(" horiz-adv-x="331" 
d="M240 707l71 -50q-57 -91 -89.5 -199t-32.5 -212q0 -54 11 -119.5t27 -114.5t30.5 -80t44.5 -85l-72 -52q-92 103 -141 218.5t-49 229.5q0 122 51 241t149 223z" />
    <glyph glyph-name="parenright" unicode=")" horiz-adv-x="331" 
d="M91 -205l-71 50q57 91 89 198.5t32 211.5q0 200 -112 400l72 52q93 -104 141.5 -219t48.5 -229q0 -122 -51 -241t-149 -223z" />
    <glyph glyph-name="asterisk" unicode="*" horiz-adv-x="415" 
d="M240 677v-119l115 41l24 -72l-116 -34l74 -94l-63 -45l-68 100l-66 -100l-63 45l73 94l-113 34l23 72l110 -37v115h70z" />
    <glyph glyph-name="plus" unicode="+" horiz-adv-x="520" 
d="M474 287h-147v-154h-133v154h-147v120h147v153h133v-153h147v-120z" />
    <glyph glyph-name="comma" unicode="," horiz-adv-x="252" 
d="M92 -85l-23 34q34 26 48 52q-30 4 -47 21t-17 44q0 30 20 51t49 21q33 0 53.5 -21.5t20.5 -56.5q0 -44 -28 -83t-76 -62z" />
    <glyph glyph-name="hyphen" unicode="-" horiz-adv-x="214" 
d="M214 324v-105h-214v105h214z" />
    <glyph glyph-name="hyphen" unicode="&#xad;" horiz-adv-x="214" 
d="M214 324v-105h-214v105h214z" />
    <glyph glyph-name="period" unicode="." horiz-adv-x="252" 
d="M127 131q30 0 51 -21t21 -51t-21 -51t-51 -21t-51 21t-21 51t21 51t51 21z" />
    <glyph glyph-name="slash" unicode="/" horiz-adv-x="407" 
d="M376 667l-273 -840h-110l274 840h109z" />
    <glyph glyph-name="zero" unicode="0" horiz-adv-x="519" 
d="M484 497v-333q0 -91 -55.5 -134.5t-172.5 -43.5q-110 0 -154.5 35.5t-55.5 62t-11 71.5v342q0 95 55.5 139.5t172.5 44.5q110 0 154.5 -36t55.5 -65t11 -83zM188 456v-249q0 -86 72 -86q71 0 71 91v250q0 84 -72 84q-71 0 -71 -90z" />
    <glyph glyph-name="one" unicode="1" horiz-adv-x="519" 
d="M342 667v-492q0 -36 7 -49t29 -18v-108h-224v108q22 7 28.5 19t6.5 48v317q0 36 -6.5 48.5t-28.5 18.5v108h188z" />
    <glyph glyph-name="two" unicode="2" horiz-adv-x="519" 
d="M487 209v-209h-453v153q0 38 7 62t20.5 40t27 27.5t51.5 41.5l32 25l33 25l32 25q48 37 60.5 48t20.5 23.5t8 27.5q0 27 -18 43t-48 16q-68 0 -68 -76v-46h-149v180q55 32 106 46t115 14q115 0 167 -43t52 -140q0 -57 -17 -88.5t-73 -76.5l-23 -19l-141 -109
q-21 -17 -28.5 -30.5t-7.5 -34.5l-1 -9h77q39 0 47.5 12.5t8.5 71.5h162z" />
    <glyph glyph-name="three" unicode="3" horiz-adv-x="519" 
d="M39 469v152q108 60 220 60q108 0 166 -46t58 -134q0 -60 -27 -96t-90 -59q122 -31 122 -164q0 -96 -59 -146t-172 -50q-58 0 -105 12t-120 45v163h154v-13q0 -72 68 -72q33 0 52.5 21.5t19.5 59.5q0 78 -86 78h-91v114h88q90 0 90 78q0 32 -21 53t-54 21q-30 0 -48 -19
t-18 -49v-9h-147z" />
    <glyph glyph-name="four" unicode="4" horiz-adv-x="519" 
d="M442 667v-364h44v-127h-44v-11q0 -29 7 -41t27 -16v-108h-224v108q19 4 28 17t9 37v14h-270v144l233 347h190zM289 488l-122 -185h122v185z" />
    <glyph glyph-name="five" unicode="5" horiz-adv-x="519" 
d="M472 667v-181h-145q0 29 -15 41t-49 12h-77v-120q57 20 110 20q55 0 101 -24t65 -57t24 -58.5t5 -72.5q0 -83 -14 -130t-72 -79t-149 -32q-57 0 -108 14t-115 48v171h153v-9q0 -40 14.5 -64.5t56.5 -24.5q44 0 58 25.5t14 77.5q0 56 -15 78t-53 22q-33 0 -62 -30h-166
v373h439z" />
    <glyph glyph-name="six" unicode="6" horiz-adv-x="519" 
d="M477 631v-143h-149q-6 65 -68 65q-33 0 -54 -20t-21 -52v-85q34 18 61 25t65 7q113 0 142.5 -52t33.5 -77.5t4 -87.5q0 -67 -8 -100t-33.5 -62t-77.5 -46t-120 -17q-145 0 -177.5 50.5t-37.5 75t-5 72.5v301q0 52 10 83.5t49 72t160 40.5q125 0 226 -50zM258 305
q-39 0 -57 -21t-18 -70q0 -52 17 -75t57 -23q38 0 55 22t17 73q0 52 -16 73t-55 21z" />
    <glyph glyph-name="seven" unicode="7" horiz-adv-x="519" 
d="M490 667v-115l-239 -552h-164l232 539h-68q-48 0 -62 -15t-14 -69v-13h-143v225h458z" />
    <glyph glyph-name="eight" unicode="8" horiz-adv-x="519" 
d="M401 347q51 -22 74 -61t23 -106q0 -194 -245 -194q-232 0 -232 194q0 70 23 109.5t75 56.5q-50 22 -68.5 54.5t-18.5 98.5q0 182 228 182q109 0 168.5 -45.5t59.5 -142.5q0 -62 -19 -94t-68 -52zM262 546q-72 0 -72 -75t71 -75q31 0 50 21t19 55t-18 54t-50 20zM261 294
q-78 0 -78 -90q0 -92 78 -92q35 0 55 24t20 66q0 92 -75 92z" />
    <glyph glyph-name="nine" unicode="9" horiz-adv-x="519" 
d="M42 193h149v-9q0 -32 19 -51t51 -19q74 0 74 86v81q-34 -19 -64 -27t-64 -8q-51 0 -90.5 18t-56.5 46.5t-23 57.5t-6 76q0 80 9 115.5t51.5 78.5t180.5 43q112 0 164 -44t52 -141v-320q0 -98 -54 -144t-168 -46q-62 0 -113.5 12t-110.5 40v155zM265 551q-72 0 -72 -86
q0 -92 72 -92t72 92q0 86 -72 86z" />
    <glyph glyph-name="colon" unicode=":" horiz-adv-x="252" 
d="M127 410q30 0 51 -21t21 -51t-21 -51t-51 -21t-51 21t-21 51t21 51t51 21zM127 131q30 0 51 -21t21 -51t-21 -51t-51 -21t-51 21t-21 51t21 51t51 21z" />
    <glyph glyph-name="semicolon" unicode=";" horiz-adv-x="252" 
d="M126 410q30 0 51 -21t21 -51t-21 -51t-51 -21t-51 21t-21 51t21 51t51 21zM92 -85l-23 34q34 26 48 52q-30 4 -47 21t-17 44q0 30 20 51t49 21q33 0 53.5 -21.5t20.5 -56.5q0 -44 -28 -83t-76 -62z" />
    <glyph glyph-name="less" unicode="&#x3c;" 
d="M466 609v-128l-296 -147l296 -148v-128l-433 222v109z" />
    <glyph glyph-name="equal" unicode="=" horiz-adv-x="520" 
d="M474 200h-427v107h427v-107zM474 386h-427v107h427v-107z" />
    <glyph glyph-name="greater" unicode="&#x3e;" 
d="M33 58v129l296 147l-296 147v128l433 -221v-109z" />
    <glyph glyph-name="question" unicode="?" horiz-adv-x="497" 
d="M192 142q33 0 55 -22t22 -55t-22 -55t-55 -22q-32 0 -54.5 22.5t-22.5 54.5t22.5 54.5t54.5 22.5zM33 455v156q93 64 213 64q105 0 161 -47t56 -137t-28 -117t-52.5 -45t-64 -43.5t-49 -39t-9.5 -44.5h-143q0 95 10 115t83 70.5t90 67.5t17 40q0 28 -18 45t-48 17
q-60 0 -68 -45q-4 -15 -4 -57h-146z" />
    <glyph glyph-name="at" unicode="@" horiz-adv-x="571" 
d="M474 80l13 -80h-192q-79 0 -124 14t-73 46t-38 66.5t-10 90.5v246q0 117 56 167t189 50q79 0 124 -14t73.5 -46t38.5 -66t10 -91v-286h-171q-56 0 -81 7t-44 31t-19 90q0 76 27 104t103 28h72q0 74 -32 105t-106 31q-65 0 -101 -35t-36 -101v-220q0 -66 35.5 -101.5
t101.5 -35.5h184zM427 256v110h-24q-23 0 -32 -12t-9 -43q0 -55 41 -55h24z" />
    <glyph glyph-name="A" unicode="A" horiz-adv-x="516" 
d="M370 667l102 -499q6 -30 13.5 -41.5t25.5 -18.5v-108h-228v108q34 3 34 30l-3 22l-5 29h-129l-6 -29l-2 -18q0 -17 8.5 -25.5t27.5 -8.5v-108h-203v108q16 7 24 20.5t14 44.5l96 494h231zM288 286l-48 218l-42 -218h90z" />
    <glyph glyph-name="B" unicode="B" horiz-adv-x="560" 
d="M39 667h262q46 0 71 -3t60 -16.5t62 -56.5t27 -104q0 -119 -98 -147q109 -24 109 -159q0 -106 -50.5 -143.5t-149.5 -37.5h-293v108q22 6 28.5 18.5t6.5 48.5v317q0 37 -6 49.5t-29 17.5v108zM227 540v-137h69q38 0 55 16t17 54q0 67 -76 67h-65zM227 288v-161h69
q45 0 64 19t19 62t-19.5 61.5t-64.5 18.5h-68z" />
    <glyph glyph-name="C" unicode="C" horiz-adv-x="514" 
d="M474 265v-227q-65 -28 -115.5 -40t-103.5 -12q-144 0 -178 50.5t-39 73.5t-5 69v324q0 178 221 178q118 0 220 -49v-188h-145v19q0 83 -70 83q-73 0 -73 -93v-242q0 -48 17 -69t56 -21q38 0 54 20.5t16 69.5v54h145z" />
    <glyph glyph-name="D" unicode="D" horiz-adv-x="549" 
d="M73 175v317q0 37 -6 49.5t-29 17.5v108h257q61 0 91.5 -7t80 -44.5t49.5 -146.5v-232q0 -90 -20 -137.5t-59 -68.5t-74.5 -26t-112.5 -5h-212v108q22 6 28.5 18.5t6.5 48.5zM226 536v-403h50q55 0 71 16t16 70v232q0 52 -16.5 68.5t-68.5 16.5h-52z" />
    <glyph glyph-name="E" unicode="E" horiz-adv-x="542" 
d="M509 667v-206h-144v8v5q0 36 -14 49t-54 13h-71v-135h185v-113h-185v-161h65q49 0 61.5 14.5t12.5 72.5v7h144v-221h-471v108q22 6 28.5 18.5t6.5 48.5v317q0 37 -6 49.5t-29 17.5v108h471z" />
    <glyph glyph-name="F" unicode="F" horiz-adv-x="512" 
d="M501 667v-207h-136v9q0 38 -16.5 52.5t-57.5 14.5h-62v-136h175v-113h-175v-112q0 -36 6.5 -48.5t28.5 -18.5v-108h-223v108q22 7 28.5 19.5t6.5 47.5v317q0 36 -5 46.5t-27 18.5l-3 2v108h460z" />
    <glyph glyph-name="G" unicode="G" horiz-adv-x="511" 
d="M474 631v-178h-146l1 17q0 35 -18 55t-51 20q-74 0 -74 -88v-248q0 -47 17 -68t56 -21q69 0 69 84v38h-60v107h206v-301q-94 -63 -221 -63q-72 0 -123.5 21t-74 58t-22.5 100v335q0 77 47 129t183 52q113 0 211 -49z" />
    <glyph glyph-name="H" unicode="H" horiz-adv-x="593" 
d="M225 400h142v92q0 37 -6 49.5t-29 17.5v108h223v-108q-21 -5 -28 -18t-7 -49v-317q0 -36 6.5 -48.5t28.5 -18.5v-108h-223v108q22 6 28.5 18.5t6.5 48.5v112h-142v-112q0 -36 6.5 -48.5t28.5 -18.5v-108h-223v108q22 6 28.5 18.5t6.5 48.5v317q0 37 -6 49.5t-29 17.5v108
h223v-108q-21 -5 -28 -18t-7 -49v-92z" />
    <glyph glyph-name="I" unicode="I" horiz-adv-x="301" 
d="M73 175v317q0 37 -6 49.5t-29 17.5v108h223v-108q-21 -5 -28 -18t-7 -49v-317q0 -36 6.5 -48.5t28.5 -18.5v-108h-223v108q22 6 28.5 18.5t6.5 48.5z" />
    <glyph glyph-name="J" unicode="J" horiz-adv-x="304" 
d="M15 9v100q16 0 31 0.5t24 9.5t12 22t3 45v306q0 37 -6 49.5t-29 17.5v108h223v-108q-21 -5 -28 -18t-7 -49v-336q0 -43 -4 -64t-27.5 -59.5t-105.5 -38.5q-39 0 -86 15z" />
    <glyph glyph-name="K" unicode="K" horiz-adv-x="548" 
d="M375 375l109 -208q18 -34 26 -43t25 -16v-108h-205v72q0 44 -4 58.5t-29 60.5l-72 133v-149q0 -36 6.5 -48.5t28.5 -18.5v-108h-223v108q22 6 28.5 18.5t6.5 48.5v317q0 37 -6 49.5t-29 17.5v108h224v-108q-22 -4 -29 -17t-7 -50v-117l73 114q22 34 27 49t5 47v82h188
v-108q-15 -3 -26.5 -12.5t-27.5 -33.5z" />
    <glyph glyph-name="L" unicode="L" horiz-adv-x="512" 
d="M490 300v-300h-452v108q22 6 28.5 18.5t6.5 48.5v317q0 37 -6 49.5t-29 17.5v108h223v-108q-21 -5 -28 -18t-7 -49v-367h41q58 0 72.5 11.5t14.5 55.5v108h136z" />
    <glyph glyph-name="M" unicode="M" horiz-adv-x="719" 
d="M363 350l76 317h242v-108q-21 -5 -28 -18t-7 -49v-317q0 -36 6.5 -48.5t28.5 -18.5v-108h-223v108q22 6 28.5 18.5t6.5 48.5v262l-116 -437h-74l-108 433v-258q0 -36 6.5 -48.5t28.5 -18.5v-108h-193v108q22 6 28.5 18.5t6.5 48.5v317q0 37 -6 49.5t-29 17.5v108h249z
" />
    <glyph glyph-name="N" unicode="N" horiz-adv-x="596" 
d="M384 0l-171 351v-176q0 -36 6.5 -48.5t28.5 -18.5v-108h-210v108q22 6 28.5 18.5t6.5 48.5v317q0 37 -6 49.5t-29 17.5v108h175l171 -346v171q0 37 -6 49.5t-29 17.5v108h210v-108q-21 -5 -28 -18t-7 -49v-492h-140z" />
    <glyph glyph-name="O" unicode="O" horiz-adv-x="516" 
d="M482 502v-332q0 -48 -7 -72.5t-45.5 -68t-173.5 -43.5q-72 0 -126 22t-75.5 56.5t-21.5 94.5v343q0 179 228 179q145 0 183 -56.5t38 -122.5zM186 460v-247q0 -49 17 -70.5t56 -21.5q70 0 70 85v258q0 82 -70 82q-73 0 -73 -86z" />
    <glyph glyph-name="P" unicode="P" horiz-adv-x="539" 
d="M226 204v-29q0 -36 5 -46.5t28 -19.5l2 -109h-223v108q22 6 28.5 18.5t6.5 48.5v317q0 37 -6 49.5t-29 17.5v108h276q82 0 125.5 -25.5t62.5 -71t19 -130.5q0 -129 -45.5 -182.5t-155.5 -53.5h-94zM226 522v-174h52q55 0 72.5 17.5t17.5 72.5q0 46 -16 65t-57 19h-69z
" />
    <glyph glyph-name="Q" unicode="Q" horiz-adv-x="517" 
d="M491 21l-58 -98q-44 20 -75 38t-41 29q-32 -4 -62 -4q-128 0 -167 41.5t-47 67t-8 64.5v333q0 40 5 63t39 74.5t179 51.5q144 0 179.5 -47t41 -70.5t5.5 -62.5v-334q0 -42 -7 -66t-28 -50l18 -13zM186 459v-248q0 -46 17 -68t55 -22t54.5 22.5t16.5 75.5v247q0 80 -71 80
q-72 0 -72 -87z" />
    <glyph glyph-name="R" unicode="R" horiz-adv-x="561" 
d="M533 108v-108h-167q-12 35 -12 98v63v28q0 43 -15 59t-57 16h-56v-89q0 -36 6.5 -48.5t28.5 -18.5v-108h-223v108q22 6 28.5 18.5t6.5 48.5v317q0 37 -6 49.5t-29 17.5v108h272q93 0 137 -29q35 -21 54 -63.5t19 -98.5q0 -69 -24 -105.5t-81 -51.5q50 -8 70.5 -30.5
t20.5 -71.5l-1 -43v-8q0 -27 5.5 -38.5t22.5 -19.5zM226 540v-157h59q45 0 63.5 18.5t18.5 62.5q0 42 -20.5 59t-71.5 17h-49z" />
    <glyph glyph-name="S" unicode="S" horiz-adv-x="517" 
d="M478 604v-157h-150l1 22q0 77 -73 77q-30 0 -49 -17t-19 -43q0 -30 17 -41t33.5 -19t26.5 -12l76 -29q84 -33 114.5 -73.5t30.5 -120.5q0 -95 -61 -150t-166 -55q-120 0 -228 77v167h155v-23q0 -86 74 -86q32 0 52 19t20 50q0 32 -20.5 50.5t-93.5 47.5t-92.5 38.5
t-55.5 41.5t-36 119q0 92 60 143t170 51q58 0 113.5 -20t100.5 -57z" />
    <glyph glyph-name="T" unicode="T" horiz-adv-x="549" 
d="M535 667v-272h-123v73q0 42 -12.5 58t-48.5 16v-367q0 -36 6.5 -48.5t28.5 -18.5v-108h-223v108q22 6 28.5 18.5t6.5 48.5v367q-35 -3 -48 -20t-13 -58v-69h-123v272h521z" />
    <glyph glyph-name="U" unicode="U" horiz-adv-x="557" 
d="M494 492v-278q0 -62 -4 -86t-24 -57.5t-70 -56.5t-116 -23q-105 0 -160.5 48.5t-55.5 140.5v38v274q0 37 -6 49.5t-29 17.5v108h223v-108q-21 -5 -28 -18t-7 -49v-278q0 -47 17 -68t56 -21q38 0 54 20.5t16 69.5v277q0 37 -6 49.5t-29 17.5v108h204v-108q-21 -5 -28 -18
t-7 -49z" />
    <glyph glyph-name="V" unicode="V" horiz-adv-x="516" 
d="M376 0h-231l-103 503q-6 30 -13.5 41.5t-23.5 14.5v108h228v-108q-36 0 -36 -31q0 -5 1.5 -13.5t4.5 -19.5l71 -330l65 333q2 7 3 15.5t1 15.5q0 30 -36 30v108h204v-108q-17 -5 -24 -15t-12 -33z" />
    <glyph glyph-name="W" unicode="W" horiz-adv-x="751" 
d="M626 0h-181l-68 322l-57 -322h-186l-91 503q-5 29 -13 41t-25 15v108h223v-108q-32 0 -32 -29l3 -31l50 -275l76 443h130l78 -443l45 280l2 23q0 29 -30 32v108h195v-110q-17 -2 -24 -12t-12 -36z" />
    <glyph glyph-name="X" unicode="X" horiz-adv-x="498" 
d="M346 331l97 -176q20 -34 43 -47v-108h-201v82q0 27 -3 40.5t-14 32.5l-37 66l-35 -69q-11 -21 -15 -36.5t-4 -38.5v-77h-166v108q19 10 31 33l113 217l-94 165q-8 15 -13.5 22.5t-17.5 13.5v108h188v-69q0 -25 3 -35.5t18 -39.5l29 -53l27 53q14 27 18 41t4 34v69h162
v-108q-12 -3 -17 -9t-16 -27z" />
    <glyph glyph-name="Y" unicode="Y" horiz-adv-x="495" 
d="M322 262v-87q0 -36 6.5 -48.5t28.5 -18.5v-108h-222v108q22 6 28.5 18.5t6.5 48.5v81l-124 256q-12 24 -20.5 34.5t-20.5 12.5v108h198v-77q0 -51 14 -80l42 -87l42 86q9 18 12 35t3 51v72h174v-108q-12 -3 -20 -11.5t-20 -34.5z" />
    <glyph glyph-name="Z" unicode="Z" horiz-adv-x="526" 
d="M486 667v-100l-255 -434h46q48 0 62.5 14.5t14.5 61.5v10h136v-219h-457v98l258 442h-60q-43 0 -56 -14t-13 -61v-23h-125v225h449z" />
    <glyph glyph-name="bracketleft" unicode="[" horiz-adv-x="300" 
d="M33 693h247v-91h-122v-696h122v-91h-247v878z" />
    <glyph glyph-name="backslash" unicode="\" horiz-adv-x="407" 
d="M30 667h109l274 -840h-110z" />
    <glyph glyph-name="bracketright" unicode="]" horiz-adv-x="300" 
d="M266 -185h-246v91h121v696h-121v91h246v-878z" />
    <glyph glyph-name="asciicircum" unicode="^" 
d="M141 334h-136l160 337h171l160 -337h-136l-109 233z" />
    <glyph glyph-name="underscore" unicode="_" 
d="M0 -46h500v-117h-500v117z" />
    <glyph glyph-name="grave" unicode="`" 
d="M139 671h105l38 -119h-64z" />
    <glyph glyph-name="a" unicode="a" horiz-adv-x="483" 
d="M49 333v118q106 52 199 52q82 0 130.5 -35t48.5 -95v-200q0 -46 4.5 -57t22.5 -15l4 -1v-100h-163v46q-72 -55 -144 -55q-58 0 -92.5 37.5t-34.5 99.5q0 53 26 84.5t93 59.5l103 37l41 14l1 21q0 63 -49 63q-50 0 -50 -62v-12h-140zM287 144v81l-45 -22q-39 -18 -54 -33
t-15 -33q0 -14 11 -26t26 -12q33 0 77 45z" />
    <glyph glyph-name="b" unicode="b" horiz-adv-x="498" 
d="M194 667v-200q36 20 63 28t57 8q48 0 84.5 -19.5t49.5 -46t16 -47.5t3 -71v-143q0 -58 -6.5 -81t-31 -47.5t-71 -40.5t-98.5 -16t-96.5 13t-108.5 47v443q0 42 -5 54.5t-23 17.5l-3 1v100h170zM194 373v-255q32 -20 67 -20q51 0 58 23.5t7.5 41.5t0.5 43v99q0 29 -2 40.5
t-14 31t-49 19.5q-33 0 -68 -23z" />
    <glyph glyph-name="c" unicode="c" horiz-adv-x="450" 
d="M420 449v-138h-131v12q0 16 -1 23.5t-5 19.5t-19 23t-32 11q-61 0 -61 -65v-171q0 -70 60 -70q19 0 34.5 11.5t19 23.5t3.5 26.5t1 31.5v15h131v-157q-75 -54 -189 -54q-111 0 -148.5 38t-44.5 59.5t-7 67.5v192q0 71 53 113t146 42q91 0 190 -54z" />
    <glyph glyph-name="d" unicode="d" horiz-adv-x="499" 
d="M444 667v-494q0 -44 4 -54t25 -18l2 -101h-170v32q-64 -41 -126 -41q-68 0 -100 31t-40 54t-8 65v213q0 71 38 110t109 39q54 0 127 -36v27q0 44 -4.5 55t-24.5 17l-2 101h170zM305 125v248q-37 23 -69 23q-30 0 -47.5 -19.5t-17.5 -53.5v-160q0 -65 61 -65q37 0 73 27z
" />
    <glyph glyph-name="e" unicode="e" horiz-adv-x="459" 
d="M429 217h-258v-65q0 -58 59 -58t59 71h140v-120q-97 -54 -195 -54q-117 0 -153 37t-43 59t-7 64v200q0 70 53 111t146 41q108 0 153.5 -44t45.5 -112v-130zM289 304v25q0 71 -58 71q-60 0 -60 -74v-22h118z" />
    <glyph glyph-name="f" unicode="f" horiz-adv-x="266" 
d="M261 670v-101l-15 1q-49 0 -49 -57v-20h56v-105h-56v-215q0 -45 3.5 -54.5t23.5 -17.5l3 -1v-100h-201v100l3 1q20 6 24 16t4 56v215h-31v105h31v28q0 80 33 118t104 38q25 0 67 -7z" />
    <glyph glyph-name="g" unicode="g" horiz-adv-x="499" 
d="M54 -138v114h135q0 -62 58 -62q57 0 57 68v49q-69 -34 -127 -34q-70 0 -108 39t-38 112v210q0 66 40 102t114 36q33 0 56 -8t63 -33v34h171v-101q-21 -7 -26 -17.5t-5 -55.5v-333q0 -52 -8 -76t-48.5 -59.5t-143.5 -35.5q-50 0 -91 11t-99 40zM304 125v239q-41 25 -70 25
q-63 0 -63 -63v-156q0 -70 66 -70q15 0 28.5 5t38.5 20z" />
    <glyph glyph-name="h" unicode="h" horiz-adv-x="522" 
d="M197 667v-201q39 21 65 29t57 8q67 0 106 -37t39 -101v-192q0 -44 5 -55.5t24 -16.5l3 -1v-100h-161q-11 29 -11 85v51v180q0 84 -63 84q-27 0 -64 -27v-200q0 -47 3 -55t24 -17l3 -1v-100h-201v100l3 1q19 5 23.5 17t4.5 55v321q0 42 -5 54.5t-23 17.5l-3 1v100h171z
" />
    <glyph glyph-name="i" unicode="i" horiz-adv-x="252" 
d="M196 493v-320q0 -44 3 -54t20 -16l6 -2l2 -101h-201v100l3 1q19 5 23.5 17t4.5 55v147q0 42 -5 54.5t-23 17.5l-3 1v100h170zM125 682q30 0 51.5 -21.5t21.5 -51.5t-21 -52t-52 -22t-52.5 21.5t-21.5 52.5q0 30 21.5 51.5t52.5 21.5z" />
    <glyph glyph-name="j" unicode="j" horiz-adv-x="239" 
d="M197 493v-518q0 -50 -5 -71t-31 -53.5t-101 -32.5q-19 0 -57 6v102l12 -1q23 0 32 14.5t9 53.5v327v11q0 35 -4 42q-5 15 -18 17l-7 2v101h170zM123 682q31 0 52.5 -21.5t21.5 -52.5t-21.5 -52.5t-52.5 -21.5t-52.5 21.5t-21.5 52.5t21.5 52.5t52.5 21.5z" />
    <glyph glyph-name="k" unicode="k" horiz-adv-x="479" 
d="M453 493v-99q-22 -5 -31.5 -12.5t-35.5 -36.5l-53 -60l69 -127q24 -46 63 -60v-98h-123q-13 13 -23 27.5t-29 46.5l-93 160v-61q0 -44 2.5 -51t11.5 -14l8 -5l7 -2v-101h-200v100l3 1q18 5 23 17.5t5 54.5v321q0 41 -5 54t-23 18l-3 1v100h171v-340l53 59q16 19 21 32.5
t5 40.5v34h177z" />
    <glyph glyph-name="l" unicode="l" horiz-adv-x="251" 
d="M196 667v-494q0 -45 4 -55t25 -17l2 -101h-201v100l3 1q19 5 23.5 17t4.5 55v321q0 42 -5 54.5t-23 17.5l-3 1v100h170z" />
    <glyph glyph-name="m" unicode="m" horiz-adv-x="753" 
d="M193 493v-35q41 28 61.5 36t54.5 8q62 0 114 -48q65 48 134 48q66 0 103.5 -35.5t37.5 -98.5v-195q0 -47 3 -55.5t25 -16.5l2 -101h-161q-5 18 -7 42t-2 73v198q0 44 -13 63t-43 19q-23 0 -52 -22v-200q0 -45 4 -56t24 -16l3 -1v-100h-161q-6 21 -8 41t-2 67v200
q0 29 -2 40.5t-14 29t-43 17.5q-26 0 -55 -22v-200q0 -44 4.5 -55.5t23.5 -16.5l3 -1v-100h-201v100l3 1q18 5 23 17.5t5 54.5v147q0 42 -5 54.5t-23 17.5l-3 1v100h167z" />
    <glyph glyph-name="n" unicode="n" horiz-adv-x="521" 
d="M197 493v-30q36 23 62 31t61 8q68 0 106 -37t38 -102v-190q0 -42 5 -54.5t24 -17.5l3 -1v-100h-160q-12 39 -12 84v42v194q0 35 -16 55t-46 20q-15 0 -28.5 -5t-36.5 -18v-199q0 -43 5 -55.5t23 -16.5l4 -1v-100h-203v100l3 1q18 5 23 17.5t5 54.5v147q0 42 -5 54.5
t-23 17.5l-3 1v100h171z" />
    <glyph glyph-name="o" unicode="o" horiz-adv-x="458" 
d="M428 343v-194q0 -44 -10 -68t-35.5 -45t-67 -33t-88.5 -12q-196 0 -196 152v211q0 69 52.5 108.5t142.5 39.5q124 0 163 -47.5t39 -111.5zM171 337v-176q0 -67 60 -67q57 0 57 67v176q0 62 -60 62q-25 0 -41 -17t-16 -45z" />
    <glyph glyph-name="p" unicode="p" horiz-adv-x="499" 
d="M195 493v-33q38 24 63.5 33t58.5 9q78 0 108 -33.5t37 -56t7 -59.5v-214q0 -72 -39 -110t-112 -38q-30 0 -51 6t-72 29v-26q0 -45 3 -52t11 -13l9 -5q2 0 3.5 -0.5t2.5 -1.5l1 -101h-200v100q21 7 25.5 18.5t4.5 54.5v320q0 43 -4 54t-24 18l-2 101h170zM195 368v-248
q36 -22 68 -22q66 0 66 77v162q0 26 -17 42t-45 16q-17 0 -34 -6.5t-38 -20.5z" />
    <glyph glyph-name="q" unicode="q" horiz-adv-x="495" 
d="M444 493v-493q0 -47 3 -55t25 -17l1 -101h-201v100l4 1q7 1 13.5 5.5t10 10.5t4.5 12.5t1 43.5v27q-68 -36 -125 -36q-71 0 -110 39t-39 111v228q0 59 41 96t106 37q64 0 126 -42v33h140zM304 121v248q-39 26 -70 26q-35 0 -49 -17t-14 -60v-131q0 -50 17.5 -70t47.5 -20
t68 24z" />
    <glyph glyph-name="r" unicode="r" horiz-adv-x="311" 
d="M293 493v-147q-16 4 -28 4q-67 0 -67 -85v-92q0 -44 4 -54t24 -18l2 -101h-202v100l4 1q17 4 22.5 18t5.5 54v147v11q0 33 -3 42l-10 12l-9 5l-6 2v101h163v-40q31 44 71 44z" />
    <glyph glyph-name="s" unicode="s" horiz-adv-x="440" 
d="M402 459v-125h-128q0 37 -11.5 51.5t-40.5 14.5q-20 0 -33 -12t-13 -33q0 -24 19 -36t26 -14.5t75.5 -23.5t92.5 -50t24 -88q0 -152 -182 -152q-94 0 -202 37v133h136v-10q0 -57 51 -57q20 0 34 13t14 34q0 23 -16.5 35.5t-87.5 33.5t-102 50.5t-31 91.5q0 70 51.5 110.5
t140.5 40.5q86 0 183 -44z" />
    <glyph glyph-name="t" unicode="t" horiz-adv-x="269" 
d="M245 493v-106h-59v-206q0 -44 11 -62t38 -18h10v-100q-39 -9 -66 -9q-89 0 -109 44t-22 61t-2 72v218h-25v106h25v91l140 42v-133h59z" />
    <glyph glyph-name="u" unicode="u" horiz-adv-x="514" 
d="M457 493v-320q0 -43 5 -55.5t24 -16.5l4 -1v-100h-172v30q-39 -22 -66.5 -30t-60.5 -8q-76 0 -108.5 41.5t-32.5 100.5v186q0 42 -5 55.5t-23 16.5l-4 1v100h161q7 -24 9 -41t2 -61v-218q0 -35 16 -55t47 -20q28 0 65 24v198q0 42 -5 55t-23 17l-3 1v100h170z" />
    <glyph glyph-name="v" unicode="v" horiz-adv-x="457" 
d="M318 0h-176l-107 361q-5 16 -10 22t-18 10v100h197v-101q-22 -3 -22 -25l4 -24l49 -181l48 186l4 23q0 17 -19 21v101h183v-101q-15 -4 -20.5 -11.5t-12.5 -32.5z" />
    <glyph glyph-name="w" unicode="w" horiz-adv-x="663" 
d="M525 0h-132l-44 163l-17 73l-4 -18l-6 -25l-8 -30l-45 -163h-131l-102 359q-8 25 -29 34v100h198v-100q-21 -7 -21 -26l2 -20l32 -145l78 291h88l71 -291l36 157l1 9q0 15 -18 25v100h183v-100q-23 -9 -31 -34z" />
    <glyph glyph-name="x" unicode="x" horiz-adv-x="434" 
d="M291 261l98 -134q16 -24 36 -29v-98h-174v59q0 30 -8 44t-32 43l-9 12l-9 -11q-26 -33 -33 -48t-7 -40v-59h-144v98q7 3 12 7.5t19 21.5l102 119l-95 119q-11 14 -15.5 18.5t-13.5 9.5v100h171v-57q0 -22 4 -33t18 -28l22 -28l18 23q18 24 22 34t4 32v57h138v-100
q-19 -7 -37 -28z" />
    <glyph glyph-name="y" unicode="y" horiz-adv-x="455" 
d="M161 -17l-123 369q-7 21 -12 28t-19 14v99h195v-99q-20 -5 -20 -22q0 -11 4 -26l50 -188l48 194l2 17q0 18 -19 25v99h182v-99q-14 -6 -20.5 -16t-12.5 -32l-97 -346q-26 -94 -66 -133.5t-110 -39.5q-14 0 -23 1t-25 5v107q28 0 42 9t24 34z" />
    <glyph glyph-name="z" unicode="z" horiz-adv-x="453" 
d="M430 0h-407v96l231 301h-51q-34 0 -47.5 -11.5t-13.5 -40.5v-11h-119v159h407v-86l-237 -311h45q39 0 56 15t17 51v8h119v-170z" />
    <glyph glyph-name="braceleft" unicode="{" horiz-adv-x="328" 
d="M192 508v-123q0 -50 -12 -75.5t-48 -50.5q34 -22 47 -49t13 -77v-130q0 -47 13 -58t71 -11h15v-114l-65 -2h-11q-83 0 -118 33t-35 111v161q0 41 -12.5 60.5t-42.5 25.5v110q55 11 55 76v155q0 79 34.5 111.5t118.5 32.5l43 -1l33 -1v-115l-21 1q-52 0 -65 -11t-13 -59z
" />
    <glyph glyph-name="bar" unicode="|" 
d="M185 667h130v-834h-130v834z" />
    <glyph glyph-name="braceright" unicode="}" horiz-adv-x="328" 
d="M137 3v130q0 50 12.5 76.5t47.5 49.5q-36 26 -48 50.5t-12 75.5v123q0 47 -12.5 58.5t-66.5 11.5l-21 -1v115l66 2h11q83 0 118 -33t35 -111v-155q0 -65 54 -76v-110q-29 -6 -41.5 -25.5t-12.5 -60.5v-161q0 -79 -34.5 -111.5t-118.5 -32.5l-43 1l-34 1v114h15
q59 0 72 10t13 59z" />
    <glyph glyph-name="asciitilde" unicode="~" horiz-adv-x="667" 
d="M161 560l-71 47l8 17q30 68 61.5 95t82.5 27q33 0 78.5 -17t70 -25t42.5 -8q23 0 38 11t32 41l74 -43q-23 -48 -39 -70.5t-47 -43t-73 -20.5q-22 0 -38 5t-59.5 21t-59 20t-26.5 4q-25 0 -39.5 -12t-34.5 -49z" />
    <glyph glyph-name="nonbreakingspace" unicode="&#xa0;" 
 />
    <glyph glyph-name="exclamdown" unicode="&#xa1;" horiz-adv-x="294" 
d="M149 502q33 0 55 -22t22 -55t-22 -55t-55 -22t-55 22t-22 55t22 55t55 22zM110 293h75l43 -342q3 -17 4.5 -30t1.5 -21q0 -36 -24 -58t-63 -22t-63 21t-24 56l6 57z" />
    <glyph glyph-name="cent" unicode="&#xa2;" horiz-adv-x="519" 
d="M454 535v-136h-132v12q0 78 -58 78q-60 0 -60 -66v-172q0 -71 61 -71q27 0 42 18t15 52v25v15h132v-156q-43 -34 -120 -51v-83h-130v83q-68 13 -96.5 41.5t-35.5 50.5t-7 68v193q0 122 139 148v83h130v-83q73 -19 120 -49z" />
    <glyph glyph-name="sterling" unicode="&#xa3;" horiz-adv-x="519" 
d="M494 619v-164h-136q0 48 -17 69t-56 21q-71 0 -71 -78v-70h184v-114h-184v-157h76q34 0 47.5 14.5t13.5 50.5h143v-191h-468v107l7 1q4 2 7.5 3t6.5 4q10 6 12 14.5t2 50.5v103h-35v114h35v44q0 61 2 80t19 58t73 71t132 32q103 0 207 -63z" />
    <glyph glyph-name="currency" unicode="&#xa4;" horiz-adv-x="571" 
d="M461 247l79 -79l-72 -73l-79 79q-52 -28 -104 -28q-53 0 -103 28l-79 -79l-73 73l79 79q-28 44 -28 104q0 58 28 103l-79 79l73 72l79 -79q47 29 103 29q55 0 104 -29l79 79l72 -72l-79 -79q28 -47 28 -104t-28 -103zM285 436q-35 0 -60 -24t-25 -60q0 -35 25 -60t60 -25
q34 0 59 25t25 60t-24.5 59.5t-59.5 24.5z" />
    <glyph glyph-name="yen" unicode="&#xa5;" horiz-adv-x="519" 
d="M166 300h-92v67h60l-69 147q-20 41 -41 45v108h191v-103q0 -28 2 -36.5t15 -38.5l38 -79l39 79q19 38 19 77v101h166v-108q-12 -5 -20 -14.5t-20 -31.5l-75 -146h60v-67h-94l-20 -38v-25h114v-67h-114v-13q0 -22 5.5 -30.5t26.5 -16.5l3 -2v-108h-209v108l14 6
q22 7 22 43v13h-113v67h113v19z" />
    <glyph glyph-name="brokenbar" unicode="&#xa6;" 
d="M185 667h130v-347h-130v347zM185 153h130v-320h-130v320z" />
    <glyph glyph-name="section" unicode="&#xa7;" horiz-adv-x="519" 
d="M430 642v-145h-113q0 71 -54 71q-24 0 -39.5 -12.5t-15.5 -32.5q0 -19 15 -31t63.5 -30.5t105 -49t82.5 -56.5t26 -83q0 -83 -89 -133q35 -28 50 -55.5t15 -63.5q0 -78 -56 -124t-152 -46q-104 0 -196 43v159h124v-16q0 -38 15 -55t51 -17q25 0 41 14t16 35q0 33 -41 51
q-13 7 -28 12.5t-54.5 21t-68 28.5t-51 27t-40.5 47.5t-18 73.5q0 92 95 142q-53 50 -53 106q0 65 56 111t137 46q98 0 177 -38zM334 297l-158 69q-48 -27 -48 -60q0 -24 31 -39l175 -80q44 29 44 63q0 28 -44 47z" />
    <glyph glyph-name="dieresis" unicode="&#xa8;" 
d="M336 668q23 0 40 -17t17 -40q0 -24 -17 -41t-40 -17q-24 0 -41 17t-17 41q0 23 17 40t41 17zM165 666q23 0 40 -17t17 -40t-17 -40t-40 -17t-40 17t-17 40t17 40t40 17z" />
    <glyph glyph-name="copyright" unicode="&#xa9;" horiz-adv-x="760" 
d="M515 296v-139q-75 -32 -140 -32q-93 0 -115.5 31t-25.5 43.5t-3 42.5v191q0 108 143 108q73 0 141 -30v-116h-98v14q0 45 -42 45q-41 0 -41 -51v-142q0 -49 43 -49q22 0 31 11t9 38v35h98zM382 682q142 0 243 -102t101 -246q0 -143 -101 -246t-243 -103
q-146 0 -247.5 101.5t-101.5 247.5q0 145 101.5 246.5t247.5 101.5zM381 619q-117 0 -198 -83t-81 -203q0 -119 81.5 -202.5t197.5 -83.5q113 0 194 84t81 202q0 117 -81 201.5t-194 84.5z" />
    <glyph glyph-name="ordfeminine" unicode="&#xaa;" horiz-adv-x="351" 
d="M30 279v64h287v-64h-287zM49 573v75q72 32 129 32q52 0 84 -22t32 -58v-118q0 -24 2 -30.5t13 -8.5l5 -1v-65h-110v24q-43 -30 -87 -30q-38 0 -61 23t-23 61q0 52 50 77q19 8 67 24.5t49 16.5l1 10q0 34 -28 34q-16 0 -22 -7t-6 -27v-7zM199 467v40l-24 -10
q-41 -20 -41 -37q0 -6 5 -13t16 -6q18 0 44 26z" />
    <glyph glyph-name="guillemotleft" unicode="&#xab;" horiz-adv-x="336" 
d="M217 397h79l-52 -132l52 -132h-79l-53 132zM92 397h80l-53 -132l53 -132h-80l-52 132z" />
    <glyph glyph-name="logicalnot" unicode="&#xac;" 
d="M336 0v150h-303v117h433v-267h-130z" />
    <glyph glyph-name="registered" unicode="&#xae;" horiz-adv-x="760" 
d="M539 202v-69h-111q-9 23 -9 57v42v16q0 23 -9 32t-33 9h-31v-50q0 -21 3.5 -27t17.5 -9v-70h-147v70q16 4 19.5 9.5t3.5 26.5v188q0 21 -3.5 27t-18.5 9v70h174q70 0 103 -28t33 -88q0 -71 -51 -90l-4 -1l6 -2q40 -12 40 -59l-1 -26v-4q0 -16 3 -21.5t15 -11.5zM346 452
v-86h33q27 0 37.5 9.5t10.5 34.5t-11.5 33.5t-43.5 8.5h-26zM382 682q142 0 243 -102t101 -246q0 -143 -101 -246t-243 -103q-146 0 -247.5 101.5t-101.5 247.5q0 145 101.5 246.5t247.5 101.5zM381 619q-117 0 -198 -83t-81 -203q0 -119 81.5 -202.5t197.5 -83.5
q113 0 194 84t81 202q0 117 -81 201.5t-194 84.5z" />
    <glyph glyph-name="macron" unicode="&#xaf;" horiz-adv-x="499" 
d="M383 641v-69h-267v69h267z" />
    <glyph glyph-name="macron" unicode="&#x2c9;" horiz-adv-x="499" 
d="M383 641v-69h-267v69h267z" />
    <glyph glyph-name="degree" unicode="&#xb0;" horiz-adv-x="520" 
d="M260 661q61 0 104 -42t43 -102t-43 -103t-104 -43q-62 0 -104.5 42.5t-42.5 103.5q0 60 43 102t104 42zM260 593q-31 0 -54 -22t-23 -54q0 -33 22 -55t55 -22q32 0 54.5 22.5t22.5 54.5t-22 54t-55 22z" />
    <glyph glyph-name="plusminus" unicode="&#xb1;" horiz-adv-x="520" 
d="M474 287h-147v-154h-133v154h-147v120h147v153h133v-153h147v-120zM474 -27h-427v120h427v-120z" />
    <glyph glyph-name="twosuperior" unicode="&#xb2;" horiz-adv-x="344" 
d="M318 397v-131h-292v94q0 42 14 57.5t27.5 26t26.5 20.5l20 14l20 15l20 15q40 29 47.5 36.5t7.5 18.5q0 32 -38 32q-39 0 -39 -41v-31h-100v111q37 21 68.5 29t78.5 8q70 0 103 -27t33 -84q0 -49 -29 -77l-44 -34l-45 -33q-48 -34 -56.5 -43.5t-8.5 -25.5h45q22 0 27 6
t5 34v10h109z" />
    <glyph glyph-name="threesuperior" unicode="&#xb3;" horiz-adv-x="344" 
d="M29 543v95q71 37 142 37t108 -28t37 -82q0 -66 -66 -90q69 -21 69 -101q0 -115 -153 -115q-33 0 -65.5 8t-75.5 27v101h104v-11q0 -39 42 -39q18 0 29 12t11 32q0 43 -52 43h-60v74h60q52 0 52 42q0 18 -12 29t-32 11q-16 0 -27 -10t-11 -27v-8h-100z" />
    <glyph glyph-name="acute" unicode="&#xb4;" 
d="M362 671l-79 -119h-64l38 119h105z" />
    <glyph glyph-name="mu" unicode="&#xb5;" 
d="M27 -173v653h129v-254q0 -45 7 -68t26 -41q29 -24 65 -24q93 0 93 137v250h129v-480h-129v56q-34 -66 -94 -66q-32 0 -54.5 14t-42.5 47v-224h-129z" />
    <glyph glyph-name="paragraph" unicode="&#xb6;" horiz-adv-x="520" 
d="M178 69v230l-26 1q-44 0 -64 7t-39.5 29.5t-26.5 55.5t-7 104q0 100 33 135.5t126 35.5h331v-108q-17 -10 -21 -22t-4 -51v-451q0 -42 3.5 -52.5t21.5 -20.5v-108l-134 -1v711h-83v-711l-143 1v108q19 5 26 17t7 42v48z" />
    <glyph glyph-name="periodcentered" unicode="&#xb7;" horiz-adv-x="252" 
d="M127 331q30 0 51 -21t21 -51t-21 -51t-51 -21t-51 21t-21 51t21 51t51 21z" />
    <glyph glyph-name="periodcentered" unicode="&#x2219;" horiz-adv-x="252" 
d="M127 331q30 0 51 -21t21 -51t-21 -51t-51 -21t-51 21t-21 51t21 51t51 21z" />
    <glyph glyph-name="cedilla" unicode="&#xb8;" horiz-adv-x="499" 
d="M262 0l-16 -41q40 0 50 -10t10 -47v-13q0 -48 -11.5 -61.5t-52.5 -13.5q-27 0 -37.5 9.5t-10.5 34.5v15h35q0 -21 14 -21q10 0 12 7t2 45q0 23 -15 23q-13 0 -13 -20h-35l29 93h39z" />
    <glyph glyph-name="onesuperior" unicode="&#xb9;" horiz-adv-x="344" 
d="M223 667v-294q0 -21 3 -26t20 -10v-70h-147v70q14 4 17.5 10.5t3.5 25.5v188q0 21 -3 26t-18 10v70h124z" />
    <glyph glyph-name="ordmasculine" unicode="&#xba;" horiz-adv-x="351" 
d="M30 279v64h287v-64h-287zM302 583v-115q0 -96 -130 -96q-127 0 -127 93v124q0 43 34 67t96 24q127 0 127 -97zM140 579v-103q0 -37 35 -37q32 0 32 37v103q0 34 -34 34q-33 0 -33 -34z" />
    <glyph glyph-name="guillemotright" unicode="&#xbb;" horiz-adv-x="336" 
d="M244 133h-80l52 132l-52 132h80l52 -132zM120 133h-80l53 132l-53 132h80l52 -132z" />
    <glyph glyph-name="onequarter" unicode="&#xbc;" horiz-adv-x="842" 
d="M223 667v-294q0 -21 3 -26t20 -10v-70h-147v70q14 4 17.5 10.5t3.5 25.5v188q0 21 -3 26t-18 10v70h124zM564 667l-206 -667h-80l207 667h79zM789 400v-215h27v-81h-27q0 -18 4 -25t17 -9v-70h-147v70q13 2 18 9t5 25h-171v89l148 207h126zM686 185v51v26l1 24l-1 14h-8
q-8 -23 -18 -39t-19 -31l-28 -45h73z" />
    <glyph glyph-name="onehalf" unicode="&#xbd;" horiz-adv-x="842" 
d="M223 667v-294q0 -21 3 -26t20 -10v-70h-147v70q14 4 17.5 10.5t3.5 25.5v188q0 21 -3 26t-18 10v70h124zM564 667l-206 -667h-80l207 667h79zM816 130v-130h-292v94q0 40 13 55.5t22.5 23.5t32.5 24l60 45q39 28 47 36t8 19q0 32 -38 32q-39 0 -39 -41v-31h-100v111
q37 21 68.5 29t78.5 8q70 0 103 -27t33 -84q0 -35 -11 -54t-47 -46l-30 -23l-30 -22l-15 -10l-14 -11l-14 -10q-22 -17 -22 -37h45q22 0 27 6t5 33v10h109z" />
    <glyph glyph-name="threequarters" unicode="&#xbe;" horiz-adv-x="842" 
d="M29 543v95q71 37 142 37t108 -28t37 -82q0 -66 -66 -90q69 -21 69 -101q0 -115 -153 -115q-33 0 -65.5 8t-75.5 27v101h104v-11q0 -39 42 -39q18 0 29 12t11 32q0 43 -52 43h-60v74h60q52 0 52 42q0 18 -12 29t-32 11q-16 0 -27 -10t-11 -27v-8h-100zM564 667l-206 -667
h-80l207 667h79zM788 400v-215h28v-81h-28v-6q0 -25 22 -28v-70h-147v70q22 4 22 34h-170v89l148 207h125zM685 185v51v26l1 24l-1 14h-7q-8 -20 -18 -37.5t-19 -32.5l-28 -45h72z" />
    <glyph glyph-name="questiondown" unicode="&#xbf;" horiz-adv-x="497" 
d="M304 506q33 0 55 -22t22 -55q0 -32 -22.5 -54.5t-54.5 -22.5t-54.5 22.5t-22.5 54.5q0 33 22 55t55 22zM463 39v-156q-91 -64 -213 -64q-105 0 -161 47t-56 137q0 47 11 79.5t29 49.5t35.5 29.5t63 42.5t55 43.5t9.5 44.5h143v-10q0 -64 -3 -81t-16 -34t-23.5 -25
t-71.5 -51t-73 -57t-12 -35q0 -28 18 -45t48 -17q59 0 67 45q4 16 4 57h146z" />
    <glyph glyph-name="Agrave" unicode="&#xc0;" horiz-adv-x="516" 
d="M370 667l102 -499q6 -30 13.5 -41.5t25.5 -18.5v-108h-228v108q34 3 34 30l-3 22l-5 29h-129l-6 -29l-2 -18q0 -17 8.5 -25.5t27.5 -8.5v-108h-203v108q16 7 24 20.5t14 44.5l96 494h231zM288 286l-48 218l-42 -218h90zM153 834h105l38 -119h-64z" />
    <glyph glyph-name="Aacute" unicode="&#xc1;" horiz-adv-x="516" 
d="M370 667l102 -499q6 -30 13.5 -41.5t25.5 -18.5v-108h-228v108q34 3 34 30l-3 22l-5 29h-129l-6 -29l-2 -18q0 -17 8.5 -25.5t27.5 -8.5v-108h-203v108q16 7 24 20.5t14 44.5l96 494h231zM288 286l-48 218l-42 -218h90zM363 834l-79 -119h-64l38 119h105z" />
    <glyph glyph-name="Acircumflex" unicode="&#xc2;" horiz-adv-x="516" 
d="M370 667l102 -499q6 -30 13.5 -41.5t25.5 -18.5v-108h-228v108q34 3 34 30l-3 22l-5 29h-129l-6 -29l-2 -18q0 -17 8.5 -25.5t27.5 -8.5v-108h-203v108q16 7 24 20.5t14 44.5l96 494h231zM288 286l-48 218l-42 -218h90zM309 833l76 -118h-80l-48 76l-48 -76h-78l78 118
h100z" />
    <glyph glyph-name="Atilde" unicode="&#xc3;" horiz-adv-x="516" 
d="M370 667l102 -499q6 -30 13.5 -41.5t25.5 -18.5v-108h-228v108q34 3 34 30l-3 22l-5 29h-129l-6 -29l-2 -18q0 -17 8.5 -25.5t27.5 -8.5v-108h-203v108q16 7 24 20.5t14 44.5l96 494h231zM288 286l-48 218l-42 -218h90zM333 805h62q-11 -90 -76 -90q-11 0 -32.5 6
t-42 11.5t-31.5 5.5q-23 0 -29 -21h-63q0 43 21 67t55 24q19 0 45.5 -9t40 -12.5t20.5 -3.5q21 0 30 22z" />
    <glyph glyph-name="Adieresis" unicode="&#xc4;" horiz-adv-x="516" 
d="M370 667l102 -499q6 -30 13.5 -41.5t25.5 -18.5v-108h-228v108q34 3 34 30l-3 22l-5 29h-129l-6 -29l-2 -18q0 -17 8.5 -25.5t27.5 -8.5v-108h-203v108q16 7 24 20.5t14 44.5l96 494h231zM288 286l-48 218l-42 -218h90zM344 831q23 0 40 -17t17 -40q0 -24 -17 -41
t-40 -17q-24 0 -41 17t-17 41q0 23 17 40t41 17zM173 831q23 0 40 -17t17 -40t-17 -40t-40 -17t-40 17t-17 40t17 40t40 17z" />
    <glyph glyph-name="Aring" unicode="&#xc5;" horiz-adv-x="516" 
d="M370 667l102 -499q6 -30 13.5 -41.5t25.5 -18.5v-108h-228v108q34 3 34 30l-3 22l-5 29h-129l-6 -29l-2 -18q0 -17 8.5 -25.5t27.5 -8.5v-108h-203v108q16 7 24 20.5t14 44.5l96 494h231zM288 286l-48 218l-42 -218h90zM258 894q38 0 65 -27t27 -66q0 -38 -26.5 -65.5
t-65.5 -27.5t-66 27t-27 66q0 38 26.5 65.5t66.5 27.5zM258 835q-14 0 -24 -10t-10 -24q0 -15 10 -25t24 -10t24 10t10 25q0 14 -10 24t-24 10z" />
    <glyph glyph-name="AE" unicode="&#xc6;" horiz-adv-x="803" 
d="M770 667v-206h-146v11q0 39 -15.5 51.5t-65.5 12.5h-50v-138h177v-113h-177v-158h51q52 0 66 14t14 67v14h146v-222h-465v110q21 5 28 17.5t7 47.5v8h-144l-12 -25q-7 -14 -7 -24q0 -19 23 -24v-110h-200v110q17 5 25 13.5t19 34.5l204 509h522zM340 540l-104 -256h104
v256z" />
    <glyph glyph-name="Ccedilla" unicode="&#xc7;" horiz-adv-x="514" 
d="M208 -99l25 84q-46 0 -90.5 16t-69 42t-32.5 53t-8 83v324q0 178 223 178q115 0 218 -49v-188h-144v18q0 84 -69 84q-73 0 -73 -94v-241q0 -50 15 -70t54 -20q41 0 57 20t16 71v53h144v-226q-50 -26 -100.5 -40t-99.5 -14l-12 -29q43 0 53.5 -10.5t10.5 -50.5v-13
q0 -51 -12 -65t-55 -14q-30 0 -40.5 9.5t-10.5 36.5v16h36q0 -13 3 -18t12 -5q11 0 13 7t2 48q0 25 -16 25q-14 0 -14 -21h-36z" />
    <glyph glyph-name="Egrave" unicode="&#xc8;" horiz-adv-x="542" 
d="M509 667v-206h-144v8v5q0 36 -14 49t-54 13h-71v-135h185v-113h-185v-161h65q49 0 61.5 14.5t12.5 72.5v7h144v-221h-471v108q22 6 28.5 18.5t6.5 48.5v317q0 37 -6 49.5t-29 17.5v108h471zM140 834h105l38 -119h-64z" />
    <glyph glyph-name="Eacute" unicode="&#xc9;" horiz-adv-x="542" 
d="M509 667v-206h-144v8v5q0 36 -14 49t-54 13h-71v-135h185v-113h-185v-161h65q49 0 61.5 14.5t12.5 72.5v7h144v-221h-471v108q22 6 28.5 18.5t6.5 48.5v317q0 37 -6 49.5t-29 17.5v108h471zM336 834l-79 -119h-64l38 119h105z" />
    <glyph glyph-name="Ecircumflex" unicode="&#xca;" horiz-adv-x="542" 
d="M509 667v-206h-144v8v5q0 36 -14 49t-54 13h-71v-135h185v-113h-185v-161h65q49 0 61.5 14.5t12.5 72.5v7h144v-221h-471v108q22 6 28.5 18.5t6.5 48.5v317q0 37 -6 49.5t-29 17.5v108h471zM322 833l76 -118h-80l-48 76l-48 -76h-78l78 118h100z" />
    <glyph glyph-name="Edieresis" unicode="&#xcb;" horiz-adv-x="542" 
d="M509 667v-206h-144v8v5q0 36 -14 49t-54 13h-71v-135h185v-113h-185v-161h65q49 0 61.5 14.5t12.5 72.5v7h144v-221h-471v108q22 6 28.5 18.5t6.5 48.5v317q0 37 -6 49.5t-29 17.5v108h471zM357 831q23 0 40 -17t17 -40q0 -24 -17 -41t-40 -17q-24 0 -41 17t-17 41
q0 23 17 40t41 17zM186 831q23 0 40 -17t17 -40t-17 -40t-40 -17t-40 17t-17 40t17 40t40 17z" />
    <glyph glyph-name="Igrave" unicode="&#xcc;" horiz-adv-x="301" 
d="M73 175v317q0 37 -6 49.5t-29 17.5v108h223v-108q-21 -5 -28 -18t-7 -49v-317q0 -36 6.5 -48.5t28.5 -18.5v-108h-223v108q22 6 28.5 18.5t6.5 48.5zM45 834h105l38 -119h-64z" />
    <glyph glyph-name="Iacute" unicode="&#xcd;" horiz-adv-x="301" 
d="M73 175v317q0 37 -6 49.5t-29 17.5v108h223v-108q-21 -5 -28 -18t-7 -49v-317q0 -36 6.5 -48.5t28.5 -18.5v-108h-223v108q22 6 28.5 18.5t6.5 48.5zM262 834l-79 -119h-64l38 119h105z" />
    <glyph glyph-name="Icircumflex" unicode="&#xce;" horiz-adv-x="301" 
d="M74 175v317q0 37 -6 49.5t-29 17.5v108h223v-108q-21 -5 -28 -18t-7 -49v-317q0 -36 6.5 -48.5t28.5 -18.5v-108h-223v108q22 6 28.5 18.5t6.5 48.5zM202 833l76 -118h-80l-48 76l-48 -76h-78l78 118h100z" />
    <glyph glyph-name="Idieresis" unicode="&#xcf;" horiz-adv-x="301" 
d="M74 175v317q0 37 -6 49.5t-29 17.5v108h223v-108q-21 -5 -28 -18t-7 -49v-317q0 -36 6.5 -48.5t28.5 -18.5v-108h-223v108q22 6 28.5 18.5t6.5 48.5zM223 831q23 0 40 -17t17 -40q0 -24 -17 -41t-40 -17q-24 0 -41 17t-17 41q0 23 17 40t41 17zM79 831q23 0 40 -17
t17 -40t-17 -40t-40 -17t-40 17t-17 40t17 40t40 17z" />
    <glyph glyph-name="Eth" unicode="&#xd0;" horiz-adv-x="549" 
d="M72 288h-35v112h35v92q0 35 -5 46t-26 19l-4 2v108h257q58 0 92 -8t82 -44t48 -146v-232q0 -92 -20 -138.5t-57 -66t-58 -25t-50 -5.5l-38 -1l-44 -1h-212v108q23 8 29 19t6 47v114zM225 536v-136h71v-112h-71v-155h51q56 0 71.5 15.5t15.5 70.5v231q0 52 -17 69t-68 17
h-53z" />
    <glyph glyph-name="Ntilde" unicode="&#xd1;" horiz-adv-x="596" 
d="M384 0l-171 351v-176q0 -36 6.5 -48.5t28.5 -18.5v-108h-210v108q22 6 28.5 18.5t6.5 48.5v317q0 37 -6 49.5t-29 17.5v108h175l171 -346v171q0 37 -6 49.5t-29 17.5v108h210v-108q-21 -5 -28 -18t-7 -49v-492h-140zM373 805h62q-11 -90 -76 -90q-11 0 -32.5 6t-42 11.5
t-31.5 5.5q-23 0 -29 -21h-63q0 43 21 67t55 24q19 0 45.5 -9t40 -12.5t20.5 -3.5q21 0 30 22z" />
    <glyph glyph-name="Ograve" unicode="&#xd2;" horiz-adv-x="516" 
d="M482 502v-332q0 -48 -7 -72.5t-45.5 -68t-173.5 -43.5q-72 0 -126 22t-75.5 56.5t-21.5 94.5v343q0 179 228 179q145 0 183 -56.5t38 -122.5zM186 460v-247q0 -49 17 -70.5t56 -21.5q70 0 70 85v258q0 82 -70 82q-73 0 -73 -86zM153 834h105l38 -119h-64z" />
    <glyph glyph-name="Oacute" unicode="&#xd3;" horiz-adv-x="516" 
d="M482 502v-332q0 -48 -7 -72.5t-45.5 -68t-173.5 -43.5q-72 0 -126 22t-75.5 56.5t-21.5 94.5v343q0 179 228 179q145 0 183 -56.5t38 -122.5zM186 460v-247q0 -49 17 -70.5t56 -21.5q70 0 70 85v258q0 82 -70 82q-73 0 -73 -86zM369 834l-79 -119h-64l38 119h105z" />
    <glyph glyph-name="Ocircumflex" unicode="&#xd4;" horiz-adv-x="516" 
d="M482 502v-332q0 -48 -7 -72.5t-45.5 -68t-173.5 -43.5q-72 0 -126 22t-75.5 56.5t-21.5 94.5v343q0 179 228 179q145 0 183 -56.5t38 -122.5zM186 460v-247q0 -49 17 -70.5t56 -21.5q70 0 70 85v258q0 82 -70 82q-73 0 -73 -86zM309 833l76 -118h-80l-48 76l-48 -76h-78
l78 118h100z" />
    <glyph glyph-name="Otilde" unicode="&#xd5;" horiz-adv-x="516" 
d="M482 502v-332q0 -48 -7 -72.5t-45.5 -68t-173.5 -43.5q-72 0 -126 22t-75.5 56.5t-21.5 94.5v343q0 179 228 179q145 0 183 -56.5t38 -122.5zM186 460v-247q0 -49 17 -70.5t56 -21.5q70 0 70 85v258q0 82 -70 82q-73 0 -73 -86zM333 805h62q-11 -90 -76 -90
q-11 0 -32.5 6t-42 11.5t-31.5 5.5q-23 0 -29 -21h-63q0 43 21 67t55 24q19 0 45.5 -9t40 -12.5t20.5 -3.5q21 0 30 22z" />
    <glyph glyph-name="Odieresis" unicode="&#xd6;" horiz-adv-x="516" 
d="M482 502v-332q0 -48 -7 -72.5t-45.5 -68t-173.5 -43.5q-72 0 -126 22t-75.5 56.5t-21.5 94.5v343q0 179 228 179q145 0 183 -56.5t38 -122.5zM186 460v-247q0 -49 17 -70.5t56 -21.5q70 0 70 85v258q0 82 -70 82q-73 0 -73 -86zM343 831q23 0 40 -17t17 -40
q0 -24 -17 -41t-40 -17q-24 0 -41 17t-17 41q0 23 17 40t41 17zM172 831q23 0 40 -17t17 -40t-17 -40t-40 -17t-40 17t-17 40t17 40t40 17z" />
    <glyph glyph-name="multiply" unicode="&#xd7;" horiz-adv-x="520" 
d="M455 453l-106 -106l106 -106l-89 -90l-106 106l-106 -106l-90 90l106 106l-106 106l90 89l106 -106l106 106z" />
    <glyph glyph-name="Oslash" unicode="&#xd8;" horiz-adv-x="526" 
d="M497 674l-34 -70q25 -25 25 -88v-352q0 -49 -12 -79t-55 -64.5t-156 -34.5q-30 0 -48.5 2t-48.5 9l-28 -60l-110 55l35 69q-26 29 -26 89v361q0 81 58.5 125.5t163.5 44.5q52 0 98 -10l28 57zM192 459v-260q0 -78 72 -78q71 0 71 86v253q0 85 -70 85q-73 0 -73 -86z" />
    <glyph glyph-name="Ugrave" unicode="&#xd9;" horiz-adv-x="557" 
d="M494 492v-278q0 -62 -4 -86t-24 -57.5t-70 -56.5t-116 -23q-105 0 -160.5 48.5t-55.5 140.5v38v274q0 37 -6 49.5t-29 17.5v108h223v-108q-21 -5 -28 -18t-7 -49v-278q0 -47 17 -68t56 -21q38 0 54 20.5t16 69.5v277q0 37 -6 49.5t-29 17.5v108h204v-108q-21 -5 -28 -18
t-7 -49zM174 834h105l38 -119h-64z" />
    <glyph glyph-name="Uacute" unicode="&#xda;" horiz-adv-x="557" 
d="M494 492v-278q0 -62 -4 -86t-24 -57.5t-70 -56.5t-116 -23q-105 0 -160.5 48.5t-55.5 140.5v38v274q0 37 -6 49.5t-29 17.5v108h223v-108q-21 -5 -28 -18t-7 -49v-278q0 -47 17 -68t56 -21q38 0 54 20.5t16 69.5v277q0 37 -6 49.5t-29 17.5v108h204v-108q-21 -5 -28 -18
t-7 -49zM397 834l-79 -119h-64l38 119h105z" />
    <glyph glyph-name="Ucircumflex" unicode="&#xdb;" horiz-adv-x="557" 
d="M494 492v-278q0 -62 -4 -86t-24 -57.5t-70 -56.5t-116 -23q-105 0 -160.5 48.5t-55.5 140.5v38v274q0 37 -6 49.5t-29 17.5v108h223v-108q-21 -5 -28 -18t-7 -49v-278q0 -47 17 -68t56 -21q38 0 54 20.5t16 69.5v277q0 37 -6 49.5t-29 17.5v108h204v-108q-21 -5 -28 -18
t-7 -49zM339 833l76 -118h-80l-48 76l-48 -76h-78l78 118h100z" />
    <glyph glyph-name="Udieresis" unicode="&#xdc;" horiz-adv-x="557" 
d="M494 492v-278q0 -62 -4 -86t-24 -57.5t-70 -56.5t-116 -23q-105 0 -160.5 48.5t-55.5 140.5v38v274q0 37 -6 49.5t-29 17.5v108h223v-108q-21 -5 -28 -18t-7 -49v-278q0 -47 17 -68t56 -21q38 0 54 20.5t16 69.5v277q0 37 -6 49.5t-29 17.5v108h204v-108q-21 -5 -28 -18
t-7 -49zM371 831q23 0 40 -17t17 -40q0 -24 -17 -41t-40 -17q-24 0 -41 17t-17 41q0 23 17 40t41 17zM200 831q23 0 40 -17t17 -40t-17 -40t-40 -17t-40 17t-17 40t17 40t40 17z" />
    <glyph glyph-name="Yacute" unicode="&#xdd;" horiz-adv-x="495" 
d="M322 262v-87q0 -36 6.5 -48.5t28.5 -18.5v-108h-222v108q22 6 28.5 18.5t6.5 48.5v81l-124 256q-12 24 -20.5 34.5t-20.5 12.5v108h198v-77q0 -51 14 -80l42 -87l42 86q9 18 12 35t3 51v72h174v-108q-12 -3 -20 -11.5t-20 -34.5zM365 834l-78 -119h-64l38 119h104z" />
    <glyph glyph-name="Thorn" unicode="&#xde;" horiz-adv-x="539" 
d="M320 177h-94q0 -40 5 -50t30 -19v-108h-223v108q22 6 28.5 18.5t6.5 48.5v317q0 37 -6 49.5t-29 17.5v108h188v-74h88q95 0 134 -46t39 -158q0 -115 -38 -163.5t-129 -48.5zM226 475v-174h19q54 0 71.5 17.5t17.5 72.5q0 46 -16 65t-57 19h-35z" />
    <glyph glyph-name="germandbls" unicode="&#xdf;" horiz-adv-x="479" 
d="M241 318v87q35 0 49 18.5t14 65.5q0 45 -12 64t-43 19q-54 0 -54 -69v-503h-170v100l3 1q18 5 23 17.5t5 54.5v341q0 77 51 119t147 42q100 0 145.5 -40.5t45.5 -129.5q0 -58 -21 -88t-73 -46q50 -12 73 -41.5t23 -83.5v-96q0 -41 -8 -67t-27.5 -47.5t-41 -28.5t-68.5 -7
h-61v96q39 0 50 13t11 61v82q0 33 -13.5 47.5t-47.5 18.5z" />
    <glyph glyph-name="agrave" unicode="&#xe0;" horiz-adv-x="483" 
d="M49 333v118q106 52 199 52q82 0 130.5 -35t48.5 -95v-200q0 -46 4.5 -57t22.5 -15l4 -1v-100h-163v46q-72 -55 -144 -55q-58 0 -92.5 37.5t-34.5 99.5q0 53 26 84.5t93 59.5l103 37l41 14l1 21q0 63 -49 63q-50 0 -50 -62v-12h-140zM287 144v81l-45 -22q-39 -18 -54 -33
t-15 -33q0 -14 11 -26t26 -12q33 0 77 45zM130 671h105l38 -119h-64z" />
    <glyph glyph-name="aacute" unicode="&#xe1;" horiz-adv-x="483" 
d="M49 333v118q106 52 199 52q82 0 130.5 -35t48.5 -95v-200q0 -46 4.5 -57t22.5 -15l4 -1v-100h-163v46q-72 -55 -144 -55q-58 0 -92.5 37.5t-34.5 99.5q0 53 26 84.5t93 59.5l103 37l41 14l1 21q0 63 -49 63q-50 0 -50 -62v-12h-140zM287 144v81l-45 -22q-39 -18 -54 -33
t-15 -33q0 -14 11 -26t26 -12q33 0 77 45zM353 671l-79 -119h-64l38 119h105z" />
    <glyph glyph-name="acircumflex" unicode="&#xe2;" horiz-adv-x="483" 
d="M49 333v118q106 52 199 52q82 0 130.5 -35t48.5 -95v-200q0 -46 4.5 -57t22.5 -15l4 -1v-100h-163v46q-72 -55 -144 -55q-58 0 -92.5 37.5t-34.5 99.5q0 53 26 84.5t93 59.5l103 37l41 14l1 21q0 63 -49 63q-50 0 -50 -62v-12h-140zM287 144v81l-45 -22q-39 -18 -54 -33
t-15 -33q0 -14 11 -26t26 -12q33 0 77 45zM292 670l76 -118h-80l-48 76l-48 -76h-78l78 118h100z" />
    <glyph glyph-name="atilde" unicode="&#xe3;" horiz-adv-x="483" 
d="M49 333v118q106 52 199 52q82 0 130.5 -35t48.5 -95v-200q0 -46 4.5 -57t22.5 -15l4 -1v-100h-163v46q-72 -55 -144 -55q-58 0 -92.5 37.5t-34.5 99.5q0 53 26 84.5t93 59.5l103 37l41 14l1 21q0 63 -49 63q-50 0 -50 -62v-12h-140zM287 144v81l-45 -22q-39 -18 -54 -33
t-15 -33q0 -14 11 -26t26 -12q33 0 77 45zM317 641h62q-11 -89 -76 -89q-10 0 -22.5 3t-42.5 11.5t-41 8.5q-23 0 -29 -21h-63q0 42 21 66t55 24q18 0 54.5 -12t51.5 -12q12 0 18.5 4.5t11.5 16.5z" />
    <glyph glyph-name="adieresis" unicode="&#xe4;" horiz-adv-x="483" 
d="M49 333v118q106 52 199 52q82 0 130.5 -35t48.5 -95v-200q0 -46 4.5 -57t22.5 -15l4 -1v-100h-163v46q-72 -55 -144 -55q-58 0 -92.5 37.5t-34.5 99.5q0 53 26 84.5t93 59.5l103 37l41 14l1 21q0 63 -49 63q-50 0 -50 -62v-12h-140zM287 144v81l-45 -22q-39 -18 -54 -33
t-15 -33q0 -14 11 -26t26 -12q33 0 77 45zM327 668q23 0 40 -17t17 -40q0 -24 -17 -41t-40 -17q-24 0 -41 17t-17 41q0 23 17 40t41 17zM156 666q23 0 40 -17t17 -40t-17 -40t-40 -17t-40 17t-17 40t17 40t40 17z" />
    <glyph glyph-name="aring" unicode="&#xe5;" horiz-adv-x="483" 
d="M49 333v118q106 52 199 52q82 0 130.5 -35t48.5 -95v-200q0 -46 4.5 -57t22.5 -15l4 -1v-100h-163v46q-72 -55 -144 -55q-58 0 -92.5 37.5t-34.5 99.5q0 53 26 84.5t93 59.5l103 37l41 14l1 21q0 63 -49 63q-50 0 -50 -62v-12h-140zM287 144v81l-45 -22q-39 -18 -54 -33
t-15 -33q0 -14 11 -26t26 -12q33 0 77 45zM242 730q38 0 65 -27t27 -66q0 -38 -26.5 -65.5t-65.5 -27.5t-66 27t-27 66q0 38 26.5 65.5t66.5 27.5zM242 671q-14 0 -24 -10t-10 -24q0 -15 10 -25t24 -10t24 10t10 25q0 14 -10 24t-24 10z" />
    <glyph glyph-name="ae" unicode="&#xe6;" horiz-adv-x="714" 
d="M683 217h-257v-66q0 -26 16.5 -42t43.5 -16q58 0 58 72h139v-120q-56 -31 -98.5 -43t-94.5 -12q-66 0 -105.5 14t-73.5 51q-78 -65 -157 -65q-60 0 -95 36t-35 99q0 82 51.5 112.5t97.5 46.5l36 12l17 7l61 24v19q0 61 -51 61q-48 0 -48 -60v-13h-140v120q62 27 107.5 38
t95.5 11q64 0 115 -25q26 14 53 19.5t67 5.5q92 0 144.5 -36.5t52.5 -102.5v-147zM426 304h119v14q0 30 -7 56t-51 26q-61 0 -61 -81v-15zM287 144v84q-75 -36 -94.5 -51t-19.5 -37q0 -16 11 -27t28 -11q31 0 75 42z" />
    <glyph glyph-name="ccedilla" unicode="&#xe7;" horiz-adv-x="450" 
d="M190 -93l25 83q-63 0 -107.5 23.5t-60.5 52.5t-16 90v190q0 73 53 115t145 42q50 0 98.5 -14t92.5 -42v-137h-132v12q0 78 -60 78q-58 0 -58 -66v-171q0 -69 58 -69q22 0 37 11t18.5 25t4 29t0.5 27v15h132v-156q-59 -44 -167 -55l-12 -31q42 0 51.5 -9.5t9.5 -47.5v-13
q0 -48 -11.5 -61.5t-52.5 -13.5q-28 0 -38.5 9.5t-10.5 34.5v10l1 5h34q0 -20 14 -21q11 0 13 7t2 45q0 23 -15 23q-14 0 -14 -20h-34z" />
    <glyph glyph-name="egrave" unicode="&#xe8;" horiz-adv-x="459" 
d="M429 217h-258v-65q0 -58 59 -58t59 71h140v-120q-97 -54 -195 -54q-117 0 -153 37t-43 59t-7 64v200q0 70 53 111t146 41q108 0 153.5 -44t45.5 -112v-130zM289 304v25q0 71 -58 71q-60 0 -60 -74v-22h118zM119 671h105l38 -119h-64z" />
    <glyph glyph-name="eacute" unicode="&#xe9;" horiz-adv-x="459" 
d="M429 217h-258v-65q0 -58 59 -58t59 71h140v-120q-97 -54 -195 -54q-117 0 -153 37t-43 59t-7 64v200q0 70 53 111t146 41q108 0 153.5 -44t45.5 -112v-130zM289 304v25q0 71 -58 71q-60 0 -60 -74v-22h118zM342 671l-79 -119h-64l38 119h105z" />
    <glyph glyph-name="ecircumflex" unicode="&#xea;" horiz-adv-x="459" 
d="M429 217h-258v-65q0 -58 59 -58t59 71h140v-120q-97 -54 -195 -54q-117 0 -153 37t-43 59t-7 64v200q0 70 53 111t146 41q108 0 153.5 -44t45.5 -112v-130zM289 304v25q0 71 -58 71q-60 0 -60 -74v-22h118zM281 670l76 -118h-80l-48 76l-48 -76h-78l78 118h100z" />
    <glyph glyph-name="edieresis" unicode="&#xeb;" horiz-adv-x="459" 
d="M429 217h-258v-65q0 -58 59 -58t59 71h140v-120q-97 -54 -195 -54q-117 0 -153 37t-43 59t-7 64v200q0 70 53 111t146 41q108 0 153.5 -44t45.5 -112v-130zM289 304v25q0 71 -58 71q-60 0 -60 -74v-22h118zM316 668q23 0 40 -17t17 -40q0 -24 -17 -41t-40 -17
q-24 0 -41 17t-17 41q0 23 17 40t41 17zM145 666q23 0 40 -17t17 -40t-17 -40t-40 -17t-40 17t-17 40t17 40t40 17z" />
    <glyph glyph-name="igrave" unicode="&#xec;" horiz-adv-x="252" 
d="M197 493v-320q0 -44 3 -54t20 -16l6 -2l2 -101h-201v100l3 1q19 5 23.5 17t4.5 55v147q0 42 -5 54.5t-23 17.5l-3 1v100h170zM15 671h105l38 -119h-64z" />
    <glyph glyph-name="iacute" unicode="&#xed;" horiz-adv-x="252" 
d="M196 493v-320q0 -44 3 -54t20 -16l6 -2l2 -101h-201v100l3 1q19 5 23.5 17t4.5 55v147q0 42 -5 54.5t-23 17.5l-3 1v100h170zM238 671l-79 -119h-64l38 119h105z" />
    <glyph glyph-name="icircumflex" unicode="&#xee;" horiz-adv-x="252" 
d="M196 493v-320q0 -44 3 -54t20 -16l6 -2l2 -101h-201v100l3 1q19 5 23.5 17t4.5 55v147q0 42 -5 54.5t-23 17.5l-3 1v100h170zM167 670l76 -118h-80l-48 76l-48 -76h-78l78 118h100z" />
    <glyph glyph-name="idieresis" unicode="&#xef;" horiz-adv-x="252" 
d="M196 493v-320q0 -44 3 -54t20 -16l6 -2l2 -101h-201v100l3 1q19 5 23.5 17t4.5 55v147q0 42 -5 54.5t-23 17.5l-3 1v100h170zM188 668q23 0 40 -17t17 -40q0 -24 -17 -41t-40 -17q-24 0 -41 17t-17 41q0 23 17 40t41 17zM44 670q23 0 40 -17t17 -40t-17 -40t-40 -17
t-40 17t-17 40t17 40t40 17z" />
    <glyph glyph-name="eth" unicode="&#xf0;" horiz-adv-x="458" 
d="M142 518l-24 41l79 46q-21 15 -36 22t-35 12l14 46q48 -13 68 -21.5t47 -25.5l82 48l24 -41l-64 -37q71 -61 101 -126t30 -159v-174q0 -158 -201 -158q-196 0 -196 152v211q0 66 50 107t132 41l48 -2q-7 23 -14 37t-18 32zM171 337v-176q0 -67 60 -67q57 0 57 67v176
q0 63 -60 63q-26 0 -41.5 -17.5t-15.5 -45.5z" />
    <glyph glyph-name="ntilde" unicode="&#xf1;" horiz-adv-x="521" 
d="M197 493v-30q36 23 62 31t61 8q68 0 106 -37t38 -102v-190q0 -42 5 -54.5t24 -17.5l3 -1v-100h-160q-12 39 -12 84v42v194q0 35 -16 55t-46 20q-15 0 -28.5 -5t-36.5 -18v-199q0 -43 5 -55.5t23 -16.5l4 -1v-100h-203v100l3 1q18 5 23 17.5t5 54.5v147q0 42 -5 54.5
t-23 17.5l-3 1v100h171zM336 641h62q-11 -89 -76 -89q-10 0 -22.5 3t-42.5 11.5t-41 8.5q-23 0 -29 -21h-63q0 42 21 66t55 24q18 0 54.5 -12t51.5 -12q12 0 18.5 4.5t11.5 16.5z" />
    <glyph glyph-name="ograve" unicode="&#xf2;" horiz-adv-x="458" 
d="M428 343v-194q0 -44 -10 -68t-35.5 -45t-67 -33t-88.5 -12q-196 0 -196 152v211q0 69 52.5 108.5t142.5 39.5q124 0 163 -47.5t39 -111.5zM171 337v-176q0 -67 60 -67q57 0 57 67v176q0 62 -60 62q-25 0 -41 -17t-16 -45zM118 671h105l38 -119h-64z" />
    <glyph glyph-name="oacute" unicode="&#xf3;" horiz-adv-x="458" 
d="M428 343v-194q0 -44 -10 -68t-35.5 -45t-67 -33t-88.5 -12q-196 0 -196 152v211q0 69 52.5 108.5t142.5 39.5q124 0 163 -47.5t39 -111.5zM171 337v-176q0 -67 60 -67q57 0 57 67v176q0 62 -60 62q-25 0 -41 -17t-16 -45zM341 671l-79 -119h-64l38 119h105z" />
    <glyph glyph-name="ocircumflex" unicode="&#xf4;" horiz-adv-x="458" 
d="M428 343v-194q0 -44 -10 -68t-35.5 -45t-67 -33t-88.5 -12q-196 0 -196 152v211q0 69 52.5 108.5t142.5 39.5q124 0 163 -47.5t39 -111.5zM171 337v-176q0 -67 60 -67q57 0 57 67v176q0 62 -60 62q-25 0 -41 -17t-16 -45zM280 670l76 -118h-80l-48 76l-48 -76h-78l78 118
h100z" />
    <glyph glyph-name="otilde" unicode="&#xf5;" horiz-adv-x="458" 
d="M428 343v-194q0 -44 -10 -68t-35.5 -45t-67 -33t-88.5 -12q-196 0 -196 152v211q0 69 52.5 108.5t142.5 39.5q124 0 163 -47.5t39 -111.5zM171 337v-176q0 -67 60 -67q57 0 57 67v176q0 62 -60 62q-25 0 -41 -17t-16 -45zM305 641h62q-11 -89 -76 -89q-10 0 -22.5 3
t-42.5 11.5t-41 8.5q-23 0 -29 -21h-63q0 42 21 66t55 24q18 0 54.5 -12t51.5 -12q12 0 18.5 4.5t11.5 16.5z" />
    <glyph glyph-name="odieresis" unicode="&#xf6;" horiz-adv-x="458" 
d="M428 343v-194q0 -44 -10 -68t-35.5 -45t-67 -33t-88.5 -12q-196 0 -196 152v211q0 69 52.5 108.5t142.5 39.5q124 0 163 -47.5t39 -111.5zM171 337v-176q0 -67 60 -67q57 0 57 67v176q0 62 -60 62q-25 0 -41 -17t-16 -45zM315 668q23 0 40 -17t17 -40q0 -24 -17 -41
t-40 -17q-24 0 -41 17t-17 41q0 23 17 40t41 17zM144 666q23 0 40 -17t17 -40t-17 -40t-40 -17t-40 17t-17 40t17 40t40 17z" />
    <glyph glyph-name="divide" unicode="&#xf7;" horiz-adv-x="520" 
d="M474 287h-427v120h427v-120zM261 240q28 0 49 -21t21 -50t-20.5 -49.5t-49.5 -20.5t-50 20t-21 50q0 29 21 50t50 21zM261 598q28 0 49 -21t21 -50t-20.5 -49.5t-49.5 -20.5t-50 20t-21 50q0 29 21 50t50 21z" />
    <glyph glyph-name="oslash" unicode="&#xf8;" horiz-adv-x="458" 
d="M428 343v-194q0 -44 -10 -68t-35.5 -45t-67 -33t-88.5 -12q-35 0 -72 9l-23 -40l-94 51l24 39q-17 19 -24 39.5t-7 53.5v211q0 69 52.5 108.5t142.5 39.5q42 0 81 -10l22 40l92 -52l-21 -38q18 -27 23 -45t5 -54zM171 337v-176q0 -67 60 -67q57 0 57 67v176q0 62 -60 62
q-25 0 -41 -17t-16 -45z" />
    <glyph glyph-name="ugrave" unicode="&#xf9;" horiz-adv-x="514" 
d="M457 493v-320q0 -43 5 -55.5t24 -16.5l4 -1v-100h-172v30q-39 -22 -66.5 -30t-60.5 -8q-76 0 -108.5 41.5t-32.5 100.5v186q0 42 -5 55.5t-23 16.5l-4 1v100h161q7 -24 9 -41t2 -61v-218q0 -35 16 -55t47 -20q28 0 65 24v198q0 42 -5 55t-23 17l-3 1v100h170zM146 671
h105l38 -119h-64z" />
    <glyph glyph-name="uacute" unicode="&#xfa;" horiz-adv-x="514" 
d="M457 493v-320q0 -43 5 -55.5t24 -16.5l4 -1v-100h-172v30q-39 -22 -66.5 -30t-60.5 -8q-76 0 -108.5 41.5t-32.5 100.5v186q0 42 -5 55.5t-23 16.5l-4 1v100h161q7 -24 9 -41t2 -61v-218q0 -35 16 -55t47 -20q28 0 65 24v198q0 42 -5 55t-23 17l-3 1v100h170zM369 671
l-79 -119h-64l38 119h105z" />
    <glyph glyph-name="ucircumflex" unicode="&#xfb;" horiz-adv-x="514" 
d="M457 493v-320q0 -43 5 -55.5t24 -16.5l4 -1v-100h-172v30q-39 -22 -66.5 -30t-60.5 -8q-76 0 -108.5 41.5t-32.5 100.5v186q0 42 -5 55.5t-23 16.5l-4 1v100h161q7 -24 9 -41t2 -61v-218q0 -35 16 -55t47 -20q28 0 65 24v198q0 42 -5 55t-23 17l-3 1v100h170zM308 670
l76 -118h-80l-48 76l-48 -76h-78l78 118h100z" />
    <glyph glyph-name="udieresis" unicode="&#xfc;" horiz-adv-x="514" 
d="M457 493v-320q0 -43 5 -55.5t24 -16.5l4 -1v-100h-172v30q-39 -22 -66.5 -30t-60.5 -8q-76 0 -108.5 41.5t-32.5 100.5v186q0 42 -5 55.5t-23 16.5l-4 1v100h161q7 -24 9 -41t2 -61v-218q0 -35 16 -55t47 -20q28 0 65 24v198q0 42 -5 55t-23 17l-3 1v100h170zM329 668
q23 0 40 -17t17 -40q0 -24 -17 -41t-40 -17q-24 0 -41 17t-17 41q0 23 17 40t41 17zM158 666q23 0 40 -17t17 -40t-17 -40t-40 -17t-40 17t-17 40t17 40t40 17z" />
    <glyph glyph-name="yacute" unicode="&#xfd;" horiz-adv-x="455" 
d="M161 -17l-123 369q-7 21 -12 28t-19 14v99h195v-99q-20 -5 -20 -22q0 -11 4 -26l50 -188l48 194l2 17q0 18 -19 25v99h182v-99q-14 -6 -20.5 -16t-12.5 -32l-97 -346q-26 -94 -66 -133.5t-110 -39.5q-14 0 -23 1t-25 5v107q28 0 42 9t24 34zM339 671l-78 -119h-64l38 119
h104z" />
    <glyph glyph-name="thorn" unicode="&#xfe;" horiz-adv-x="499" 
d="M195 667v-207q38 25 63 34t59 9q78 0 121 -49q31 -32 31 -100v-214q0 -72 -39.5 -110.5t-111.5 -38.5q-30 0 -51 6t-72 29v-26q0 -45 3 -52t11 -13l9 -5q2 0 3.5 -0.5t2.5 -1.5l1 -101h-200v100q21 7 25.5 18.5t4.5 54.5v494q0 43 -4 54t-24 18l-2 101h170zM195 368v-248
q38 -22 68 -22q66 0 66 78v162q0 26 -17 42t-45 16q-33 0 -72 -28z" />
    <glyph glyph-name="ydieresis" unicode="&#xff;" horiz-adv-x="455" 
d="M161 -17l-123 369q-7 21 -12 28t-19 14v99h195v-99q-20 -5 -20 -22q0 -11 4 -26l50 -188l48 194l2 17q0 18 -19 25v99h182v-99q-14 -6 -20.5 -16t-12.5 -32l-97 -346q-26 -94 -66 -133.5t-110 -39.5q-14 0 -23 1t-25 5v107q28 0 42 9t24 34zM324 668q23 0 40 -17t17 -40
q0 -24 -17 -41t-40 -17q-24 0 -41 17t-17 41q0 23 17 40t41 17zM153 666q23 0 40 -17t17 -40t-17 -40t-40 -17t-40 17t-17 40t17 40t40 17z" />
    <glyph glyph-name="dotlessi" unicode="&#x131;" horiz-adv-x="252" 
d="M196 493v-320q0 -44 3 -54t20 -16l6 -2l2 -101h-201v100l3 1q19 5 23.5 17t4.5 55v147q0 42 -5 54.5t-23 17.5l-3 1v100h170z" />
    <glyph glyph-name="Lslash" unicode="&#x141;" horiz-adv-x="513" 
d="M490 301v-301h-453v108q23 5 29.5 16.5t6.5 50.5v61l-36 -27v125l36 28v132q0 36 -6 47t-30 18v108h226v-108q-22 -5 -29.5 -18t-7.5 -48v-28l87 65v-122l-87 -68v-215h41q58 0 72 11t14 56v109h137z" />
    <glyph glyph-name="lslash" unicode="&#x142;" horiz-adv-x="252" 
d="M196 667v-201l36 28v-100l-36 -28v-193q0 -44 4 -54t26 -19v-100h-200v100q22 9 26 18t4 56v91l-37 -28v101l37 28v129v25q0 20 -6 31.5t-17 13.5l-7 2v100h170z" />
    <glyph glyph-name="OE" unicode="&#x152;" horiz-adv-x="787" 
d="M754 667v-207h-145l1 17q0 32 -15.5 45t-54.5 13h-72v-134h187v-113h-187v-161h65q52 0 64 13t12 73v8h145v-221h-389q-53 -14 -111 -14q-72 0 -125.5 22t-74.5 57.5t-21 95.5v342q0 178 219 178q73 0 113 -14h389zM186 460v-247q0 -50 16.5 -70.5t56.5 -20.5q69 0 69 84
v258q0 39 -18.5 60.5t-51.5 21.5q-72 0 -72 -86z" />
    <glyph glyph-name="oe" unicode="&#x153;" horiz-adv-x="716" 
d="M686 215h-258v-66q0 -56 59 -56q27 0 43 16t16 45v9h140v-118q-88 -55 -195 -55q-47 0 -75 6t-62 23q-55 -29 -128 -29q-195 0 -195 152v212q0 69 52 109t144 40q41 0 70 -7t62 -25q57 32 129 32q110 0 154 -45.5t44 -112.5v-130zM288 160v176q0 30 -15 47t-43 17
q-27 0 -43 -17t-16 -47v-173q0 -70 60 -70q57 0 57 67zM546 302v25q0 73 -57 73q-61 0 -61 -77v-21h118z" />
    <glyph glyph-name="Scaron" unicode="&#x160;" horiz-adv-x="517" 
d="M478 604v-157h-150l1 22q0 77 -73 77q-30 0 -49 -17t-19 -43q0 -30 17 -41t33.5 -19t26.5 -12l76 -29q84 -33 114.5 -73.5t30.5 -120.5q0 -95 -61 -150t-166 -55q-120 0 -228 77v167h155v-23q0 -86 74 -86q32 0 52 19t20 50q0 32 -20.5 50.5t-93.5 47.5t-92.5 38.5
t-55.5 41.5t-36 119q0 92 60 143t170 51q58 0 113.5 -20t100.5 -57zM208 715l-76 118h80l48 -76l48 76h78l-78 -118h-100z" />
    <glyph glyph-name="scaron" unicode="&#x161;" horiz-adv-x="440" 
d="M402 459v-125h-128q0 37 -11.5 51.5t-40.5 14.5q-20 0 -33 -12t-13 -33q0 -24 19 -36t26 -14.5t75.5 -23.5t92.5 -50t24 -88q0 -152 -182 -152q-94 0 -202 37v133h136v-10q0 -57 51 -57q20 0 34 13t14 34q0 23 -16.5 35.5t-87.5 33.5t-102 50.5t-31 91.5q0 70 51.5 110.5
t140.5 40.5q86 0 183 -44zM169 552l-76 118h80l48 -76l48 76h78l-78 -118h-100z" />
    <glyph glyph-name="Ydieresis" unicode="&#x178;" horiz-adv-x="495" 
d="M322 262v-87q0 -36 6.5 -48.5t28.5 -18.5v-108h-222v108q22 6 28.5 18.5t6.5 48.5v81l-124 256q-12 24 -20.5 34.5t-20.5 12.5v108h198v-77q0 -51 14 -80l42 -87l42 86q9 18 12 35t3 51v72h174v-108q-12 -3 -20 -11.5t-20 -34.5zM346 831q23 0 40 -17t17 -40
q0 -24 -17 -41t-40 -17q-24 0 -41 17t-17 41q0 23 17 40t41 17zM175 831q23 0 40 -17t17 -40t-17 -40t-40 -17t-40 17t-17 40t17 40t40 17z" />
    <glyph glyph-name="Zcaron" unicode="&#x17d;" horiz-adv-x="526" 
d="M486 667v-100l-255 -434h46q48 0 62.5 14.5t14.5 61.5v10h136v-219h-457v98l258 442h-60q-43 0 -56 -14t-13 -61v-23h-125v225h449zM221 715l-76 118h80l48 -76l48 76h78l-78 -118h-100z" />
    <glyph glyph-name="zcaron" unicode="&#x17f;" horiz-adv-x="453" 
d="M430 0h-407v96l231 301h-51q-34 0 -47.5 -11.5t-13.5 -40.5v-11h-119v159h407v-86l-237 -311h45q39 0 56 15t17 51v8h119v-170zM175 552l-76 118h80l48 -76l48 76h78l-78 -118h-100z" />
    <glyph glyph-name="florin" unicode="&#x192;" horiz-adv-x="520" 
d="M388 349h-58l-27 -177q-24 -154 -85 -226.5t-168 -72.5q-57 0 -102 24l44 139q28 -18 56 -18q41 0 63 31t33 104l30 196h-44l20 125h44l9 59q15 97 51 139q49 62 126 62q67 0 141 -59l-49 -126q-41 42 -69 42q-26 0 -32 -15t-8.5 -25.5t-5.5 -32.5l-8 -44h60z" />
    <glyph glyph-name="hungarumlaut" unicode="&#x2ba;" 
d="M281 671l-78 -119h-51l41 119h88zM415 671l-79 -119h-51l42 119h88z" />
    <glyph glyph-name="circumflex" unicode="&#x2c6;" 
d="M301 670l76 -118h-80l-48 76l-48 -76h-78l78 118h100z" />
    <glyph glyph-name="caron" unicode="&#x2c7;" 
d="M199 552l-76 118h80l48 -76l48 76h78l-78 -118h-100z" />
    <glyph glyph-name="breve" unicode="&#x2d8;" 
d="M320 654h65q-31 -102 -136 -102q-52 0 -88 27t-46 75h72q13 -22 26.5 -30.5t36.5 -8.5q45 0 70 39z" />
    <glyph glyph-name="dotaccent" unicode="&#x2d9;" 
d="M250 672q25 0 42.5 -17.5t17.5 -42.5t-17.5 -42.5t-42.5 -17.5t-42.5 17.5t-17.5 42.5t17.5 42.5t42.5 17.5z" />
    <glyph glyph-name="ring" unicode="&#x2da;" 
d="M250 730q38 0 65 -27t27 -66q0 -38 -26.5 -65.5t-65.5 -27.5t-66 27t-27 66q0 38 26.5 65.5t66.5 27.5zM250 671q-14 0 -24 -10t-10 -24q0 -15 10 -25t24 -10t24 10t10 25q0 14 -10 24t-24 10z" />
    <glyph glyph-name="ogonek" unicode="&#x2db;" 
d="M262 0h72q-18 -17 -26 -32t-8 -31q0 -17 8.5 -27.5t22.5 -10.5l15 3v-54q-18 -5 -31 -5q-35 0 -59 24t-24 61q0 34 30 72z" />
    <glyph glyph-name="tilde" unicode="&#x2dc;" 
d="M325 641h62q-11 -89 -76 -89q-10 0 -22.5 3t-42.5 11.5t-41 8.5q-23 0 -29 -21h-63q0 42 21 66t55 24q18 0 54.5 -12t51.5 -12q12 0 18.5 4.5t11.5 16.5z" />
    <glyph glyph-name="summation" unicode="&#x3a3;" horiz-adv-x="667" 
d="M620 750v-247h-116l-14 130h-322l249 -366l-249 -400h331l8 133h123v-250h-609v130l244 387l-244 353v130h599z" />
    <glyph glyph-name="Omega" unicode="&#x3a9;" horiz-adv-x="667" 
d="M28 0v117h137q-73 46 -105 103.5t-32 144.5q0 138 86 228t220 90q132 0 218 -90t86 -228q0 -87 -31.5 -144.5t-104.5 -103.5h136v-117h-270v104q70 40 102 99t32 149q0 93 -47.5 153.5t-121.5 60.5t-121.5 -60.5t-47.5 -153.5q0 -90 32 -149t103 -99v-104h-271z" />
    <glyph glyph-name="pi" unicode="&#x3c0;" horiz-adv-x="667" 
d="M115 0v363h-77v117h591v-117h-75v-363h-130v363h-179v-363h-130z" />
    <glyph glyph-name="endash" unicode="&#x2013;" horiz-adv-x="520" 
d="M463 324v-105h-407v105h407z" />
    <glyph glyph-name="emdash" unicode="&#x2014;" horiz-adv-x="640" 
d="M640 324v-105h-640v105h640z" />
    <glyph glyph-name="quoteleft" unicode="&#x2018;" horiz-adv-x="235" 
d="M147 680l20 -30q-18 -13 -27 -22.5t-16 -24.5q58 -8 58 -59q0 -26 -18 -45t-44 -19q-30 0 -48.5 19.5t-18.5 50.5q0 40 24 74t70 56z" />
    <glyph glyph-name="quoteright" unicode="&#x2019;" horiz-adv-x="235" 
d="M88 479l-20 31q19 15 26.5 22.5t16.5 24.5q-26 3 -42 19t-16 40q0 26 18 45t44 19q30 0 48.5 -19.5t18.5 -50.5q0 -84 -94 -131z" />
    <glyph glyph-name="quotesinglbase" unicode="&#x201a;" horiz-adv-x="235" 
d="M88 -76l-20 30q18 13 26 22t17 25q-26 3 -42 19t-16 40q0 26 18 45t44 19q30 0 48.5 -19.5t18.5 -50.5q0 -39 -25 -74t-69 -56z" />
    <glyph glyph-name="quotedblleft" unicode="&#x201c;" horiz-adv-x="419" 
d="M147 680l20 -30q-18 -13 -27 -22.5t-16 -24.5q58 -8 58 -59q0 -26 -18 -45t-44 -19q-30 0 -48.5 19.5t-18.5 50.5q0 40 24 74t70 56zM330 680l21 -30q-18 -13 -27 -22.5t-16 -24.5q57 -8 57 -59q0 -26 -18 -45t-44 -19q-30 0 -48.5 19.5t-18.5 50.5q0 39 25 74t69 56z
" />
    <glyph glyph-name="quotedblright" unicode="&#x201d;" horiz-adv-x="419" 
d="M88 479l-20 31q19 15 26.5 22.5t16.5 24.5q-26 3 -42 19t-16 40q0 26 18 45t44 19q30 0 48.5 -19.5t18.5 -50.5q0 -84 -94 -131zM271 479l-20 31q18 13 27 22.5t16 24.5q-26 3 -42 19t-16 40q0 26 18 45t44 19q30 0 48.5 -19.5t18.5 -50.5q0 -39 -25.5 -74.5t-68.5 -56.5
z" />
    <glyph glyph-name="quotedblbase" unicode="&#x201e;" horiz-adv-x="419" 
d="M88 -76l-20 30q18 13 26 22t17 25q-26 3 -42 19t-16 40q0 26 18 45t44 19q30 0 48.5 -19.5t18.5 -50.5q0 -40 -24 -74t-70 -56zM271 -76l-20 30q18 13 27 22.5t16 24.5q-26 3 -42 19t-16 40q0 26 18 45t44 19q30 0 48.5 -19.5t18.5 -50.5q0 -39 -25 -74t-69 -56z" />
    <glyph glyph-name="dagger" unicode="&#x2020;" horiz-adv-x="519" 
d="M199 402h-125v91h125v174h125v-174h121v-91h-121v-549h-125v549z" />
    <glyph glyph-name="daggerdbl" unicode="&#x2021;" horiz-adv-x="519" 
d="M201 406h-127v91h127v170h121v-170h123v-91h-123v-292h123v-91h-123v-170h-121v170h-127v91h127v292z" />
    <glyph glyph-name="bullet" unicode="&#x2022;" horiz-adv-x="667" 
d="M336 477q57 0 97 -40t40 -98q0 -57 -40 -98t-97 -41q-59 0 -99.5 40.5t-40.5 98.5q0 57 40.5 97.5t99.5 40.5z" />
    <glyph glyph-name="ellipsis" unicode="&#x2026;" horiz-adv-x="755" 
d="M127 131q30 0 51 -21t21 -51t-21 -51t-51 -21t-51 21t-21 51t21 51t51 21zM379 131q30 0 51 -21t21 -51t-21 -51t-51 -21t-51 21t-21 51t21 51t51 21zM630 131q30 0 51 -21t21 -51t-21 -51t-51 -21t-51 21t-21 51t21 51t51 21z" />
    <glyph glyph-name="perthousand" unicode="&#x2030;" horiz-adv-x="968" 
d="M258 582v-160q0 -92 -121 -92q-117 0 -117 88v164q0 95 121 95q117 0 117 -95zM110 563v-120q0 -35 29 -35t29 37v120q0 34 -29 34t-29 -36zM478 667l-206 -667h-81l208 667h79zM649 242v-160q0 -92 -120 -92q-118 0 -118 88v164q0 95 121 95q117 0 117 -95zM502 222
v-119q0 -35 29 -35q28 0 28 37v120q0 34 -29 34q-28 0 -28 -37zM948 242v-160q0 -92 -121 -92q-118 0 -118 88v164q0 95 122 95q117 0 117 -95zM800 222v-119q0 -35 29 -35t29 37v120q0 34 -29 34t-29 -37z" />
    <glyph glyph-name="guilsinglleft" unicode="&#x2039;" horiz-adv-x="212" 
d="M92 397h80l-53 -132l53 -132h-80l-52 132z" />
    <glyph glyph-name="guilsinglright" unicode="&#x203a;" horiz-adv-x="212" 
d="M120 133h-80l53 132l-53 132h80l52 -132z" />
    <glyph glyph-name="trademark" unicode="&#x2122;" horiz-adv-x="780" 
d="M332 667v-159h-83v44q0 20 -6.5 28t-23.5 10v-202q0 -20 3.5 -25.5t17.5 -8.5v-67h-144v67q14 2 18 8t4 26v202q-30 -4 -30 -40v-42h-83v159h327zM561 499l44 168h155v-67q-15 -3 -18.5 -8.5t-3.5 -25.5v-178q0 -20 3.5 -25.5t18.5 -8.5v-67h-144v67q14 3 17.5 8.5
t3.5 25.5v124l-65 -225h-50l-61 221v-120q0 -18 3 -23.5t16 -10.5l3 -1v-66h-126v67q13 3 17 9t4 25v178q0 20 -3.5 26t-18.5 8v67h161z" />
    <glyph glyph-name="partialdiff" unicode="&#x2202;" 
d="M56 552l16 113q100 -11 167 -36t157.5 -102.5t90.5 -261.5q0 -122 -68 -198t-178 -76q-96 0 -164 67t-68 162q0 91 59.5 151.5t147.5 60.5q73 0 121 -45q-64 143 -281 165zM244 323q-43 0 -72 -30t-29 -76q0 -48 28.5 -78.5t72.5 -30.5t73 30t29 78q0 45 -29 76t-73 31z
" />
    <glyph glyph-name="Delta" unicode="&#x2206;" horiz-adv-x="667" 
d="M16 0l244 667h141l249 -667h-634zM202 118h259l-130 391z" />
    <glyph glyph-name="product" unicode="&#x220f;" horiz-adv-x="733" 
d="M40 750h653v-117h-82v-766h82v-117h-293v117h79v766h-225v-766h78v-117h-292v117h83v766h-83v117z" />
    <glyph glyph-name="minus" unicode="&#x2212;" horiz-adv-x="520" 
d="M474 287h-427v120h427v-120z" />
    <glyph glyph-name="fraction" unicode="&#x2215;" horiz-adv-x="153" 
d="M220 667l-207 -667h-80l207 667h80z" />
    <glyph glyph-name="radical" unicode="&#x221a;" horiz-adv-x="667" 
d="M667 827v-117h-178l-165 -710h-173l-57 270h-94v117h202l18 -85l9 -73q4 -35 4 -72h11q0 52 12.5 132.5t30.5 157.5l88 380h292z" />
    <glyph glyph-name="infinity" unicode="&#x221e;" horiz-adv-x="667" 
d="M337 255q-73 -79 -157 -79q-72 0 -117.5 46.5t-45.5 118.5q0 69 46 115t116 46q78 0 152 -78q69 78 157 78q71 0 116.5 -45.5t45.5 -117.5q0 -71 -46 -117t-118 -46q-80 0 -149 79zM398 339q33 -46 68 -46q21 0 35.5 13.5t14.5 32.5t-14.5 32.5t-35.5 13.5q-27 0 -51 -26
l-13 -15zM270 339q-35 46 -69 46q-21 0 -35.5 -13.5t-14.5 -32.5q0 -20 14 -33t36 -13q27 0 52 25l13 16z" />
    <glyph glyph-name="integral" unicode="&#x222b;" 
d="M46 -240l24 116q33 -10 55 -10q58 0 58 71v18v44v476q0 79 2 110t12 69t55 67t109 29q20 0 40.5 -2t51.5 -8l-24 -116q-33 10 -55 10q-58 0 -58 -71v-62v-67v-409q0 -104 -4 -138t-35 -85.5t-137 -51.5q-38 0 -94 10z" />
    <glyph glyph-name="approxequal" unicode="&#x2248;" 
d="M78 340l-71 46q32 80 65 110t87 30q33 0 88.5 -20.5t71 -25t31.5 -4.5q24 0 38 10t32 41l74 -42q-24 -49 -39.5 -71t-46.5 -42.5t-73 -20.5q-22 0 -38 5t-59.5 21t-59 20t-26.5 4q-25 0 -40 -12t-34 -49zM78 137l-71 46q32 80 65 110t87 30q31 0 87 -20.5t72.5 -25
t31.5 -4.5q24 0 38 10t32 41l74 -42q-23 -47 -39.5 -70.5t-46 -43.5t-73.5 -20q-22 0 -38 5t-59.5 21t-59 20t-26.5 4q-25 0 -40 -12t-34 -49z" />
    <glyph glyph-name="notequal" unicode="&#x2260;" 
d="M261 470l55 108l82 -43l-34 -65h102v-117h-155l-33 -66h188v-117h-241l-49 -96l-82 42l28 54h-89v117h141l35 66h-176v117h228z" />
    <glyph glyph-name="lessequal" unicode="&#x2264;" 
d="M466 670v-122l-296 -141l296 -140v-122l-433 208v109zM466 117v-117h-433v117h433z" />
    <glyph glyph-name="greaterequal" unicode="&#x2265;" 
d="M33 145v122l296 141l-296 140v122l433 -208v-109zM33 0v117h433v-117h-433z" />
    <glyph glyph-name="lozenge" unicode="&#x25ca;" horiz-adv-x="667" 
d="M334 693l259 -359l-259 -360l-260 360zM334 604l-197 -270l197 -271l197 271z" />
    <glyph glyph-name="apple" unicode="&#xf000;" horiz-adv-x="667" 
d="M481 691v-10q0 -65 -45 -114t-104 -49q0 72 40 118t109 55zM624 456q-43 -32 -62 -64.5t-19 -73.5q0 -51 26 -90.5t74 -59.5q-40 -96 -83.5 -145.5t-88.5 -49.5q-16 0 -36 8.5t-35.5 15t-44.5 6.5q-30 0 -40.5 -3.5t-40.5 -15.5t-47 -12q-66 0 -130 110.5t-64 223.5
q0 97 52 158t135 61q34 0 72.5 -15t51.5 -15q17 0 49 12.5t49 16.5t41 4q89 0 141 -72z" />
    <glyph glyph-name="fi" unicode="&#xf001;" horiz-adv-x="518" 
d="M261 670v-101l-15 1q-49 0 -49 -57v-20h56v-105h-56v-215q0 -45 3.5 -54.5t23.5 -17.5l3 -1v-100h-201v100l3 1q20 6 24 16t4 56v215h-31v105h31v28q0 80 33 118t104 38q25 0 67 -7zM393 682q30 0 51.5 -21.5t21.5 -51.5t-21 -52t-52 -22t-52.5 21.5t-21.5 52.5
q0 30 21.5 51.5t52.5 21.5zM464 493v-320q0 -44 3 -54t20 -16l6 -2l2 -101h-201v100l3 1q19 5 23.5 17t4.5 55v147q0 42 -5 54.5t-23 17.5l-3 1v100h170z" />
    <glyph glyph-name="fl" unicode="&#xf002;" horiz-adv-x="517" 
d="M261 670v-101l-15 1q-49 0 -49 -57v-20h56v-105h-56v-215q0 -45 3.5 -54.5t23.5 -17.5l3 -1v-100h-201v100l3 1q20 6 24 16t4 56v215h-31v105h31v28q0 80 33 118t104 38q25 0 67 -7zM464 667v-494q0 -45 4 -55t25 -17l2 -101h-201v100l3 1q19 5 23.5 17t4.5 55v321
q0 42 -5 54.5t-23 17.5l-3 1v100h170z" />
    </font>
</defs>
</svg>
